<?xml version="1.0" standalone="no"?>
<!DOCTYPE svg PUBLIC "-//W3C//DTD SVG 1.1//EN" "http://www.w3.org/Graphics/SVG/1.1/DTD/svg11.dtd" >
<svg>
<metadata>
Created by FontForge 20090914 at Wed Mar  2 20:40:17 2022
 By www-data
Copyright (c) 2010, Sebastian Kosch (sebastian@aldusleaf.org),
with Reserved Font Name "Crimson Text".
This Font Software is licensed under the SIL Open Font License, Version 1.1.
This license is available with a FAQ at: http://scripts.sil.org/OFL
</metadata>
<defs>
<font id="CrimsonText-BoldItalic" horiz-adv-x="0" >
  <font-face 
    font-family="Crimson Text"
    font-weight="700"
    font-style="italic"
    font-stretch="normal"
    units-per-em="1024"
    panose-1="2 0 8 3 0 0 0 0 0 0"
    ascent="717"
    descent="-307"
    x-height="449"
    cap-height="662"
    bbox="-167.996 -238 1266.01 939"
    underline-thickness="51"
    underline-position="-102"
    slope="-11"
    unicode-range="U+0020-U+F89F"
  />
<missing-glyph horiz-adv-x="374" 
d="M34 0v682h272v-682h-272zM68 34h204v614h-204v-614z" />
    <glyph glyph-name=".notdef" horiz-adv-x="374" 
d="M34 0v682h272v-682h-272zM68 34h204v614h-204v-614z" />
    <glyph glyph-name="space" unicode=" " horiz-adv-x="190" 
 />
    <glyph glyph-name="exclam" unicode="!" horiz-adv-x="230" 
d="M2 66c4 20.667 14 38 30 52s33 21 51 21c19.333 0 34.333 -7 45 -21s14 -31.333 10 -52s-14 -38.667 -30 -54s-33 -23 -51 -23s-32.667 7.5 -44 22.5s-15 33.167 -11 54.5zM185 642c15.333 0 27.666 -6.16504 36.999 -18.498s12 -28.833 8 -49.5
c-6.66699 -36.667 -42.667 -154.334 -108 -353.001c-7.33301 -20.667 -19.666 -31 -36.999 -31c-4 0 -6 7.33301 -6 22c2 40 6.66699 104.667 14 194s13.333 145.666 18 168.999c4 20 13 36.167 27 48.5s29.667 18.5 47 18.5z" />
    <glyph glyph-name="quotedbl" unicode="&#x22;" horiz-adv-x="340" 
d="M289 698c15.333 0 24.832 -3.50293 28.499 -10.5029s3.5 -25.167 -0.5 -54.5c-4 -20 -14.333 -50.667 -31 -92s-28 -72 -34 -92c-2.66699 -10 -9.66699 -15 -21 -15c-4 0 -7.66699 1.16699 -11 3.5s-4.66602 5.5 -3.99902 9.5c2.66699 26.667 4 51.834 4 75.501
s-0.666992 46.334 -2 68.001s-2 36.834 -2 45.501c2 11.333 10.5 24.5 25.5 39.5s30.833 22.5 47.5 22.5zM134.999 697.997c15.333 0 24.832 -3.50293 28.499 -10.5029s3.5 -25.167 -0.5 -54.5c-4 -20 -14.333 -50.667 -31 -92s-28 -72 -34 -92
c-2.66699 -10 -9.66699 -15 -21 -15c-4 0 -7.66699 1.16699 -11 3.5s-4.66602 5.5 -3.99902 9.5c2.66699 26.667 4 51.834 4 75.501s-0.666992 46.334 -2 68.001s-2 36.834 -2 45.501c2 11.333 10.5 24.5 25.5 39.5s30.833 22.5 47.5 22.5z" />
    <glyph glyph-name="numbersign" unicode="#" horiz-adv-x="442" 
d="M356 378l71 0.00195312c4.66699 0 7 -1.66699 7 -5c0 -9.33301 -2.83301 -22 -8.5 -38s-11.167 -24 -16.5 -24h-72l-29 -74h71c4.66699 0 7 -2 7 -6c0 -9.33301 -2.83301 -21.833 -8.5 -37.5s-11.167 -23.5 -16.5 -23.5h-72l-51 -146c-2 -5.33301 -14.667 -8 -38 -8
c-18 0 -27 1.66699 -27 5c0.666992 1.33301 1 2.33301 1 3l52 146h-77l-51 -146c-2 -5.33301 -14.667 -8 -38 -8c-18 0 -27 1.66699 -27 5c0.666992 1.33301 1 2.33301 1 3l52 146h-71c-4.66699 0 -7 2 -7 6c0 9.33301 2.83301 21.833 8.5 37.5s11.167 23.5 16.5 23.5h72
l29 74h-71c-4.66699 0 -7 2 -7 6c0 9.33301 2.83301 21.833 8.5 37.5s11.167 23.5 16.5 23.5h72l51 146c2 5.33301 16.333 8 43 8c14.667 0 22 -2 22 -6c-0.666992 -0.666992 -1 -1.33398 -1 -2.00098l-52 -146h77l51 146c2 5.33301 16.333 8 43 8c14.667 0 22 -2 22 -6
c-0.666992 -0.666992 -1 -1.33398 -1 -2.00098zM274 311.002h-77l-29 -74h77z" />
    <glyph glyph-name="dollar" unicode="$" horiz-adv-x="452" 
d="M233 231l-67 -185.002h4c28.667 0 52.5 12.833 71.5 38.5s28.5 51.167 28.5 76.5c0 18.667 -9 38.334 -27 59.001c-2 2.66699 -5.33301 6.33398 -10 11.001zM146 -9.00195l-21.998 -60c-1.33301 -3.33301 -6 -5 -14 -5c-11.333 0 -23.333 5.33301 -36 16l20 55
c-24 4 -53.333 10.333 -88 19v26c0 40.667 2.66699 85 8 133c0.666992 6.66699 8.66699 10 24 10c10.667 0 17.667 -1.33301 21 -4c0 -22.667 5 -45.834 15 -69.501s24.333 -41.167 43 -52.5l74 207c-5.33301 5.33301 -13.5 12.333 -24.5 21s-18.833 15 -23.5 19
c-22.667 18.667 -40.167 37.5 -52.5 56.5s-18.5 42.167 -18.5 69.5c0 59.333 24.833 109.333 74.5 150s100.834 61 153.501 61c6.66699 0 16 -0.666992 28 -2l19 53c1.33301 4 5.66602 6 12.999 6c16 0 29.333 -6 40 -18l-20 -51c15.333 -4.66699 34.333 -9 57 -13
c-7.33301 -114.667 -13.666 -172 -18.999 -172c-14 0 -23.667 1.33301 -29 4c-4.66699 1.33301 -7 5.33301 -7 12c0 37.333 -9.33301 69 -28 95l-67 -183c7.33301 -6 17.666 -13.833 30.999 -23.5l28 -20.5c18.667 -15.333 32.667 -31.166 42 -47.499s14 -37.5 14 -63.5
c0 -58 -19.667 -108.333 -59 -151c-22.667 -24.667 -49.834 -43.667 -81.501 -57s-62.834 -20 -93.501 -20h-22zM245.002 410.998l64.001 175.999c-8 1.33301 -14.333 2 -19 2c-31.333 0 -54 -11.333 -68 -34s-21 -43.667 -21 -63c0 -18 5.33301 -34.667 16 -50
c3.33301 -5.33301 12.666 -15.666 27.999 -30.999z" />
    <glyph glyph-name="percent" unicode="%" horiz-adv-x="627" 
d="M220 605c-32.667 0 -55.001 -31.667 -67.001 -95c-16.667 -90 -4 -135 38 -135c17.333 0 31.833 9.16699 43.5 27.5s19.834 39.5 24.501 63.5c18 92.667 5 139 -39 139zM235.999 642c40.667 0 72.334 -15 95.001 -45s30 -66 22 -108s-29.167 -77.833 -63.5 -107.5
s-71.833 -44.5 -112.5 -44.5s-72.334 14.833 -95.001 44.5s-30 65.5 -22 107.5s29.167 78 63.5 108s71.833 45 112.5 45zM430.999 268c-32.667 0 -55.001 -31.333 -67.001 -94c-16.667 -90.667 -4 -136 38 -136c17.333 0 31.833 9.16699 43.5 27.5
s19.834 39.833 24.501 64.5c18 92 5 138 -39 138zM446.998 306c40.667 0 72.334 -15 95.001 -45s30 -66 22 -108s-29.167 -77.833 -63.5 -107.5s-71.833 -44.5 -112.5 -44.5s-72.334 14.833 -95.001 44.5s-30 65.5 -22 107.5s29.167 78 63.5 108s71.833 45 112.5 45z
M628.998 629l-568.001 -622c-7.33301 -7.33301 -18.333 -11 -33 -11c-7.33301 0 -13.666 0.833008 -18.999 2.5s-9.16602 3.5 -11.499 5.5s-3.5 4 -3.5 6l569 622c9.33301 9.33301 16 14 20 14c19.333 0 34.666 -5.66699 45.999 -17z" />
    <glyph glyph-name="ampersand" unicode="&#x26;" horiz-adv-x="649" 
d="M294 635c30.667 0 57.4961 -8.33691 80.4961 -25.0039s34.5 -39 34.5 -67c0 -19.333 -7.16699 -38 -21.5 -56s-27.166 -27 -38.499 -27c-9.33301 0 -14 3 -14 9c0 0.666992 1.33301 5.5 4 14.5s4 19.167 4 30.5c0 20.667 -6.83301 37.5 -20.5 50.5s-30.5 19.5 -50.5 19.5
c-29.333 0 -53.666 -11.833 -72.999 -35.5s-29 -51.167 -29 -82.5c0 -27.333 9.66699 -49.333 29 -66c16.667 4.66699 30 7 40 7c18 0 34.167 -4.33301 48.5 -13s21.5 -20 21.5 -34c0 -12.667 -6.66699 -22.5 -20 -29.5s-28.333 -10.5 -45 -10.5c-25.333 0 -46 7 -62 21
c-30 -25.333 -45 -71 -45 -137c0 -46 12.667 -84.833 38 -116.5s61.666 -47.5 108.999 -47.5c52.667 0 96.5 19.5 131.5 58.5s52.5 85.167 52.5 138.5c0 24.667 -4.66699 46.167 -14 64.5s-23.666 27.5 -42.999 27.5c-16.667 0 -31.167 -4.5 -43.5 -13.5
s-18.5 -20.833 -18.5 -35.5c0 -10.667 9.33301 -18.334 28 -23.001c10 -2.66699 19.833 -7.66699 29.5 -15s14.5 -15.666 14.5 -24.999c0 -32.667 -14.333 -52.667 -43 -60c-15.333 0 -32.333 10.167 -51 30.5s-28 43.166 -28 68.499c0 36.667 14.667 67.5 44 92.5
s63.333 37.5 102 37.5c10 0 22.667 -0.333008 38 -1s28 -1 38 -1c22 0 41.167 5.33301 57.5 16s24.5 25.334 24.5 44.001c0 8.66699 -3.16699 15.834 -9.5 21.501s-14.166 8.5 -23.499 8.5c-6.66699 0 -14.667 -3.66699 -24 -11s-17.666 -11 -24.999 -11
c-12 0 -22 4.66699 -30 14s-12 20.333 -12 33c0 20.667 7.33301 36.334 22 47.001c96.667 0 145 -34 145 -102c0 -30 -9.5 -54.5 -28.5 -73.5s-45.167 -28.5 -78.5 -28.5c-4 0 -12.667 0.666992 -26 2c38 -34 57 -74 57 -120c0 -66 -30.5 -122.167 -91.5 -168.5
s-129.833 -69.5 -206.5 -69.5c-68 0 -127.5 19.5 -178.5 58.5s-76.5 89.5 -76.5 151.5c0 41.333 14 79.333 42 114s58.333 58.334 91 71.001l-11 11.5c-6 6.33301 -10.667 11.5 -14 15.5s-7.33301 9.83301 -12 17.5s-8 15.834 -10 24.501s-3 18.334 -3 29.001
c0 49.333 20.5 87.666 61.5 114.999s85.167 41 132.5 41z" />
    <glyph glyph-name="quotesingle" unicode="'" horiz-adv-x="186" 
d="M135 698c15.333 0 24.832 -3.50293 28.499 -10.5029s3.5 -25.167 -0.5 -54.5c-4 -20 -14.333 -50.667 -31 -92s-28 -72 -34 -92c-2.66699 -10 -9.66699 -15 -21 -15c-4 0 -7.66699 1.16699 -11 3.5s-4.66602 5.5 -3.99902 9.5c2.66699 26.667 4 51.834 4 75.501
s-0.666992 46.334 -2 68.001s-2 36.834 -2 45.501c2 11.333 10.5 24.5 25.5 39.5s30.833 22.5 47.5 22.5z" />
    <glyph glyph-name="parenleft" unicode="(" horiz-adv-x="353" 
d="M29 200c0 59.333 9.83203 118.501 29.499 177.501s43.834 110 72.501 153s58.5 81.333 89.5 115s58.833 59.167 83.5 76.5s42 26 52 26c4.66699 0 7 -6.33301 7 -19c0 -1.33301 -0.166992 -2.83301 -0.5 -4.5s-0.5 -2.83398 -0.5 -3.50098s-0.666992 -1.66699 -2 -3
c-45.333 -29.333 -93.5 -101.5 -144.5 -216.5s-76.5 -235.167 -76.5 -360.5c0 -64 6.66699 -119 20 -165s26.666 -73.333 39.999 -82c0.666992 0 1 -1.66699 1 -5c-0.666992 -4.66699 -2.66699 -10.167 -6 -16.5s-6.66602 -9.5 -9.99902 -9.5
c-6.66699 0 -16 4.83301 -28 14.5s-25.333 24.5 -40 44.5s-28.5 43 -41.5 69s-23.833 57.5 -32.5 94.5s-13 75.167 -13 114.5z" />
    <glyph glyph-name="parenright" unicode=")" horiz-adv-x="344" 
d="M319 408c0 -57.333 -9.5 -115.003 -28.5 -173.003s-42.667 -108.5 -71 -151.5s-58 -81.667 -89 -116s-58.833 -60.333 -83.5 -78s-42.667 -26.5 -54 -26.5c-4.66699 0 -7 6.33301 -7 19v6c0 2.66699 1 4.66699 3 6c13.333 6.66699 31.666 26.167 54.999 58.5
s47.5 73 72.5 122s46.667 109.5 65 181.5s27.5 143.667 27.5 215c0 60 -5.83301 112.667 -17.5 158s-25.834 75 -42.501 89c-0.666992 0.666992 -1 1.66699 -1 3c0.666992 4.66699 2.83398 10.334 6.50098 17.001s7.16699 10 10.5 10c10.667 0 24.334 -8.5 41.001 -25.5
s33.5 -39.667 50.5 -68s31.667 -64.666 44 -108.999s18.5 -90.166 18.5 -137.499z" />
    <glyph glyph-name="asterisk" unicode="*" horiz-adv-x="376" 
d="M221 516c6.66699 0 16 10.002 28 30.002s26.167 39.833 42.5 59.5s32.833 29.5 49.5 29.5c18 0 27 -11 27 -33c0 -18 -11 -33.833 -33 -47.5s-43.833 -25.5 -65.5 -35.5s-32.5 -19 -32.5 -27c0 -6 6.33301 -10.5 19 -13.5s26.5 -5.5 41.5 -7.5
s28.833 -6.83301 41.5 -14.5s19 -18.5 19 -32.5c0 -11.333 -4.83301 -21.833 -14.5 -31.5s-19.834 -14.5 -30.501 -14.5c-12 0 -24.167 7 -36.5 21s-23.5 28 -33.5 42s-18.333 21 -25 21s-10.834 -5.83301 -12.501 -17.5s-3.16699 -28.334 -4.5 -50.001
s-4.33301 -40.167 -9 -55.5c-7.33301 -25.333 -22 -38 -44 -38c-8 0 -15.333 3.33301 -22 10s-10 14.334 -10 23.001c0 14.667 11.333 38.167 34 70.5s34 52.166 34 59.499c0 5.33301 -2.66699 8 -8 8s-23.166 -7.33301 -53.499 -22s-52.5 -22 -66.5 -22
c-8.66699 0 -16.167 3 -22.5 9s-9.5 13 -9.5 21c0 6 1.16699 12.333 3.5 19s8.5 13.5 18.5 20.5s23.333 10.5 40 10.5c10.667 0 25.167 -1.33301 43.5 -4s30.5 -4 36.5 -4c7.33301 0 12.5 0.333008 15.5 1s4.83301 1.66699 5.5 3s1 3.33301 1 6
c0 6.66699 -8.83301 22 -26.5 46s-26.5 44 -26.5 60c0 12.667 4.33301 24 13 34s19 15 31 15c8 0 14.5 -1.83301 19.5 -5.5s8.33301 -10.834 10 -21.501s2.66699 -18.5 3 -23.5s0.5 -15.167 0.5 -30.5v-9c-0.666992 -6 -1 -11.833 -1 -17.5s0.166992 -12 0.5 -19
s1.33301 -12.5 3 -16.5s3.83398 -6 6.50098 -6z" />
    <glyph glyph-name="plus" unicode="+" horiz-adv-x="485" 
d="M236 470c1.33301 6 11.499 10.5029 30.499 13.5029s32.833 4.5 41.5 4.5c4 0 6.83301 -0.833008 8.5 -2.5s2.16699 -3.83398 1.5 -6.50098l-35 -188c-1.33301 -3.33301 -0.333008 -5 3 -5h173c2.66699 0 4 -6 4 -18c0 -18.667 -8.66699 -36.667 -26 -54h-166
c-2.66699 0 -4 -1.33301 -4 -4l-35 -180c-0.666992 -4.66699 -9 -8.83398 -25 -12.501s-29.667 -5.5 -41 -5.5c-5.33301 0 -9.33301 1 -12 3s-3.66699 4 -3 6l36 188c0 3.33301 -1.33301 5 -4 5h-171c-2.66699 0 -4 6 -4 18c0 18.667 8.66699 36.667 26 54h165
c2.66699 0 4 1.33301 4 4c4 19.333 9.33301 48.166 16 86.499s12.334 69.5 17.001 93.5z" />
    <glyph glyph-name="comma" unicode="," horiz-adv-x="243" 
d="M2 -134c0 1.33301 2.83301 3.83398 8.5 7.50098s12.5 8.83398 20.5 15.501s16 14.5 24 23.5s14.833 20.5 20.5 34.5s8.5 28.667 8.5 44c0 6.66699 -2.66699 17.667 -8 33s-8 27.666 -8 36.999c0 21.333 8.83301 38.833 26.5 52.5s39.167 20.5 64.5 20.5
c17.333 0 29 -2.66699 35 -8c0.666992 -4.66699 1 -15 1 -31c0 -43.333 -9.66699 -81.666 -29 -114.999c-20 -34.667 -40 -61.834 -60 -81.501s-49.333 -41.834 -88 -66.501c-10.667 8 -16 19.333 -16 34z" />
    <glyph glyph-name="hyphen" unicode="-" horiz-adv-x="330" 
d="M53 267l226.999 11.999c4 0 6 -4 6 -12c0 -7.33301 -3.16699 -19.5 -9.5 -36.5s-11.833 -25.833 -16.5 -26.5l-226 -11c-3.33301 0 -5 5 -5 15c0 7.33301 2.83301 18.833 8.5 34.5s10.834 23.834 15.501 24.501z" />
    <glyph glyph-name="period" unicode="." horiz-adv-x="203" 
d="M156 66c-4 -20.667 -13.833 -38.667 -29.5 -54s-32.834 -23 -51.501 -23c-19.333 0 -34.5 7.83301 -45.5 23.5s-14.5 33.5 -10.5 53.5s14.167 37.167 30.5 51.5s33.833 21.5 52.5 21.5s33.334 -7.16699 44.001 -21.5s14 -31.5 10 -51.5z" />
    <glyph glyph-name="slash" unicode="/" horiz-adv-x="486" 
d="M496 755l-424 -767c-2 -4 -10.167 -8.83301 -24.5 -14.5s-28.833 -8.5 -43.5 -8.5c-4 0 -7.33301 0.5 -10 1.5s-4 2.16699 -4 3.5l-1 2l424 767c8 14.667 24.667 22 50 22c16 0 27 -2 33 -6z" />
    <glyph glyph-name="zero" unicode="0" horiz-adv-x="502" 
d="M307 575c-27.333 0 -53.333 -24.001 -78 -72.001s-45 -111.667 -61 -191c-14.667 -78.667 -18.167 -142.167 -10.5 -190.5s23.5 -72.5 47.5 -72.5c53.333 0 97.666 89.333 132.999 268c15.333 78.667 20.333 141.334 15 188.001s-20.666 70 -45.999 70zM316 624.999
c56.667 0 100.171 -30.833 130.504 -92.5s37.166 -135.5 20.499 -221.5s-52.334 -159.833 -107.001 -221.5s-110.334 -92.5 -167.001 -92.5s-100.834 30.833 -132.501 92.5s-39.167 135.5 -22.5 221.5s53 159.833 109 221.5s112.333 92.5 169 92.5z" />
    <glyph glyph-name="one" unicode="1" horiz-adv-x="309" 
d="M298 643c6 0 9.00098 -6.33594 9.00098 -19.0029c-9.33301 -19.333 -18.333 -50.666 -27 -93.999l-78 -404c-4.66699 -26 -7 -46 -7 -60c0 -8.66699 3.83301 -16 11.5 -22s14.834 -9.83301 21.501 -11.5s12 -2.5 16 -2.5c0.666992 0 1 -1 1 -3
c0 -11.333 -2.33301 -21.666 -7 -30.999c-6.66699 0.666992 -24.834 2.16699 -54.501 4.5s-51.5 3.5 -65.5 3.5c-14.667 0 -37.5 -1.16699 -68.5 -3.5s-49.833 -3.83301 -56.5 -4.5c-0.666992 0.666992 -1 3 -1 7c0 18 2.66699 27 8 27c7.33301 0 18.833 2.83301 34.5 8.5
s24.834 11.5 27.501 17.5c5.33301 11.333 10.666 30.333 15.999 57l66 339c2.66699 10.667 4 20.334 4 29.001c0 14 -4.33301 21 -13 21s-32.334 -11 -71.001 -33c-8 4.66699 -11 12.667 -9 24c0 5.33301 1.33301 9.33301 4 12c149.333 92 229 138 239 138z" />
    <glyph glyph-name="two" unicode="2" horiz-adv-x="452" 
d="M245 559c-20 0 -39.8311 -7.17285 -59.498 -21.5059s-35.667 -28.5 -48 -42.5s-18.833 -21 -19.5 -21c-4 0 -7.33301 2.66699 -10 8s-4 11 -4 17l4 17c18.667 24.667 48.167 51.834 88.5 81.501s76.5 44.5 108.5 44.5c39.333 0 71.166 -11.667 95.499 -35
s36.5 -55.333 36.5 -96c0 -15.333 -2 -31.166 -6 -47.499s-8.33301 -31.166 -13 -44.499s-12.667 -28.333 -24 -45l-28 -41.5c-7.33301 -11 -19.166 -25 -35.499 -42l-36.5 -38c-8 -8.33301 -22 -21.166 -42 -38.499l-40 -34.5l-42 -35l-38 -31.5
c-1.33301 -1.33301 -2 -3.66602 -2 -6.99902c0 -2.66699 1 -4 3 -4h159c10.667 0 20.334 1.5 29.001 4.5s16.167 7.83301 22.5 14.5s11.166 12.334 14.499 17.001s7.16602 11.5 11.499 20.5l7.5 15.5c3.33301 5.33301 13 8 29 8c6 0 10.667 -2.66699 14 -8
c-4.66699 -12 -16.334 -39.333 -35.001 -82s-31.667 -73.334 -39 -92.001l-143 1c-132.667 -0.666992 -201.334 -1 -206.001 -1c-3.33301 5.33301 -5 11.666 -5 18.999c0 5.33301 0.333008 10 1 14c73.333 70.667 140.333 145.834 201 225.501s95.667 143.834 105 192.501
c2 11.333 3 22 3 32c0 22.667 -4.66699 41 -14 55s-23.666 21 -42.999 21z" />
    <glyph glyph-name="three" unicode="3" horiz-adv-x="430" 
d="M310 642c25.333 0 47.666 -9.83203 66.999 -29.499s25.333 -48.167 18 -85.5c-4.66699 -22.667 -12.667 -43.334 -24 -62.001s-22.333 -33 -33 -43s-27.667 -24.667 -51 -44c24 0 49.333 -15.667 76 -47s35.667 -70.333 27 -117c-8.66699 -44.667 -29 -84 -61 -118
s-68.167 -59.167 -108.5 -75.5s-81.166 -24.5 -122.499 -24.5c-46 0 -79.667 10.667 -101 32c-2 5.33301 -3 14.666 -3 27.999c0 14.667 5 26.334 15 35.001s21 13 33 13c12.667 0 28.5 -9.33301 47.5 -28s36.5 -28 52.5 -28c29.333 0 54.166 12 74.499 36
s34.833 58.667 43.5 104c8 38.667 5.5 70.167 -7.5 94.5s-34.833 36.5 -65.5 36.5c-24 0 -46.333 -1.66699 -67 -5c-3.33301 6 -3.66602 14.667 -0.999023 26c2.66699 10 4.66699 16.333 6 19c86.667 14.667 138.667 62 156 142c4.66699 20.667 2 37.667 -8 51
s-21.667 20 -35 20c-20 0 -39.667 -4 -59 -12s-35 -16 -47 -24s-18.667 -12 -20 -12c-5.33301 0 -8 6.66699 -8 20c0 8.66699 1 14 3 16c24 27.333 51.5 47.833 82.5 61.5s71.167 20.5 120.5 20.5z" />
    <glyph glyph-name="four" unicode="4" horiz-adv-x="464" 
d="M439 646c3.33301 0 6.66699 -1.16895 10 -3.50195s4.66602 -5.16602 3.99902 -8.49902l-75 -382c-1.33301 -5.33301 1 -8 7 -8h30c5.33301 0 8 -5 8 -15c0 -5.33301 -1.33301 -12.666 -4 -21.999s-5.33398 -17 -8.00098 -23l-4 -10h-38
c-3.33301 0 -5.66602 -2.66699 -6.99902 -8l-32 -162c-16 -6 -37 -9 -63 -9c-36 0 -53 4.33301 -51 13l31 160c0 3.33301 -2.66699 5 -8 5l-223 1c-4.66699 6 -7 14 -7 24c0 6 1 14 3 24l398 408c10.667 10.667 20.334 16 29.001 16zM300.001 444.998
c1.33301 4.66699 0.666016 7 -2.00098 7c-1.33301 0 -2.66602 -0.666992 -3.99902 -2l-188 -194c-1.33301 -1.33301 -2 -3 -2 -5c0 -4.66699 1.66699 -7 5 -7h144c6 2 9.66699 5 11 9z" />
    <glyph glyph-name="five" unicode="5" horiz-adv-x="445" 
d="M402 535l-85.002 -0.00195312c-51.333 0.666992 -83.5 0.333984 -96.5 -0.999023s-20.5 -5 -22.5 -11l-39 -111c26.667 6.66699 52.334 10 77.001 10c48 0 89.333 -18.5 124 -55.5s47.334 -80.833 38.001 -131.5c-13.333 -68.667 -48.666 -125.667 -105.999 -171
s-121.666 -68 -192.999 -68c-46 0 -79.667 10.667 -101 32c-2 5.33301 -3 14.666 -3 27.999c0 14.667 5 26.334 15 35.001s21 13 33 13c12.667 0 28.5 -9.33301 47.5 -28s36.5 -28 52.5 -28c32 0 58.167 14 78.5 42s33.833 59 40.5 93
c8.66699 43.333 5.16699 78.333 -10.5 105s-37.5 40 -65.5 40c-17.333 0 -33.333 -1.16699 -48 -3.5s-26 -4.66602 -34 -6.99902s-12.667 -3.5 -14 -3.5c-5.33301 0 -10 4.66699 -14 14l26 78l54.5 155.5c18.333 51 29.166 76.5 32.499 76.5
c143.333 0 222.333 1.66699 237 5c3.33301 -6.66699 3.66602 -18 0.999023 -34c-6 -34 -14.333 -58.667 -25 -74z" />
    <glyph glyph-name="six" unicode="6" horiz-adv-x="467" 
d="M231 344c0 5.33301 5.83301 10.5 17.5 15.5s24.5 7.5 38.5 7.5c33.333 0 62 -14.667 86 -44s36 -64.333 36 -105c0 -57.333 -24.167 -109 -72.5 -155s-100.166 -69 -155.499 -69c-48 0 -87.167 14.833 -117.5 44.5s-45.5 70.5 -45.5 122.5c0 28.667 5 59 15 91
s26.333 66.167 49 102.5s50.5 71.333 83.5 105s74.5 67 124.5 100s105 61.5 165 85.5c3.33301 -1.33301 6 -5.83301 8 -13.5s2.66699 -14.5 2 -20.5c-131.333 -56 -224.333 -148.333 -279 -277c-28 -66 -42 -137.333 -42 -214c0 -49.333 16.333 -74 49 -74
c25.333 0 46.666 18.833 63.999 56.5s26 78.167 26 121.5c0 38.667 -6 64 -18 76c-8 8 -19 14 -33 18c-0.666992 3.33301 -1 12 -1 26z" />
    <glyph glyph-name="seven" unicode="7" horiz-adv-x="471" 
d="M37 -11c-7.33301 0 -13.667 2.66699 -19 8s-8 11 -8 17c0 6.66699 1.33301 11.334 4 14.001l347 485h-220c-31.333 0 -60.333 -26.333 -87 -79c-0.666992 0 -2.33398 -0.166992 -5.00098 -0.5s-4.66699 -0.5 -6 -0.5c-11.333 0 -19 2.33301 -23 7
c4.66699 13.333 11.667 31 21 53l29.5 66.5c10.333 22.333 16.833 36.833 19.5 43.5c2.66699 8 9.33398 12 20.001 12h301c9.33301 0 22 0.5 38 1.5s24.333 1.5 25 1.5c3.33301 0 5 -1.66699 5 -5c0 -8.66699 -13 -32.334 -39 -71.001l-396 -552
c-2 -0.666992 -4.33301 -1 -7 -1z" />
    <glyph glyph-name="eight" unicode="8" horiz-adv-x="458" 
d="M185 46c20.667 0 38.001 7.5 52.001 22.5s23.167 30 27.5 45s6.5 28.5 6.5 40.5c0 6.66699 -0.666992 13.167 -2 19.5s-2.83301 12 -4.5 17s-4.5 10.5 -8.5 16.5s-7 10.833 -9 14.5s-5.83301 8.5 -11.5 14.5s-9.33398 10 -11.001 12s-5.66699 6 -12 12l-10.5 10
c-5.33301 5.33301 -9 8 -11 8c-1.33301 0 -4 -1.33301 -8 -4c-10 -7.33301 -20.833 -27.5 -32.5 -60.5s-17.5 -63.5 -17.5 -91.5c0 -50.667 17.333 -76 52 -76zM286.001 580c-18.667 0 -33.835 -8.16797 -45.502 -24.501s-19 -32 -22 -47s-4.5 -27.833 -4.5 -38.5
c0 -6 0.333008 -11.333 1 -16s2.16699 -9.5 4.5 -14.5s4 -8.83301 5 -11.5s3.83301 -6.5 8.5 -11.5s7.33398 -8.16699 8.00098 -9.5s3.83398 -4.66602 9.50098 -9.99902s8.83398 -8.33301 9.50098 -9c3.33301 -3.33301 6.66602 -5 9.99902 -5c2.66699 0 5 1 7 3
c35.333 46.667 53 92.667 53 138c0 37.333 -14.667 56 -44 56zM294 632.999c42.667 0 79.332 -10.498 109.999 -31.498s46 -50.167 46 -87.5c0 -64 -44.333 -121.667 -133 -173c-1.33301 -0.666992 -2 -1.83398 -2 -3.50098s0.333008 -2.83398 1 -3.50098l10 -9
c6.66699 -6 11.834 -10.833 15.501 -14.5s9 -9.33398 16 -17.001s12.667 -15 17 -22l14 -23.5c5 -8.66699 8.66699 -17.834 11 -27.501s3.5 -19.5 3.5 -29.5c0 -48 -23.5 -92.833 -70.5 -134.5s-101.833 -62.5 -164.5 -62.5c-46 0 -84.167 10.333 -114.5 31
s-45.5 52.667 -45.5 96c0 80.667 47.667 145.334 143 194.001c4 2 4.33301 4.66699 1 8c0 0.666992 -4.83301 6 -14.5 16s-15.834 17 -18.501 21s-7.16699 11.167 -13.5 21.5s-10.666 20.833 -12.999 31.5s-3.5 22.334 -3.5 35.001c0 57.333 22 102.5 66 135.5
s90.333 49.5 139 49.5z" />
    <glyph glyph-name="nine" unicode="9" horiz-adv-x="451" 
d="M233 294c0 -5.33301 -5.66699 -10.333 -17 -15s-24.333 -7 -39 -7c-33.333 0 -62 14.667 -86 44s-36 64.333 -36 105c0 57.333 24.167 109 72.5 155s100.166 69 155.499 69c48 0 87.167 -14.833 117.5 -44.5s45.5 -70.5 45.5 -122.5c0 -28.667 -5 -59 -15 -91
s-26.333 -66.167 -49 -102.5s-50.5 -71.333 -83.5 -105s-74.5 -67 -124.5 -100s-105 -61.5 -165 -85.5c-3.33301 1.33301 -6 5.83301 -8 13.5s-2.66699 14.5 -2 20.5c131.333 56 224.333 148.333 279 277c28 66 42 137.333 42 214c0 49.333 -16.333 74 -49 74
c-25.333 0 -46.666 -18.833 -63.999 -56.5s-26 -78.167 -26 -121.5c0 -38.667 6 -64 18 -76c8 -8 19 -14 33 -18c0.666992 -3.33301 1 -12.333 1 -27z" />
    <glyph glyph-name="colon" unicode=":" horiz-adv-x="226" 
d="M70 361c0 23.333 9.00098 43.835 27.001 61.502s37.667 26.5 59 26.5c16 0 29 -5.33301 39 -16s15 -24.334 15 -41.001c0 -22.667 -8.66699 -44 -26 -64s-36.333 -30 -57 -30c-16.667 0 -30.334 6.16699 -41.001 18.5s-16 27.166 -16 44.499zM10.001 52.002
c0 23.333 9.00098 43.835 27.001 61.502s37.667 26.5 59 26.5c16 0 28.833 -5.33301 38.5 -16s14.5 -24.334 14.5 -41.001c0 -22.667 -8.5 -44 -25.5 -64s-35.833 -30 -56.5 -30c-16.667 0 -30.334 6.16699 -41.001 18.5s-16 27.166 -16 44.499z" />
    <glyph glyph-name="semicolon" unicode=";" horiz-adv-x="262" 
d="M105 361c0 23.333 9.00098 43.835 27.001 61.502s37.667 26.5 59 26.5c16 0 29 -5.33301 39 -16s15 -24.334 15 -41.001c0 -22.667 -8.66699 -44 -26 -64s-36.333 -30 -57 -30c-16.667 0 -30.334 6.16699 -41.001 18.5s-16 27.166 -16 44.499zM72.001 -17.998
c2 10 -0.498047 21.501 -7.49805 34.501s-8.83301 28.167 -5.5 45.5c2.66699 13.333 11.667 28.666 27 45.999s35.666 26 60.999 26c18 0 30 -2.66699 36 -8c3.33301 -28.667 3 -53.334 -1 -74.001c-2 -10.667 -11 -34.667 -27 -72
c-17.333 -31.333 -36.666 -57.666 -57.999 -78.999s-51.333 -44.333 -90 -69h-2c-3.33301 0 -6.83301 4.5 -10.5 13.5s-4.83398 15.833 -3.50098 20.5c0 0.666992 5.66699 5.5 17 14.5s23.666 22.5 36.999 40.5s22.333 38.333 27 61z" />
    <glyph glyph-name="less" unicode="&#x3c;" horiz-adv-x="427" 
d="M93 209l265.999 -157.999l1 -6c-0.666992 -4.66699 -4.5 -15.834 -11.5 -33.501s-11.833 -26.5 -14.5 -26.5l-4 2l-312 190c-9.33301 6.66699 -12.333 20 -9 40c2 10 9 18 21 24l384 187c2.66699 1.33301 4.33398 2 5.00098 2c2.66699 0 4 -14.667 4 -44l-4 -22z" />
    <glyph glyph-name="equal" unicode="=" horiz-adv-x="531" 
d="M27 109l-4 9.99902c6 22.667 12.333 41.667 19 57c0.666992 2 1.66699 3.33301 3 4s2.33301 1 3 1h2h412c4.66699 0 7 -1 7 -3v-2c-4 -19.333 -11 -39.666 -21 -60.999c0 -0.666992 -2.66699 -2.66699 -8 -6h-413zM55 250.999l-5.00098 10c11.333 41.333 20 62 26 62h418
c2.66699 0 3.66699 -1.66699 3 -5c-3.33301 -16.667 -10.666 -37 -21.999 -61l-6 -6h-414z" />
    <glyph glyph-name="greater" unicode="&#x3e;" horiz-adv-x="441" 
d="M331 209l-266.001 155.001l-1 9c14.667 38 23.667 57 27 57l4 -2l311 -187c10 -6 14 -14 12 -24c-3.33301 -20 -11.666 -33.333 -24.999 -40l-385 -190c-2.66699 -1.33301 -4.33398 -2 -5.00098 -2c-2.66699 0 -4.16699 9.16699 -4.5 27.5
s-0.166016 29.166 0.500977 32.499l4 6z" />
    <glyph glyph-name="question" unicode="?" horiz-adv-x="346" 
d="M6 51c0 23.333 8.66602 43.833 25.999 61.5s36.333 26.5 57 26.5c16.667 0 30.334 -5.33301 41.001 -16s16 -24.667 16 -42c0 -23.333 -8.5 -44.5 -25.5 -63.5s-35.833 -28.5 -56.5 -28.5c-15.333 0 -28.833 5.83301 -40.5 17.5s-17.5 26.5 -17.5 44.5zM178.999 215
c0 -8 -4.33301 -14.668 -13 -20.001c-16 0 -39.333 11.333 -70 34s-46 46.334 -46 71.001c0 27.333 7 49.5 21 66.5s29.667 29.5 47 37.5l101 45c34.667 15.333 52 37.333 52 66c0 34.667 -16.333 52 -49 52c-10 0 -22.5 -7.5 -37.5 -22.5s-27.5 -22.5 -37.5 -22.5
c-22 0 -36.833 9.66699 -44.5 29s-7.16699 38.666 1.5 57.999c20 24.667 47.667 37 83 37c43.333 0 81 -13.667 113 -41s48 -62.333 48 -105c0 -27.333 -7.33301 -54.166 -22 -80.499s-32.667 -45.166 -54 -56.499c-30 -16.667 -64.333 -33.667 -103 -51
c-26 -10.667 -39 -24.334 -39 -41.001c0 -11.333 8.16699 -23 24.5 -35s24.5 -19 24.5 -21z" />
    <glyph glyph-name="at" unicode="@" horiz-adv-x="749" 
d="M291 -171c-48 0 -91.498 11 -130.498 33s-69.333 50.167 -91 84.5s-36.834 72.5 -45.501 114.5s-9 83.333 -1 124c23.333 120 77.833 215.333 163.5 286s182.167 106 289.5 106c59.333 0 109 -17.833 149 -53.5s66.667 -79.5 80 -131.5s14.666 -105 3.99902 -159
c-17.333 -87.333 -46.666 -150.166 -87.999 -188.499s-84.333 -57.5 -129 -57.5c-31.333 0 -56.166 8.33301 -74.499 25s-25.5 35.667 -21.5 57c0 0.666992 -0.666992 0.666992 -2 0s-2.33301 -1.33398 -3 -2.00098c-11.333 -17.333 -30.5 -34 -57.5 -50
s-55.167 -24 -84.5 -24c-32.667 0 -56.167 15.333 -70.5 46s-17.833 64.667 -10.5 102c14 70.667 50.5 133.167 109.5 187.5s128.167 81.5 207.5 81.5c10.667 0 23.667 -0.666992 39 -2s28 -2.66602 38 -3.99902l15 -3c-7.33301 -20.667 -13 -38.334 -17 -53.001l-59 -205
c-20.667 -72.667 -17 -109 11 -109c22 0 41.5 6.5 58.5 19.5s30.5 30.167 40.5 51.5s17.667 40.333 23 57s9.66602 34 12.999 52c16.667 86.667 8 159.167 -26 217.5s-89.333 87.5 -166 87.5c-85.333 0 -161.5 -27.5 -228.5 -82.5s-108.833 -126.167 -125.5 -213.5
c-20.667 -106 -11.667 -190.667 27 -254s113 -95 223 -95c21.333 0 43.666 4.33301 66.999 13v-9c-2 -12.667 -14.333 -24 -37 -34s-52.667 -15 -90 -15zM412.002 182l42 140c4 8 5.16699 16.167 3.5 24.5s-10.167 12.5 -25.5 12.5c-26.667 0 -57 -19.833 -91 -59.5
s-57.333 -91.834 -70 -156.501c-6.66699 -35.333 -8.66699 -59.166 -6 -71.499s10 -18.5 22 -18.5c20 0 44.667 17.5 74 52.5s46.333 60.5 51 76.5z" />
    <glyph glyph-name="A" unicode="A" horiz-adv-x="634" 
d="M303 213c-34.667 0 -63.001 -0.333984 -85.001 -1.00098c-2 0 -5.16699 -0.666992 -9.5 -2s-6.83301 -2.33301 -7.5 -3l-45 -76c-22 -32.667 -33 -54.667 -33 -66s8.5 -20 25.5 -26s30.167 -9 39.5 -9c1.33301 0 2 -1.33301 2 -4c0 -13.333 -1.66699 -23.333 -5 -30
c-8 0.666992 -22.667 2 -44 4s-40 3 -56 3c-16.667 0 -38.167 -1 -64.5 -3l-53.5 -4c-0.666992 1.33301 -1 4 -1 8c0 17.333 1.66699 26 5 26c6.66699 0 21 4.83301 43 14.5s36 18.5 42 26.5c6 8.66699 19 29.667 39 63l272 452c0.666992 1.33301 4 7 10 17
s10.667 17.5 14 22.5s7.83301 11.333 13.5 19s10.834 13.334 15.501 17.001s9 5.5 13 5.5c6 0 10 -2.66699 12 -8l105 -518c2.66699 -17.333 7.33398 -42.333 14.001 -75c2 -10.667 10.667 -19.334 26 -26.001s26.666 -10 33.999 -10c1.33301 0 2 -1.66699 2 -5
c0 -13.333 -2.33301 -23 -7 -29c-2 0 -18.833 1.16699 -50.5 3.5s-55.5 3.5 -71.5 3.5c-12.667 0 -58.667 -2.33301 -138 -7c-0.666992 0.666992 -1 3 -1 7c0 18 2.66699 27 8 27s14 2.83301 26 8.5s20.333 11.167 25 16.5c3.33301 4.66699 5 9.33398 5 14.001
c0 6 -7.33301 52 -22 138c0 2.66699 -2 4 -6 4c-24 1.33301 -54.333 2 -91 2zM314.999 272.999c25.333 0 47.668 0.666992 67.001 2c2.66699 0 4 1.66699 4 5l-32 178l-108 -178c-0.666992 -0.666992 -0.833984 -1.5 -0.500977 -2.5s0.833008 -1.5 1.5 -1.5
c18 -2 40.667 -3 68 -3z" />
    <glyph glyph-name="B" unicode="B" horiz-adv-x="561" 
d="M391 224c0 60.667 -30.665 90.999 -91.998 90.999c-38.667 0 -58.667 -4.66699 -60 -14l-44 -225v-4c0 -4 1.66699 -7.16699 5 -9.5s10.166 -4.16602 20.499 -5.49902s25.833 -2 46.5 -2c16.667 0 32 3 46 9c19.333 8 37.166 25.5 53.499 52.5s24.5 62.833 24.5 107.5z
M532.002 225.999c0 -66.667 -26 -120.995 -78 -162.995s-116.333 -63 -193 -63c-0.666992 0 -26.167 0.333008 -76.5 1s-76.166 1 -77.499 1c-22.667 0 -46.334 -1 -71.001 -3s-40.667 -3 -48 -3c-1.33301 1.33301 -2 4.33301 -2 9c0 4 0.5 8 1.5 12
s2.16699 7.16699 3.5 9.5s2.33301 3.5 3 3.5c6.66699 0 17.334 2.66699 32.001 8s23.667 11 27 17c8 14 16.333 43.333 25 88l73 378c7.33301 42.667 10.666 68.667 9.99902 78c-0.666992 5.33301 -7.83398 11.5 -21.501 18.5s-23.5 10.5 -29.5 10.5
c-1.33301 0 -2 2.33301 -2 7c0 13.333 2.33301 22.333 7 27c46 -2 89.667 -3 131 -3c39.333 0 72.166 0.333008 98.499 1s41.5 1 45.5 1c20.667 0 41 -2.66699 61 -8s38.833 -13.5 56.5 -24.5s32 -26 43 -45s16.5 -40.833 16.5 -65.5c0 -12.667 -1.33301 -24.834 -4 -36.501
s-6.16699 -22.334 -10.5 -32.001s-9.16602 -18.834 -14.499 -27.501s-11.166 -16.334 -17.499 -23.001s-12.5 -12.834 -18.5 -18.501s-11.833 -10.5 -17.5 -14.5s-10.667 -7.33301 -15 -10l-10 -6l-3.5 -2c17.333 -3.33301 34.333 -16 51 -38s25 -50 25 -84z
M427.002 529.004c0 28 -6.00098 47.833 -18.001 59.5s-30.333 17.5 -55 17.5c-19.333 0 -33.5 -1 -42.5 -3s-14.5 -6.33301 -16.5 -13l-40 -205c-2 -9.33301 13.333 -14 46 -14c38.667 0 69.334 13 92.001 39s34 65.667 34 119z" />
    <glyph glyph-name="C" unicode="C" horiz-adv-x="587" 
d="M391 667c68 0 137.003 -9.66699 207.003 -29c0 -8 -1.5 -33.5 -4.5 -76.5s-4.83301 -66.833 -5.5 -71.5c-1.33301 -4.66699 -4.83301 -8.33398 -10.5 -11.001s-11.5 -4 -17.5 -4c-1.33301 0 -6 1 -14 3c-0.666992 9.33301 -2.33398 19 -5.00098 29
s-7.66699 21.5 -15 34.5s-16.666 24.333 -27.999 34s-26.833 18 -46.5 25s-41.834 10.5 -66.501 10.5c-42.667 0 -81.667 -16.667 -117 -50s-62.833 -77.833 -82.5 -133.5s-29.5 -115.834 -29.5 -180.501c0 -60 12.5 -108.333 37.5 -145s62.167 -55 111.5 -55
c28 0 55.667 3.33301 83 10s48.666 15.334 63.999 26.001c11.333 8 22 19.167 32 33.5s17.5 26.5 22.5 36.5s7.83301 15 8.5 15c17.333 0 27 -4.33301 29 -13c-2 -9.33301 -7.83301 -29 -17.5 -59s-17.167 -47.333 -22.5 -52c-38 -34 -106.667 -51 -206 -51
c-87.333 0 -157 25.167 -209 75.5s-78 113.833 -78 190.5c0 54.667 11.5 107.667 34.5 159s52.667 94.833 89 130.5s77.166 64.334 122.499 86.001s90 32.5 134 32.5z" />
    <glyph glyph-name="D" unicode="D" horiz-adv-x="678" 
d="M107 2c-22.667 0 -46.332 -1.00098 -70.999 -3.00098s-40.667 -3 -48 -3c-1.33301 1.33301 -2 4.33301 -2 9c0 4 0.5 8 1.5 12s2.16699 7.16699 3.5 9.5s2.33301 3.5 3 3.5c6.66699 0 17.334 2.66699 32.001 8s23.667 11 27 17c8 14 16.333 43.333 25 88l73 378
c7.33301 42.667 10.666 68.667 9.99902 78c-0.666992 5.33301 -7.83398 11.5 -21.501 18.5s-23.5 10.5 -29.5 10.5c-1.33301 0 -2 2.33301 -2 7c0 13.333 2.33301 22.333 7 27c46 -2 89.667 -3 131 -3h162c44.667 0 84.334 -6.83301 119.001 -20.5
s62.5 -32.334 83.5 -56.001s36.833 -50.5 47.5 -80.5s16 -62.667 16 -98c0 -37.333 -5.66699 -75.166 -17 -113.499s-28.5 -75 -51.5 -110s-50 -66.167 -81 -93.5s-67.833 -49.166 -110.5 -65.499s-88 -24.5 -136 -24.5c-12 0 -37.833 0.833008 -77.5 2.5
s-70.834 2.5 -93.501 2.5zM402.002 602.999c-54.667 0 -86.666 -5.33398 -95.999 -16.001c-11.333 -12.667 -19.333 -33.667 -24 -63l-75 -388c-8.66699 -43.333 -10.667 -66.666 -6 -69.999c11.333 -8.66699 45.666 -13 102.999 -13c52 0 96.833 24 134.5 72
s65.834 119.667 84.501 215c7.33301 34.667 10 67.834 8 99.501s-7.33301 59.667 -16 84s-22.834 43.666 -42.501 57.999s-43.167 21.5 -70.5 21.5z" />
    <glyph glyph-name="E" unicode="E" horiz-adv-x="542" 
d="M107 2c-22.667 0 -46.333 -1.00098 -71 -3.00098s-40.667 -3 -48 -3c-1.33301 1.33301 -2 4.33301 -2 9c0 4 0.5 8 1.5 12s2.16699 7.16699 3.5 9.5s2.33301 3.5 3 3.5c6.66699 0 17.334 2.66699 32.001 8s23.667 11 27 17c8 14 16.333 43.333 25 88l73 378
c7.33301 42.667 10.666 68.667 9.99902 78c-0.666992 5.33301 -7.83398 11.5 -21.501 18.5s-23.5 10.5 -29.5 10.5c-1.33301 0 -2 2.33301 -2 7c0 13.333 2.33301 22.333 7 27c53.333 -2 97 -3 131 -3c35.333 0 85.333 0.833008 150 2.5s115 2.5 151 2.5
c-1.33301 -20 -2 -50.333 -2 -91v-57c-3.33301 -3.33301 -10.666 -5 -21.999 -5c-7.33301 0 -11.333 2.33301 -12 7c-7.33301 25.333 -21.833 47 -43.5 65s-44.5 27 -68.5 27h-35c-21.333 0 -36.666 -0.833008 -45.999 -2.5s-15 -5.16699 -17 -10.5
c-8 -22 -14.667 -48 -20 -78l-30 -154c-0.666992 -2 2.66602 -3.5 9.99902 -4.5s17 -1.5 29 -1.5h79c14.667 0 24.667 2.83301 30 8.5s14.666 23.5 27.999 53.5c2 4.66699 7.33301 7 16 7c10.667 0 17 -1.66699 19 -5l-36 -189c-2.66699 -2.66699 -9.66699 -4 -21 -4
c-7.33301 0 -11.666 2.66699 -12.999 8c-1.33301 30 -5 48 -11 54c-8 8 -33 12 -75 12c-44.667 0 -67.667 -3 -69 -9l-29 -154c-5.33301 -26.667 -8 -46.334 -8 -59.001c0 -12 3.16699 -19.667 9.5 -23s23.5 -5 51.5 -5h24c38.667 0 75.334 8.66699 110.001 26
c11.333 6 25.333 17.333 42 34s30.667 35.334 42 56.001c2 4 6.66699 6 14 6c15.333 0 24.333 -2 27 -6c-2.66699 -5.33301 -10 -19.166 -22 -41.499s-20.667 -39 -26 -50l-19.5 -41c-7.66699 -16.333 -13.167 -29.5 -16.5 -39.5c-35.333 0 -92.333 0.666992 -171 2
s-131.334 2 -158.001 2z" />
    <glyph glyph-name="F" unicode="F" horiz-adv-x="537" 
d="M118 3c-17.333 0 -32.499 -0.333008 -45.499 -1s-27.5 -1.66699 -43.5 -3s-29.667 -2.33301 -41 -3c-1.33301 1.33301 -2 4.33301 -2 9c0 4 0.5 8 1.5 12s2.16699 7.16699 3.5 9.5s2.33301 3.5 3 3.5c6.66699 0 17.334 2.66699 32.001 8s23.667 11 27 17
c8 14 16.333 43.333 25 88l73 378c7.33301 42.667 10.666 68.667 9.99902 78c-0.666992 5.33301 -7.83398 11.5 -21.501 18.5s-23.5 10.5 -29.5 10.5c-1.33301 0 -2 2.33301 -2 7c0 13.333 2.33301 22.333 7 27c53.333 -2 97 -3 131 -3
c35.333 0 85.166 0.833008 149.499 2.5s114.5 2.5 150.5 2.5c-1.33301 -20 -2 -50.333 -2 -91v-57c-3.33301 -3.33301 -10.666 -5 -21.999 -5c-7.33301 0 -11.333 2.33301 -12 7c-7.33301 25.333 -21.833 47 -43.5 65s-44.5 27 -68.5 27h-35
c-21.333 0 -36.666 -0.833008 -45.999 -2.5s-15 -5.16699 -17 -10.5c-8 -22 -14.667 -48 -20 -78l-30 -154c-0.666992 -2 2.66602 -3.5 9.99902 -4.5s17 -1.5 29 -1.5h79c14.667 0 24.667 2.83301 30 8.5s14.666 23.5 27.999 53.5c2 4.66699 7.33301 7 16 7
c10.667 0 17 -1.66699 19 -5l-36 -189c-2.66699 -2.66699 -9.66699 -4 -21 -4c-7.33301 0 -11.666 2.66699 -12.999 8c-1.33301 30 -5 48 -11 54c-8 8 -33 12 -75 12c-44.667 0 -67.667 -3 -69 -9l-29 -154c-6 -30 -9 -52.333 -9 -67c0 -10 3.66699 -18.333 11 -25
s16.833 -11.167 28.5 -13.5s20.667 -3.83301 27 -4.5s11.833 -1 16.5 -1c2.66699 0 3 -5.33301 1 -16c-2 -10 -3.66699 -16 -5 -18c-86.667 4.66699 -139.667 7 -159 7z" />
    <glyph glyph-name="G" unicode="G" horiz-adv-x="616" 
d="M490 34c-56 -28 -119.665 -41.999 -190.998 -41.999c-84.667 0 -153.834 25 -207.501 75s-80.5 112.333 -80.5 187c0 56.667 11.5 111 34.5 163s52.667 96 89 132s77.166 64.667 122.499 86s90 32 134 32c68 0 137 -9.66699 207 -29c0 -10.667 -1.33301 -36.667 -4 -78
s-4.66699 -64.666 -6 -69.999c-2 -10 -11.667 -15 -29 -15c-2.66699 0 -7 1 -13 3c-0.666992 9.33301 -2.33398 19 -5.00098 29s-7.66699 21.5 -15 34.5s-16.666 24.333 -27.999 34s-26.833 18 -46.5 25s-41.834 10.5 -66.501 10.5c-37.333 0 -71.333 -12 -102 -36
s-55 -54.667 -73 -92s-31.667 -76.333 -41 -117s-14 -80.334 -14 -119.001c0 -57.333 13 -105 39 -143s65 -57 117 -57c28.667 0 57.334 4 86.001 12l27 129c4 19.333 6 36.333 6 51c0 9.33301 -9.5 16.333 -28.5 21s-33.167 7 -42.5 7c-1.33301 0 -2 2.33301 -2 7
c0 14.667 2.33301 23.667 7 27c94 -4 144 -6 150 -6c11.333 0 55 2 131 6c0 -22.667 -2 -34 -6 -34s-13.167 -2 -27.5 -6s-24.5 -7.33301 -30.5 -10c-11.333 -6.66699 -18.333 -16 -21 -28l-24 -111c-4 -16 -6 -29.333 -6 -40c0 -4.66699 -4.16699 -10.834 -12.5 -18.501
s-17.5 -14.167 -27.5 -19.5z" />
    <glyph glyph-name="H" unicode="H" horiz-adv-x="714" 
d="M365 369c74 0 111.335 2.00586 112.002 6.00586l28 148c6 36 9 61.667 9 77c0 18.667 -16 28 -48 28c-1.33301 0 -2 2 -2 6c0 13.333 2.66699 22.666 8 27.999c84 -4 128 -6 132 -6c4.66699 0 45 2 121 6v-6c0 -6.66699 -0.666992 -12.334 -2 -17.001
s-2.66602 -7.66699 -3.99902 -9s-2.33301 -2 -3 -2c-4.66699 0 -14.667 -2.83301 -30 -8.5s-24.333 -10.834 -27 -15.501c-8 -14.667 -16 -43 -24 -85l-74 -380c-7.33301 -38 -11 -64.667 -11 -80c0 -6.66699 6.66699 -13.167 20 -19.5s23 -9.5 29 -9.5
c1.33301 0 2 -1.66699 2 -5c0 -11.333 -2.66699 -21 -8 -29c-1.33301 0 -18.166 1.16699 -50.499 3.5s-56.5 3.5 -72.5 3.5c-16.667 0 -40.5 -1 -71.5 -3s-50.167 -3.33301 -57.5 -4c-0.666992 0.666992 -1 2.66699 -1 6c0 5.33301 0.5 11.333 1.5 18s2.16699 10 3.5 10
c7.33301 0 18.333 2.33301 33 7s23.667 10 27 16c6 10.667 14 38 24 82l34 169v1c0 4 -36.667 6 -110 6c-74.667 0 -112.667 -2.66699 -114 -8l-32 -164c-6.66699 -34.667 -10 -61.334 -10 -80.001c0 -6.66699 6.5 -13.167 19.5 -19.5s22.5 -9.5 28.5 -9.5
c1.33301 0 2 -1.66699 2 -5c0 -12.667 -2.33301 -22.334 -7 -29.001c-8 0.666992 -20.667 1.66699 -38 3s-33.5 2.33301 -48.5 3s-28.5 1 -40.5 1c-16.667 0 -39.834 -1 -69.501 -3s-48.5 -3.33301 -56.5 -4c-0.666992 0.666992 -1 2.66699 -1 6
c0 4.66699 0.666992 10.5 2 17.5s2.66602 10.5 3.99902 10.5c7.33301 0 18.166 2.16699 32.499 6.5s23.166 9.5 26.499 15.5c10.667 17.333 19 45 25 83l75 388c6 32 9 56.333 9 73c0 10 -6.16699 17.833 -18.5 23.5s-22.166 8.5 -29.499 8.5c-0.666992 0 -1 1.33301 -1 4
c0 16 2 26 6 30c9.33301 -0.666992 22.166 -1.5 38.499 -2.5s31.166 -1.83301 44.499 -2.5s26.333 -1 39 -1c12 0 56 2 132 6v-5c0 -5.33301 -0.833008 -11.5 -2.5 -18.5s-3.5 -10.5 -5.5 -10.5c-5.33301 0 -15.833 -2.83301 -31.5 -8.5s-24.834 -10.834 -27.501 -15.501
c-4 -6.66699 -8.66699 -20.667 -14 -42s-8.66602 -35.666 -9.99902 -42.999l-27 -141v-2c0 -0.666992 0.333008 -1.33398 1 -2.00098s2.33398 -1.33398 5.00098 -2.00098s6.5 -1.16699 11.5 -1.5s11.667 -0.666016 20 -0.999023s18.5 -0.5 30.5 -0.5h44z" />
    <glyph glyph-name="I" unicode="I" horiz-adv-x="360" 
d="M280 519l-72.9951 -379.998c-6.66699 -34.667 -10 -61.334 -10 -80.001c0 -6.66699 6.5 -13.167 19.5 -19.5s22.5 -9.5 28.5 -9.5c1.33301 0 2 -1.66699 2 -5c0 -12.667 -2.33301 -22.334 -7 -29.001c-2.66699 0 -19.334 1.16699 -50.001 3.5s-54 3.5 -70 3.5
c-16.667 0 -41.5 -1.16699 -74.5 -3.5s-52.5 -3.5 -58.5 -3.5c-0.666992 0.666992 -1 2.66699 -1 6c0 4.66699 0.666992 10.5 2 17.5s2.66602 10.5 3.99902 10.5c7.33301 0 18.166 2.16699 32.499 6.5s23.166 9.5 26.499 15.5c10.667 17.333 19 45 25 83l75 388
c6 32 9 56.333 9 73c0 10 -6.16699 17.833 -18.5 23.5s-22.166 8.5 -29.499 8.5c-0.666992 0 -1 1.33301 -1 4c0 16 2 26 6 30c9.33301 -0.666992 22.166 -1.5 38.499 -2.5s31.166 -1.83301 44.499 -2.5s26.333 -1 39 -1c12 0 56 2 132 6v-5
c0 -5.33301 -0.833008 -11.5 -2.5 -18.5s-3.5 -10.5 -5.5 -10.5c-5.33301 0 -15.833 -2.83301 -31.5 -8.5s-24.834 -10.834 -27.501 -15.501c-4 -6.66699 -8.66699 -20.667 -14 -42s-8.66602 -35.666 -9.99902 -42.999z" />
    <glyph glyph-name="J" unicode="J" horiz-adv-x="421" 
d="M137 135l74.998 387.999c6 32 9 56.333 9 73c0 10 -6.16699 17.833 -18.5 23.5s-22.166 8.5 -29.499 8.5c-0.666992 0 -1 1.33301 -1 4c0 16 2 26 6 30c9.33301 -0.666992 22 -1.5 38 -2.5s30.833 -1.83301 44.5 -2.5s26.834 -1 39.501 -1c12 0 56 2 132 6v-5
c0 -5.33301 -0.833008 -11.5 -2.5 -18.5s-3.5 -10.5 -5.5 -10.5c-5.33301 0 -15.833 -2.83301 -31.5 -8.5s-24.834 -10.834 -27.501 -15.501c-4 -6.66699 -8.66699 -20.667 -14 -42s-8.66602 -35.666 -9.99902 -42.999l-73 -376
c-10.667 -54.667 -25.5 -103.167 -44.5 -145.5s-41.167 -77.166 -66.5 -104.499s-50.5 -49.5 -75.5 -66.5s-52.833 -31.833 -83.5 -44.5c-9.33301 4 -14 12 -14 24c0 9.33301 0.666992 15.333 2 18c38.667 32 69.5 71.5 92.5 118.5s42.5 111.167 58.5 192.5z" />
    <glyph glyph-name="K" unicode="K" horiz-adv-x="711" 
d="M280 519l-72.9951 -379.998c-6.66699 -34.667 -10 -61.334 -10 -80.001c0 -6.66699 6.5 -13.167 19.5 -19.5s22.5 -9.5 28.5 -9.5c1.33301 0 2 -1.66699 2 -5c0 -12.667 -2.33301 -22.334 -7 -29.001c-8 0.666992 -20.667 1.66699 -38 3s-33.5 2.33301 -48.5 3
s-28.5 1 -40.5 1c-16.667 0 -39.834 -1 -69.501 -3s-48.5 -3.33301 -56.5 -4c-0.666992 0.666992 -1 2.66699 -1 6c0 4.66699 0.666992 10.5 2 17.5s2.66602 10.5 3.99902 10.5c7.33301 0 18.166 2.16699 32.499 6.5s23.166 9.5 26.499 15.5c10.667 17.333 19 45 25 83
l75 388c6 32 9 56.333 9 73c0 10 -6.16699 17.833 -18.5 23.5s-22.166 8.5 -29.499 8.5c-0.666992 0 -1 1.33301 -1 4c0 16 2 26 6 30c9.33301 -0.666992 22.166 -1.5 38.499 -2.5s31.166 -1.83301 44.499 -2.5s26.333 -1 39 -1c12 0 56 2 132 6v-5
c0 -5.33301 -0.833008 -11.5 -2.5 -18.5s-3.5 -10.5 -5.5 -10.5c-5.33301 0 -15.833 -2.83301 -31.5 -8.5s-24.834 -10.834 -27.501 -15.501c-4 -6.66699 -8.66699 -20.667 -14 -42s-8.66602 -35.666 -9.99902 -42.999zM244.005 333.002c28 18 59.333 43.1689 94 75.502
l181 177.5c8 8 12 16 12 24c0 6 -6.83301 10.833 -20.5 14.5s-24.167 5.5 -31.5 5.5c-2 0 -3 3.66699 -3 11c0 9.33301 1.33301 16.333 4 21c68 -4 109.333 -6 124 -6c2.66699 0 42 2 118 6c0 -6 -0.833008 -12.833 -2.5 -20.5s-3.5 -11.5 -5.5 -11.5
c-50 -5.33301 -87 -20.333 -111 -45l-213 -222c-6.66699 -6.66699 -10 -13.334 -10 -20.001c0 -3.33301 1 -6.33301 3 -9l155 -222c22 -31.333 41.833 -52.833 59.5 -64.5s36.834 -17.5 57.501 -17.5c2 0 3 -2.66699 3 -8c0 -8 -2.33301 -15.333 -7 -22
c-10.667 -2.66699 -30.667 -4 -60 -4c-19.333 0 -34.333 0.333008 -45 1s-23.334 2.33398 -38.001 5.00098s-27 6.66699 -37 12s-20.5 13.166 -31.5 23.499s-21.5 23.166 -31.5 38.499z" />
    <glyph glyph-name="L" unicode="L" horiz-adv-x="522" 
d="M207 139c-4.66699 -28 -6.99902 -47.001 -6.99902 -57.001c0 -11.333 3.16699 -18.833 9.5 -22.5s23.5 -5.5 51.5 -5.5h24c38.667 0 75.334 8.66699 110.001 26c11.333 6 25.333 17.333 42 34s30.667 35.334 42 56.001c2 4 6.66699 6 14 6c15.333 0 24.333 -2 27 -6
c-2.66699 -5.33301 -10 -19.166 -22 -41.499s-20.667 -39 -26 -50l-19.5 -41c-7.66699 -16.333 -13.167 -29.5 -16.5 -39.5c-35.333 0 -90.333 0.666992 -165 2s-125.334 2 -152.001 2c-16 0 -34.833 -0.5 -56.5 -1.5l-53.5 -2.5l-21 -2c-1.33301 2.66699 -2 5.66699 -2 9
c0 4 0.5 8 1.5 12s2 7.16699 3 9.5s1.83301 3.5 2.5 3.5c6.66699 0 18 3 34 9s25.333 11.667 28 17c7.33301 15.333 14.333 41.666 21 78.999l75 388c6 32 9 56.333 9 73c0 10 -6.16699 17.833 -18.5 23.5s-22.166 8.5 -29.499 8.5c-0.666992 0 -1 1.33301 -1 4
c0 16 2 26 6 30c9.33301 -0.666992 22.166 -1.5 38.499 -2.5s31.166 -1.83301 44.499 -2.5s26.333 -1 39 -1c12 0 56 2 132 6v-5c0 -5.33301 -0.833008 -11.5 -2.5 -18.5s-3.5 -10.5 -5.5 -10.5c-5.33301 0 -15.833 -2.83301 -31.5 -8.5s-24.834 -10.834 -27.501 -15.501
c-4 -6.66699 -8.66699 -20.667 -14 -42s-8.66602 -35.666 -9.99902 -42.999z" />
    <glyph glyph-name="M" unicode="M" horiz-adv-x="861" 
d="M626 546l54.001 115.997c21.333 -2.66699 53 -4 95 -4c14 0 46.333 1.33301 97 4c0 -22.667 -2.33301 -34 -7 -34c-22 0 -38 -5.66699 -48 -17c-11.333 -13.333 -19.333 -42.333 -24 -87c-22.667 -206 -36.334 -342 -41.001 -408l-2 -18.5
c-1.33301 -12.333 -2 -22.166 -2 -29.499c0 -9.33301 4.16699 -17.166 12.5 -23.499s16 -10.333 23 -12s12.833 -2.5 17.5 -2.5c1.33301 0 2 -1.66699 2 -5c0 -13.333 -2.33301 -23 -7 -29c-3.33301 0 -19.833 1.16699 -49.5 3.5s-52.5 3.5 -68.5 3.5
c-16.667 0 -42 -1.16699 -76 -3.5s-53.667 -3.5 -59 -3.5c-1.33301 2.66699 -2 6.33398 -2 11.001c0 3.33301 0.5 7 1.5 11s2 7 3 9s1.83301 3 2.5 3c6.66699 0 17.667 3 33 9s25.333 12.333 30 19c3.33301 6 5.83301 10.667 7.5 14s3.5 10.666 5.5 21.999s4 28.333 6 51
l27 257c1.33301 12 2 28 2 48c0 7.33301 -1.33301 11 -4 11c-1.33301 0 -3.33301 -2.33301 -6 -7l-230 -423c-3.33301 -6 -9.5 -13 -18.5 -21s-17.167 -12 -24.5 -12c-1.33301 0 -4 0.666992 -8 2l-93 480c-0.666992 2.66699 -1.66699 4 -3 4s-2.66602 -1.66699 -3.99902 -5
c-60 -215.333 -94.333 -344 -103 -386c-2 -10 -3 -17.667 -3 -23c0 -8.66699 12 -17.5 36 -26.5s39.667 -13.5 47 -13.5c1.33301 0 2 -2 2 -6c0 -12.667 -2 -22 -6 -28c-8 0.666992 -20.833 1.66699 -38.5 3s-34 2.33301 -49 3s-28.5 1 -40.5 1c-16.667 0 -39.667 -1 -69 -3
s-48 -3.33301 -56 -4c-1.33301 2.66699 -2 5.66699 -2 9s0.5 7 1.5 11s2 7.33301 3 10s1.83301 4 2.5 4c11.333 0 30.5 4.83301 57.5 14.5s42.5 21.5 46.5 35.5c1.33301 5.33301 3.33301 12.333 6 21l121 465c4.66699 21.333 7 33.333 7 36
c0 8.66699 -8.33301 15.167 -25 19.5s-30.334 6.5 -41.001 6.5c-0.666992 0 -1 2.33301 -1 7c0 12.667 2.66699 21.667 8 27c56 -2.66699 91.333 -4 106 -4c15.333 0 48.333 1.33301 99 4c2 -19.333 6.83301 -50.166 14.5 -92.499l32 -173l31.5 -166.5
c0 -0.666992 0.666992 -1 2 -1s2 0.666992 2 2z" />
    <glyph glyph-name="N" unicode="N" horiz-adv-x="675" 
d="M251 657c36 0 67.0029 1.67188 93.0029 5.00488c6 -22.667 20.167 -55.334 42.5 -98.001s51.333 -95.334 87 -158.001s63.834 -114.334 84.501 -155.001c1.33301 4 4.66602 17.667 9.99902 41l44 232c4 22 6 40 6 54s-10.5 25.833 -31.5 35.5s-37.167 14.5 -48.5 14.5
c-1.33301 0 -2 2.33301 -2 7c0 14 2 23 6 27c70 -3.33301 113.333 -5 130 -5c20.667 0 62 1.66699 124 5c0 -22.667 -2.66699 -34 -8 -34c-4.66699 0 -11.334 -0.666992 -20.001 -2s-20.5 -5 -35.5 -11s-26.833 -13.667 -35.5 -23c-10.667 -10.667 -19.667 -35 -27 -73
l-74 -380c-5.33301 -27.333 -13 -74 -23 -140c-2.66699 -2.66699 -10.667 -4 -24 -4c-7.33301 0 -15.666 7.66699 -24.999 23l-277 506l-74 -383c-5.33301 -26.667 -8 -45 -8 -55c0 -10.667 3.66699 -20 11 -28s16.166 -13.833 26.499 -17.5
s19.166 -6.33398 26.499 -8.00098s12.666 -2.5 15.999 -2.5c1.33301 0 2 -1.66699 2 -5c0 -11.333 -2 -21 -6 -29c-8 0.666992 -20.667 1.66699 -38 3s-33.5 2.33301 -48.5 3s-28.5 1 -40.5 1c-16.667 0 -39.834 -1 -69.501 -3s-48.5 -3.33301 -56.5 -4
c-1.33301 2.66699 -2 5.66699 -2 9s0.5 7 1.5 11l2.5 10c0.666992 2.66699 1.33398 4 2.00098 4c12 0 28.667 3.16699 50 9.5s37.666 16.833 48.999 31.5c8.66699 11.333 16.334 35.666 23.001 72.999l76 393c4 21.333 6 41 6 59c0 10 -9.33301 17.833 -28 23.5
s-33.667 8.5 -45 8.5c-2 0 -3 2.66699 -3 8c0 14 2.33301 22.667 7 26c70 -3.33301 111.333 -5 124 -5z" />
    <glyph glyph-name="O" unicode="O" horiz-adv-x="626" 
d="M359 611c-54 0 -101.167 -35.667 -141.5 -107s-60.5 -160 -60.5 -266c0 -26 2 -50 6 -72s10.5 -42.333 19.5 -61s21.667 -33.167 38 -43.5s35.5 -15.5 57.5 -15.5c28 0 53.833 9.5 77.5 28.5s43 43 58 72s27.667 61.5 38 97.5s17.833 70.167 22.5 102.5s7 61.833 7 88.5
c0 117.333 -40.667 176 -122 176zM383 667c70.667 0 128.499 -25.1689 173.499 -75.502s67.5 -114.166 67.5 -191.499c0 -52 -10.667 -103.167 -32 -153.5s-49.166 -94.166 -83.499 -131.499s-74.166 -67.5 -119.499 -90.5s-91 -34.5 -137 -34.5
c-70.667 0 -128.334 25.167 -173.001 75.5s-67 113.833 -67 190.5c0 52 10.667 103.333 32 154s49 94.667 83 132s73.667 67.5 119 90.5s91 34.5 137 34.5z" />
    <glyph glyph-name="P" unicode="P" horiz-adv-x="546" 
d="M376 662c16 0 31.333 -1.00098 46 -3.00098s30.5 -6.33301 47.5 -13s31.667 -15.334 44 -26.001s22.666 -25.5 30.999 -44.5s12.5 -40.833 12.5 -65.5c0 -26.667 -5.16699 -53.5 -15.5 -80.5s-25 -51.5 -44 -73.5s-43.333 -40 -73 -54s-62.167 -21 -97.5 -21
c-14 0 -26.833 2.16699 -38.5 6.5s-20.167 9.16602 -25.5 14.499c-0.666992 0.666992 -1 3 -1 7c0 4.66699 1 9.5 3 14.5s4 7.5 6 7.5c2.66699 0 7.66699 -0.5 15 -1.5s13 -1.5 17 -1.5c38 0 66.333 18 85 54s28 82 28 138c0 22.667 -5.5 42.834 -16.5 60.501
s-27.167 26.5 -48.5 26.5c-36 0 -55.333 -6.33301 -58 -19l-86 -447c-6 -35.333 -9 -57.666 -9 -66.999c0 -10 3.83301 -18.333 11.5 -25s17.167 -11.167 28.5 -13.5s20.166 -3.83301 26.499 -4.5s11.833 -1 16.5 -1c2.66699 0 3 -5.33301 1 -16c-2 -10 -3.66699 -16 -5 -18
c-86 4.66699 -135.667 7 -149 7c-16.667 0 -43.5 -1.16699 -80.5 -3.5s-57.167 -3.5 -60.5 -3.5c-1.33301 4 -1.66602 9.33301 -0.999023 16c2 12 4 18 6 18c32.667 0 53 8.33301 61 25c6.66699 12.667 14 39.334 22 80.001l76 388c5.33301 25.333 8 49.333 8 72
c0 9.33301 -6.5 17.166 -19.5 23.499s-22.5 9.5 -28.5 9.5c-1.33301 0 -2 1.66699 -2 5c0 4.66699 1 10.334 3 17.001s3.66699 10.667 5 12c70 -3.33301 112.333 -5 127 -5c18.667 0 40.834 0.833008 66.501 2.5s47.5 2.5 65.5 2.5z" />
    <glyph glyph-name="Q" unicode="Q" horiz-adv-x="624" 
d="M359 611c-54 0 -101.167 -35.667 -141.5 -107s-60.5 -160 -60.5 -266c0 -26 2 -50 6 -72s10.5 -42.333 19.5 -61s21.667 -33.167 38 -43.5s35.5 -15.5 57.5 -15.5c28 0 53.833 9.5 77.5 28.5s43 43 58 72s27.667 61.5 38 97.5s17.833 70.167 22.5 102.5s7 61.833 7 88.5
c0 117.333 -40.667 176 -122 176zM383 667c70.667 0 128.501 -25.1689 173.501 -75.502s67.5 -114.166 67.5 -191.499c0 -71.333 -19 -139.5 -57 -204.5s-86.333 -115.833 -145 -152.5c-20 -12.667 -47 -26.5 -81 -41.5s-60.333 -24.5 -79 -28.5
c17.333 -2.66699 67.666 -17.834 150.999 -45.501s147.666 -41.5 192.999 -41.5c24.667 0 49.334 5.33301 74.001 16s43.667 21.667 57 33c4 -0.666992 9.16699 -3 15.5 -7s9.5 -8.33301 9.5 -13c-14 -18.667 -43.167 -42.5 -87.5 -71.5s-87.833 -43.5 -130.5 -43.5
c-44 0 -91.167 7.66699 -141.5 23s-110.333 35.833 -180 61.5s-133.167 45.5 -190.5 59.5c0 2.66699 2.83301 7.83398 8.5 15.501s10.167 12.167 13.5 13.5c44 9.33301 97.667 16 161 20c-60.667 8.66699 -109.667 37.334 -147 86.001s-56 107.667 -56 177
c0 52 10.667 103.333 32 154s49 94.667 83 132s73.667 67.5 119 90.5s91 34.5 137 34.5z" />
    <glyph glyph-name="R" unicode="R" horiz-adv-x="632" 
d="M376 662c19.333 0 39.002 -2.50293 59.002 -7.50293s39.833 -12.5 59.5 -22.5s35.834 -24.5 48.501 -43.5s19 -40.833 19 -65.5c0 -41.333 -14.667 -82.5 -44 -123.5s-64.666 -68.5 -105.999 -82.5c-3.33301 -1.33301 -4 -4.66602 -2 -9.99902
c31.333 -92.667 67.666 -165 108.999 -217c32 -40.667 63.333 -61 94 -61c0 -12 -3.33301 -23 -10 -33c-9.33301 -1.33301 -21.333 -2 -36 -2c-15.333 0 -30 1 -44 3s-26.167 4.16699 -36.5 6.5s-20.666 6.33301 -30.999 12l-25 14c-6.33301 3.66699 -13.166 10 -20.499 19
s-12.833 15.5 -16.5 19.5s-8.5 11.5 -14.5 22.5s-10 18.5 -12 22.5l-11.5 24c-5.66699 12 -9.16699 19.667 -10.5 23c-32 68.667 -53 108.334 -63 119.001c-8.66699 9.33301 -19.334 14 -32.001 14c-3.33301 0 -5.5 -0.166992 -6.5 -0.5s-2.66699 -1.66602 -5 -3.99902
s-3.83301 -6.16602 -4.5 -11.499l-27 -138c-6.66699 -34.667 -10 -61.334 -10 -80.001c0 -6.66699 6.5 -13.167 19.5 -19.5s22.5 -9.5 28.5 -9.5c1.33301 0 2 -1.66699 2 -5c0 -12.667 -2.33301 -22.334 -7 -29.001c-8 0.666992 -20.667 1.66699 -38 3
s-33.5 2.33301 -48.5 3s-28.5 1 -40.5 1c-16.667 0 -39.834 -1 -69.501 -3s-48.5 -3.33301 -56.5 -4c-0.666992 0.666992 -1 2.66699 -1 6c0 4.66699 0.666992 10.5 2 17.5s2.66602 10.5 3.99902 10.5c7.33301 0 18.166 2.16699 32.499 6.5s23.166 9.5 26.499 15.5
c10.667 17.333 19 45 25 83l76 388c6 34 9 57.667 9 71c0 10 -6.16699 18.167 -18.5 24.5s-22.5 9.5 -30.5 9.5c-1.33301 0 -2 1.66699 -2 5c0 4.66699 1 10.334 3 17.001s3.66699 10.667 5 12c70 -3.33301 112.333 -5 127 -5c18 0 39.667 0.833008 65 2.5
s47.333 2.5 66 2.5zM355.002 606.997c-24.667 0 -40.667 -1.5 -48 -4.5s-12 -9.83301 -14 -20.5l-40 -207c-0.666992 -2 -1 -4.33301 -1 -7c0 -8.66699 4.66699 -14.167 14 -16.5s25.666 -3.5 48.999 -3.5c22 0 41.167 9.66699 57.5 29s28 42 35 68s10.5 52.667 10.5 80
s-5.66699 47.833 -17 61.5s-26.666 20.5 -45.999 20.5z" />
    <glyph glyph-name="S" unicode="S" horiz-adv-x="449" 
d="M305 670c16.667 0 32.6689 -1.49023 48.002 -4.49023s32.833 -7 52.5 -12s36.5 -8.83301 50.5 -11.5c-16.667 -118 -26.334 -177 -29.001 -177h-14c-4.66699 0 -8.33398 0.333008 -11.001 1s-5.16699 2.16699 -7.5 4.5s-3.5 6.16602 -3.5 11.499
c0 10.667 -1.66699 23 -5 37s-8.5 28.333 -15.5 43s-17.167 27 -30.5 37s-28.333 15 -45 15c-17.333 0 -32.5 -4 -45.5 -12s-22.833 -18 -29.5 -30s-11.5 -23.167 -14.5 -33.5s-4.5 -19.5 -4.5 -27.5c0 -6 0.666992 -11.833 2 -17.5s3.5 -11.334 6.5 -17.001l8.5 -15.5
c2.66699 -4.66699 6.83398 -9.83398 12.501 -15.501s10.167 -10.334 13.5 -14.001s8.66602 -8.5 15.999 -14.5s12.5 -10.333 15.5 -13s8.66699 -7.33398 17 -14.001l16.5 -13l27.5 -20.5c13.667 -10.333 23.334 -18.166 29.001 -23.499s13 -13.333 22 -24
s15.167 -22.667 18.5 -36s5 -28.333 5 -45c0 -38 -7.83301 -72.833 -23.5 -104.5s-35.834 -56.834 -60.501 -75.501s-50.834 -33 -78.501 -43s-54.834 -15 -81.501 -15c-44 0 -99 8.66699 -165 26c3.33301 28.667 5 58 5 88c0 10.667 -0.166992 26.334 -0.5 47.001l-0.5 31
c0 5.33301 8 8 24 8c2.66699 0 7 -0.833008 13 -2.5s9.66699 -3.5 11 -5.5c0 -30.667 10 -60.834 30 -90.501s45.333 -44.5 76 -44.5c18.667 0 35.334 3.83301 50.001 11.5s25.834 16.667 33.501 27s14 21.666 19 33.999s8.16699 22.5 9.5 30.5s2 14.333 2 19
c0 12.667 -4.16699 25.667 -12.5 39s-16.333 23.666 -24 30.999s-20 17.833 -37 31.5l-30.5 24.5c-2 1.33301 -7.5 5.83301 -16.5 13.5l-17 14.5l-15 13.5c-7.66699 7 -12.667 12.167 -15 15.5s-6.33301 8.33301 -12 15s-9.5 12.667 -11.5 18s-4.5 11.666 -7.5 18.999
s-5 14.666 -6 21.999s-1.5 15.333 -1.5 24c0 32 7.66699 62.167 23 90.5s35 51.666 59 69.999s49.667 32.833 77 43.5s53.333 16 78 16z" />
    <glyph glyph-name="T" unicode="T" horiz-adv-x="573" 
d="M144 135l70.0049 362.003c8.66699 44.667 13 71.334 13 80.001c0 13.333 -4.33301 21.666 -13 24.999s-29.334 5 -62.001 5c-25.333 0 -47.666 -7.5 -66.999 -22.5s-36.666 -40.167 -51.999 -75.5c-2 -3.33301 -5.33301 -5 -10 -5c-4 0 -9 0.833008 -15 2.5
s-9.33301 3.16699 -10 4.5l49 163c25.333 -7.33301 46 -11 62 -11c26 0 59.667 -1 101 -3s75 -3 101 -3s60.333 1 103 3s77 3 103 3c15.333 0 37.666 3.66699 66.999 11l-15 -164c-1.33301 -1.33301 -5.33301 -2.83301 -12 -4.5s-12 -2.5 -16 -2.5
c-5.33301 0 -8 1.66699 -8 5c-1.33301 35.333 -9 60.666 -23 75.999s-33.333 23 -58 23c-22.667 0 -40.334 -1 -53.001 -3s-20.334 -4.16699 -23.001 -6.5s-4.66699 -5.16602 -6 -8.49902c-9.33301 -20.667 -17.666 -50.334 -24.999 -89.001l-70 -361
c-6.66699 -34.667 -10 -61.334 -10 -80.001c0 -6.66699 6.5 -13.167 19.5 -19.5s22.5 -9.5 28.5 -9.5c1.33301 0 2 -1.66699 2 -5c0 -12.667 -2.33301 -22.334 -7 -29.001l-37.5 3c-17 1.33301 -32.833 2.33301 -47.5 3s-28 1 -40 1c-16.667 0 -40.334 -1 -71.001 -3
s-49.667 -3.33301 -57 -4c-0.666992 0.666992 -1 2.66699 -1 6c0 4.66699 0.666992 10.5 2 17.5s2.66602 10.5 3.99902 10.5c7.33301 0 18.166 2.16699 32.499 6.5s23.166 9.5 26.499 15.5c10 17.333 18.333 45 25 83z" />
    <glyph glyph-name="U" unicode="U" horiz-adv-x="679" 
d="M85 522c7.33301 45.333 10.0039 71.334 8.00391 78.001c-2 5.33301 -9.66699 10.833 -23 16.5s-23.333 8.5 -30 8.5c-2 0 -2 5.66699 0 17c2 12 3.66699 18.667 5 20c84 -4 128.667 -6 134 -6c11.333 0 55 2 131 6v-18c-2 -12.667 -4.66699 -19 -8 -19
c-5.33301 0 -17 -2.83301 -35 -8.5s-28 -10.834 -30 -15.501c-8.66699 -19.333 -16.334 -47.666 -23.001 -84.999l-46 -237c-12 -61.333 -8.66699 -110.666 10 -147.999s50 -56 94 -56c21.333 0 41.5 3.5 60.5 10.5s37.667 18.167 56 33.5s34.5 37.166 48.5 65.499
s25 62.166 33 101.499l46 238c0 0.666992 0.666992 4.5 2 11.5s2.33301 12.5 3 16.5s1.16699 9.16699 1.5 15.5s0.166016 11.833 -0.500977 16.5s-2 8.66699 -4 12c-4.66699 7.33301 -15.167 14 -31.5 20s-28.166 9 -35.499 9c-2 0.666992 -2.83301 3.5 -2.5 8.5
s1.16602 10.667 2.49902 17s3 10.166 5 11.499c56 -5.33301 96.333 -8 121 -8c15.333 0 36.666 1.16699 63.999 3.5l53 4.5c1.33301 -5.33301 1.33301 -11.333 0 -18c-0.666992 -3.33301 -2 -7.33301 -4 -12s-3.66699 -7 -5 -7c-5.33301 0 -11.5 -0.5 -18.5 -1.5
s-17.333 -4.16699 -31 -9.5s-24.834 -12.666 -33.501 -21.999c-10.667 -10.667 -19.667 -35 -27 -73l-45 -228c-18.667 -97.333 -55 -171 -109 -221s-116.333 -75 -187 -75c-36.667 0 -68.5 5.66699 -95.5 17s-50 29.5 -69 54.5s-30.5 57.5 -34.5 97.5s-1 89 9 147z" />
    <glyph glyph-name="V" unicode="V" horiz-adv-x="548" 
d="M150 656c26.667 0 74 2.00098 142 6.00098c0.666992 -1.33301 1 -3.33301 1 -6c0 -6 -0.833008 -12.667 -2.5 -20s-3.5 -11 -5.5 -11c-10.667 0 -24.167 -3 -40.5 -9s-25.5 -15 -27.5 -27c-2 -6.66699 0.666992 -28.667 8 -66l61 -330l195 329
c18 30.667 28.667 53.334 32 68.001c2 10 -2.66699 18.333 -14 25s-26.333 10 -45 10c-1.33301 0 -2 2.33301 -2 7c0 12 2 22 6 30c61.333 -3.33301 96.666 -5 105.999 -5c1.33301 0 38 1.66699 110 5c1.33301 -3.33301 1.66602 -8.33301 0.999023 -15
c-2.66699 -14 -4.66699 -21 -6 -21c-4.66699 0 -10 -0.5 -16 -1.5s-14 -3.16699 -24 -6.5s-20.167 -9.33301 -30.5 -18s-19.166 -19.334 -26.499 -32.001l-325 -541c-7.33301 -11.333 -15.5 -20.333 -24.5 -27s-16.5 -10 -22.5 -10c-9.33301 0 -15.666 4.33301 -18.999 13
l-92 507c-1.33301 8 -4 21.667 -8 41s-6.33301 33 -7 41c-2 11.333 -10.5 19.666 -25.5 24.999s-26.833 8 -35.5 8c-2 0 -3 3 -3 9c0 10.667 2.66699 20 8 28c74 -4 118 -6 132 -6z" />
    <glyph glyph-name="W" unicode="W" horiz-adv-x="1015" 
d="M149 656c9.33301 0 51.9951 1.99707 127.995 5.99707v-5c0 -6 -0.666992 -12.833 -2 -20.5s-3 -11.5 -5 -11.5c-29.333 0 -46 -11.333 -50 -34c-0.666992 -5.33301 1 -15.666 5 -30.999c68.667 -245.333 103.334 -368 104.001 -368c0.666992 -0.666992 8.66699 9 24 29
l44 59l22 30l-60 217c-12 42.667 -20.333 67 -25 73c-12 16.667 -28.333 25 -49 25c-2 0 -2 6.33301 0 19c2 10.667 3.66699 16.667 5 18c84 -4 126.667 -6 128 -6c6.66699 0 48 2 124 6v-6c0 -6 -0.666992 -12.667 -2 -20s-3 -11 -5 -11c-10 0 -20.167 -2.5 -30.5 -7.5
s-16.5 -13.167 -18.5 -24.5c-0.666992 -5.33301 1 -15.666 5 -30.999l32 -115l62 95c18 28 27.667 45.333 29 52s-0.666992 12.334 -6 17.001s-12 8 -20 10s-15 3.33301 -21 4s-11 1 -15 1c-1.33301 0 -2 3.66699 -2 11c0 12.667 2.66699 21 8 25c58 -4 94.333 -6 109 -6
c2.66699 0 42 2 118 6c0.666992 -4 0.166992 -11 -1.5 -21s-3.5 -15 -5.5 -15c-9.33301 0 -22.166 -3.33301 -38.499 -10s-28.166 -13.334 -35.499 -20.001c-21.333 -20.667 -44.333 -49.334 -69 -86.001l-92 -138l52 -175c1.33301 0.666992 33.833 48.334 97.5 143.001
l136.5 204c15.333 23.333 24 40 26 50c1.33301 8 -2.66699 14.667 -12 20s-18.333 8.66602 -27 9.99902s-15.667 2 -21 2c-1.33301 0 -2 4.33301 -2 13c0 11.333 2.66699 19 8 23c58 -4 94.667 -6 110 -6c14 0 27.5 0.333008 40.5 1s27 1.5 42 2.5s26.5 1.83301 34.5 2.5
c0 -24 -2.33301 -36 -7 -36c-9.33301 0 -21.666 -3 -36.999 -9s-26.666 -12.333 -33.999 -19c-20.667 -19.333 -44.334 -48.666 -71.001 -87.999l-325 -491c-6.66699 -10 -13.667 -17.833 -21 -23.5s-13 -8.5 -17 -8.5c-4.66699 0 -7.66699 1.66699 -9 5l-68 241l-153 -214
c-6.66699 -9.33301 -13.667 -17 -21 -23s-13 -9 -17 -9c-3.33301 0 -5.66602 1.66699 -6.99902 5l-148 535c-10 35.333 -19.333 61 -28 77c-3.33301 6.66699 -10.833 11.834 -22.5 15.501s-21.5 5.5 -29.5 5.5c-2 0 -2 6.33301 0 19c2 10.667 3.66699 16.667 5 18
c84 -4 127.667 -6 131 -6z" />
    <glyph glyph-name="X" unicode="X" horiz-adv-x="761" 
d="M283 656c14 0 58.999 1.99707 134.999 5.99707v-3.5v-4.5c0 -6 -1 -12.333 -3 -19s-4 -10 -6 -10c-9.33301 0 -20 -1.83301 -32 -5.5s-19 -8.83398 -21 -15.501c-1.33301 -8 -0.333008 -15.333 3 -22l71 -168l38.5 40.5l42.5 44.5l36.5 39.5
c12.333 13.667 22 25.167 29 34.5s10.833 16.333 11.5 21c1.33301 8 -4.66699 15.167 -18 21.5s-28.333 9.5 -45 9.5c-0.666992 0 -1 3.66699 -1 11c0 12.667 2.66699 21.334 8 26.001c68 -4 106 -6 114 -6c7.33301 0 49 2 125 6c0.666992 -0.666992 1 -3 1 -7
c0 -6 -1 -12.5 -3 -19.5s-4 -10.5 -6 -10.5c-8.66699 0 -22.667 -3.16699 -42 -9.5s-35.666 -16.166 -48.999 -29.499l-218 -230c74.667 -174.667 115.334 -268 122.001 -280c8.66699 -14.667 20.667 -25.5 36 -32.5s27 -10.5 35 -10.5
c0.666992 -1.33301 1 -2.66602 1 -3.99902s-0.5 -4.5 -1.5 -9.5s-1.5 -7.83301 -1.5 -8.5c-0.666992 -3.33301 -2.66699 -8.33301 -6 -15c-74 4 -118.667 6 -134 6s-31 -0.333008 -47 -1s-33.667 -1.5 -53 -2.5l-48 -2.5c-0.666992 0.666992 -1 3.66699 -1 9
s1.16699 11.333 3.5 18s4.5 10 6.5 10c8 0 19.167 2.66699 33.5 8s22.166 12 23.499 20c1.33301 3.33301 1.33301 7 0 11l-83 197c-1.33301 -1.33301 -9.5 -10.666 -24.5 -27.999l-44 -50l-45.5 -52.5l-39.5 -48c-10.333 -13 -15.833 -21.167 -16.5 -24.5
c-2 -10 4 -18 18 -24s29 -9 45 -9c2 0 2 -7 0 -21c-0.666992 -5.33301 -2.33398 -10.666 -5.00098 -15.999c-60 4 -100.333 6 -121 6c-4 0 -44 -2 -120 -6l-0.5 5.5c-0.333008 3.66699 -0.5 6.5 -0.5 8.5c2.66699 15.333 5.33398 23 8.00098 23c8 0 22.5 3.16699 43.5 9.5
s35.833 14.5 44.5 24.5l231 265l-85 205c-18 43.333 -30 67.666 -36 72.999c-10.667 10 -26 15 -46 15c-0.666992 0 -1 4 -1 12c0 12 2.66699 20.333 8 25c3.33301 0 21.333 -1 54 -3s58 -3 76 -3z" />
    <glyph glyph-name="Y" unicode="Y" horiz-adv-x="590" 
d="M151 656c12.667 0 57.0049 2.00195 133.005 6.00195c0.666992 -1.33301 1 -4.33301 1 -9c0 -6 -1 -12.167 -3 -18.5s-3.66699 -9.5 -5 -9.5c-9.33301 0 -20.333 -1.83301 -33 -5.5s-19.667 -8.83398 -21 -15.501s-0.333008 -14 3 -22l63 -179
c93.333 118.667 141.666 185.334 144.999 200.001c1.33301 6.66699 -2.83398 12 -12.501 16s-23.834 6 -42.501 6c-1.33301 0 -2 3 -2 9c0 14 2.66699 23.333 8 28c56 -4 93.333 -6 112 -6c16.667 0 52 2 106 6c0 -8.66699 -0.333008 -14.667 -1 -18
c-2 -12 -4.33301 -18 -7 -18c-11.333 0 -24.833 -3 -40.5 -9s-28.834 -15 -39.501 -27c-20 -22.667 -61 -73.834 -123 -153.501s-93.667 -123.834 -95 -132.501l-31 -159c-7.33301 -34.667 -10.333 -63.667 -9 -87c0 -4.66699 7.33301 -10 22 -16s24.667 -9 30 -9
c2 0 2 -6.33301 0 -19c-2 -10 -3.66699 -16 -5 -18c-4.66699 0 -23.167 1.33301 -55.5 4s-56.5 4 -72.5 4c-16.667 0 -41.5 -1.16699 -74.5 -3.5s-53.5 -3.83301 -61.5 -4.5c-2 4 -2.33301 9.33301 -1 16c2 14 4.33301 21 7 21c6.66699 0 18.5 2.83301 35.5 8.5
s27.167 11.167 30.5 16.5c7.33301 18 15 45 23 81l33 170c0.666992 4.66699 -5 26 -17 64s-24.333 74.667 -37 110l-18 54c-12.667 40 -24.667 64.333 -36 73c-6 4 -13.833 7.5 -23.5 10.5s-17.5 4.5 -23.5 4.5c-1.33301 0 -2 3 -2 9c0 4.66699 1 10 3 16s4.33301 10 7 12
c3.33301 0 21.166 -1 53.499 -3s57.833 -3 76.5 -3z" />
    <glyph glyph-name="Z" unicode="Z" horiz-adv-x="615" 
d="M303 656h102.002c56.667 0 129 3.33301 217 10c2 -0.666992 3.33301 -5.16699 4 -13.5s0.333984 -14.833 -0.999023 -19.5c-0.666992 -2.66699 -38.167 -49.834 -112.5 -141.501l-222.5 -273.5l-111 -136c-6 -7.33301 -9.33301 -12.333 -10 -15
c-0.666992 -3.33301 0 -5.83301 2 -7.5s5 -2.5 9 -2.5h148c43.333 0 81.166 11.333 113.499 34s56.833 50.334 73.5 83.001c2 4 6.33301 6 13 6c15.333 0 24.666 -2 27.999 -6c-5.33301 -11.333 -15.5 -31.166 -30.5 -59.499s-26.5 -51 -34.5 -68s-14.333 -32.5 -19 -46.5
h-481c-4.66699 8 -5.66699 16.667 -3 26c1.33301 8 3.66602 13.667 6.99902 17l451 556h-159c-22 0 -41 -2.5 -57 -7.5s-29.667 -13.167 -41 -24.5s-19.833 -21.5 -25.5 -30.5s-13.5 -22.833 -23.5 -41.5c-2.66699 -4.66699 -4.66699 -8.33398 -6 -11.001
c-2.66699 -4 -7 -6 -13 -6c-18 0 -28 1.33301 -30 4c28.667 74.667 49.667 134.667 63 180c14 -4 63.667 -6 149 -6z" />
    <glyph glyph-name="bracketleft" unicode="[" horiz-adv-x="391" 
d="M222 -92c4.66699 -2.66699 6.49805 -9.66699 5.49805 -21s-4.16699 -18 -9.5 -20c-81.333 15.333 -150.666 23 -207.999 23c-9.33301 0 -14 7.66699 -14 23l163 834c0 1.33301 0.5 3.5 1.5 6.5s3.33301 6.5 7 10.5s8.16699 6 13.5 6c68 0 140.333 7.66699 217 23
c2.66699 0 4 -3 4 -9c0 -16 -5.33301 -26.667 -16 -32c-16 -8 -35.5 -15.333 -58.5 -22s-40.167 -10 -51.5 -10c-5.33301 0 -8.66602 -3 -9.99902 -9l-148 -763c-1.33301 -5.33301 0.666992 -8 6 -8c10.667 0 26 -3.16699 46 -9.5s37.333 -13.833 52 -22.5z" />
    <glyph glyph-name="backslash" unicode="\" horiz-adv-x="250" 
d="M38 761c30 0 47 -7.33301 51 -22l126 -726l1 -2v-4c0 -16 -4.33301 -27.667 -13 -35s-17.334 -11 -26.001 -11l-22 2l-137 792c4.66699 4 11.334 6 20.001 6z" />
    <glyph glyph-name="bracketright" unicode="]" horiz-adv-x="385" 
d="M0 -92c17.333 8.66699 37.502 16.168 60.502 22.501s39.833 9.5 50.5 9.5c4.66699 0 7.66699 2.66699 9 8l149 763c1.33301 6 -1 9 -7 9c-12 0 -28.167 3.33301 -48.5 10s-36.833 14 -49.5 22c-4 4.66699 -5.83301 10.167 -5.5 16.5s1.66602 12 3.99902 17
s4.16602 7.5 5.49902 7.5c70 -15.333 139.667 -23 209 -23c8.66699 0 13 -5.66699 13 -17v-6l-162 -834c0 -1.33301 -0.5 -3.5 -1.5 -6.5s-3.33301 -6.5 -7 -10.5s-8.16699 -6 -13.5 -6c-58 0 -130.667 -7.66699 -218 -23c-2 0.666992 -3 3 -3 7
c0 17.333 5 28.666 15 33.999z" />
    <glyph glyph-name="asciicircum" unicode="^" horiz-adv-x="352" 
d="M44 499c1.33301 2.66699 7.66504 8.83301 18.998 18.5l38.5 34c14.333 13 31.333 30.833 51 53.5s37.5 46.667 53.5 72c0.666992 1.33301 1.5 2.83301 2.5 4.5s1.66699 3 2 4s0.833008 1.83301 1.5 2.5s1.5 1.16699 2.5 1.5s2.16699 0.5 3.5 0.5
c6.66699 0 11.167 -2.33301 13.5 -7s6.33301 -16.334 12 -35.001s13.834 -38.667 24.501 -60c4.66699 -8.66699 11.834 -20 21.501 -34l26 -36.5c7.66699 -10.333 11.5 -16.166 11.5 -17.499c-1.33301 -4 -4 -10.167 -8 -18.5s-7.33301 -12.5 -10 -12.5
c-8 0 -24 12.167 -48 36.5s-44 49.833 -60 76.5c-24 -26.667 -53 -52.167 -87 -76.5s-55.333 -36.5 -64 -36.5c-4 0 -6 10 -6 30z" />
    <glyph glyph-name="underscore" unicode="_" horiz-adv-x="519" 
d="M22 -35c6 34.667 13.668 52 23.001 52h418c1.33301 0 2 -2.66699 2 -8c0 -10 -5 -26 -15 -48c-0.666992 -2 -1.83398 -3.5 -3.50098 -4.5s-3.16699 -1.5 -4.5 -1.5h-1h-414z" />
    <glyph glyph-name="grave" unicode="`" horiz-adv-x="210" 
d="M48 654c0 7.33301 4.66699 14.667 14 22s21 11 35 11c14.667 0 24.334 -3 29.001 -9c11.333 -18.667 24.166 -45.167 38.499 -79.5s21.5 -53.833 21.5 -58.5c0 -2 -2.33301 -5.5 -7 -10.5s-8.66699 -7.5 -12 -7.5c-7.33301 0 -29 17.5 -65 52.5s-54 61.5 -54 79.5z" />
    <glyph glyph-name="a" unicode="a" horiz-adv-x="462" 
d="M323 449c21.333 0 40.498 -2.33105 57.498 -6.99805s29.167 -9.66699 36.5 -15l-58 -299c-1.33301 -4 -2 -11.667 -2 -23c0 -16 3.33301 -24 10 -24c9.33301 0 22.333 7 39 21s28 24.667 34 32c1.33301 0 4.83301 -3.33301 10.5 -10s8.5 -11.334 8.5 -14.001
c-7.33301 -18 -31.166 -42.167 -71.499 -72.5s-74.5 -45.5 -102.5 -45.5c-15.333 0 -28 4.83301 -38 14.5s-15 22.834 -15 39.501v13c0.666992 8 1.33398 13.667 2.00098 17c-31.333 -56 -67.666 -84 -108.999 -84c-36.667 0 -65.334 13.667 -86.001 41s-31 63 -31 107
c0 34 8.16699 69.167 24.5 105.5s38 69.666 65 99.999s60.5 55.166 100.5 74.499s81.667 29 125 29zM264.998 385.002c-20 0 -38.832 -10.168 -56.499 -30.501s-32 -44.833 -43 -73.5s-19.5 -57.167 -25.5 -85.5s-9 -52.166 -9 -71.499c0 -37.333 10.333 -56 31 -56
c21.333 0 42.666 23.167 63.999 69.5s37.333 96.5 48 150.5l18 90c-4.66699 4.66699 -13.667 7 -27 7z" />
    <glyph glyph-name="b" unicode="b" horiz-adv-x="410" 
d="M299 449c68 0 102.001 -48.667 102.001 -146c0 -44 -9.16699 -86.167 -27.5 -126.5s-41.333 -73.666 -69 -99.999s-57.5 -47.333 -89.5 -63s-62.333 -23.5 -91 -23.5c-32 0 -58.833 11 -80.5 33s-32.5 50 -32.5 84c0 15.333 2 33.666 6 54.999l74 382
c6 30.667 9 50.334 9 59.001c0 14.667 -16.333 22 -49 22c-2 0 -3 2.66699 -3 8c0 9.33301 3 17 9 23c16 0 43.167 4.66699 81.5 14s66.166 17.666 83.499 24.999c6.66699 -3.33301 10 -10.666 10 -21.999c0 -8.66699 -5.66699 -38.334 -17 -89.001l-46 -238
c0.666992 1.33301 2 3.33301 4 6c7.33301 11.333 14 21 20 29s14.833 18 26.5 30s24.167 21.333 37.5 28s27.333 10 42 10zM249.001 363c-21.333 0 -43.6689 -20.832 -67.002 -62.499s-39.333 -86.167 -48 -133.5c-7.33301 -28 -9.16602 -55 -5.49902 -81
s13.834 -39 30.501 -39c20 0 39.5 14.167 58.5 42.5s34 61.666 45 99.999s16.5 73.833 16.5 106.5c0 44.667 -10 67 -30 67z" />
    <glyph glyph-name="c" unicode="c" horiz-adv-x="371" 
d="M252 449c48 0 85.3311 -14.999 111.998 -44.999c4.66699 -14 7 -25 7 -33c0 -16.667 -4.33301 -31 -13 -43s-20 -18 -34 -18c-11.333 0 -20.666 4.33301 -27.999 13s-12.5 18.334 -15.5 29.001s-7.83301 20.334 -14.5 29.001s-15 13 -25 13c-18 0 -35.333 -12 -52 -36
s-29.834 -53.333 -39.501 -88s-14.5 -68.334 -14.5 -101.001c0 -67.333 21.333 -101 64 -101c20 0 40 7.16699 60 21.5s33.667 26.5 41 36.5c1.33301 0 4.83301 -3.33301 10.5 -10s8.5 -11.334 8.5 -14.001c-8 -18.667 -29.667 -41.334 -65 -68.001s-68.666 -40 -99.999 -40
c-49.333 0 -85.833 14.5 -109.5 43.5s-35.5 68.5 -35.5 118.5c0 49.333 11.333 96.833 34 142.5s52.834 82.167 90.501 109.5s77.167 41 118.5 41z" />
    <glyph glyph-name="d" unicode="d" horiz-adv-x="465" 
d="M297 448l4.99902 0.000976562l19 93c6 36 9 56.667 9 62c0 14.667 -16.333 22 -49 22c-2 0 -3 2.66699 -3 8c0 9.33301 3 17 9 23c16.667 0 44.167 4.66699 82.5 14s65.833 17.666 82.5 24.999c6.66699 -3.33301 10 -10.666 10 -21.999c0 -4 -1.16699 -11.833 -3.5 -23.5
s-5 -24.167 -8 -37.5s-4.83301 -22 -5.5 -26l-89 -458c-1.33301 -4 -2 -11.667 -2 -23c0 -16 3.33301 -24 10 -24c10 0 23.333 7 40 21s27.667 24.667 33 32c2 0 5.66699 -3.33301 11 -10s8 -11.334 8 -14.001c-6.66699 -18 -30.167 -42.167 -70.5 -72.5
s-74.833 -45.5 -103.5 -45.5c-14.667 0 -27.167 4.83301 -37.5 14.5s-15.5 22.834 -15.5 39.501c0 5.33301 0.333008 10.333 1 15c0.666992 6.66699 1.33398 11.667 2.00098 15c-32 -56 -68.667 -84 -110 -84c-36 0 -64.5 13.667 -85.5 41s-31.5 63 -31.5 107
c0 33.333 7.33301 67.5 22 102.5s34.667 67.167 60 96.5s56.5 54.166 93.5 74.499s75.833 31.833 116.5 34.5zM285.999 360.001c1.33301 8.66699 -0.666992 14.999 -6 18.999s-11.333 6 -18 6c-19.333 0 -38 -10.167 -56 -30.5s-32.333 -44.833 -43 -73.5
s-19.167 -57.167 -25.5 -85.5s-9.5 -52.166 -9.5 -71.499c0 -37.333 10.333 -56 31 -56c22 0 43.333 22.5 64 67.5s37 95.833 49 152.5z" />
    <glyph glyph-name="e" unicode="e" horiz-adv-x="393" 
d="M251 449c34.667 0 64.666 -8.3291 89.999 -24.9961s38 -39.334 38 -68.001c0 -24.667 -10 -48.667 -30 -72s-43.667 -42.333 -71 -57s-53.833 -26.334 -79.5 -35.001s-45.5 -13 -59.5 -13c-2.66699 0 -4 -3.33301 -4 -10c0 -39.333 5.83301 -66 17.5 -80
s27.167 -21 46.5 -21c20 0 40 7.16699 60 21.5s33.667 26.5 41 36.5c1.33301 0 4.83301 -3.33301 10.5 -10s8.5 -11.334 8.5 -14.001c-8 -18.667 -29.667 -41.334 -65 -68.001s-68.666 -40 -99.999 -40c-48 0 -84.167 14.167 -108.5 42.5s-36.5 68.5 -36.5 120.5
c0 48 11.167 94.667 33.5 140s52.333 82 90 110s77.167 42 118.5 42zM240.999 395.004c-17.333 0 -37.5 -18.168 -60.5 -54.501s-34.5 -72.166 -34.5 -107.499c0 -2.66699 1.33301 -4 4 -4c31.333 0 58.333 14.333 81 43s34 56.667 34 84c0 26 -8 39 -24 39z" />
    <glyph glyph-name="f" unicode="f" horiz-adv-x="417" 
d="M406 695c42.667 0 73.6689 -10.9971 93.002 -32.9971c0 -66.667 -19.667 -100 -59 -100c-9.33301 0 -17.333 4 -24 12s-11.667 17 -15 27s-8 19 -14 27s-13.333 12 -22 12c-21.333 0 -41.833 -19 -61.5 -57s-35.5 -87.667 -47.5 -149v-1c0 -2.66699 1 -4 3 -4h115
c6.66699 0 10 -5 10 -15c0 -13.333 -4.66699 -28 -14 -44h-120c-3.33301 0 -5.66602 -2 -6.99902 -6l-59 -304c-10 -52 -25.5 -97.167 -46.5 -135.5s-44.167 -67.333 -69.5 -87s-50.166 -33.834 -74.499 -42.501s-48.166 -13 -71.499 -13c-24 0 -44.333 4.16699 -61 12.5
s-26.334 17.166 -29.001 26.499c0 58 18.667 87 56 87c9.33301 0 17.166 -3.66699 23.499 -11s11.166 -15.5 14.499 -24.5s8.16602 -17.167 14.499 -24.5s13.833 -11 22.5 -11c24 0 43 15.167 57 45.5s25.667 70.166 35 119.499l72 361v2c0 3.33301 -1.33301 5 -4 5h-59
c-3.33301 0 -5 3.33301 -5 10c0 7.33301 6.16699 17.5 18.5 30.5s25.166 19.5 38.499 19.5h17c4 0 7 5.33301 9 16c14.667 76 46 136.5 94 181.5s104.667 67.5 170 67.5z" />
    <glyph glyph-name="g" unicode="g" horiz-adv-x="465" 
d="M285 -97c0 11.333 -17 22.167 -51 32.5s-64.667 16.833 -92 19.5c-38.667 -11.333 -58 -29.333 -58 -54c0 -20.667 7.5 -37.5 22.5 -50.5s40.167 -19.5 75.5 -19.5c37.333 0 63.833 7 79.5 21s23.5 31 23.5 51zM260 388.001c-16 0 -29.666 -9.66504 -40.999 -28.998
s-19.5 -41.666 -24.5 -66.999s-7.5 -50.333 -7.5 -75c0 -34 12.667 -51 38 -51c13.333 0 25.166 5.83301 35.499 17.5s18 26.667 23 45s8.66699 36.166 11 53.499s3.5 33.666 3.5 48.999c0 17.333 -3.33301 31.166 -10 41.499s-16 15.5 -28 15.5zM282.001 449.003
c16.667 0 37.166 -4.49902 61.499 -13.499s48.166 -13.5 71.499 -13.5h53c6 0 9 -4.33301 9 -13c0 -13.333 -3.33301 -26 -10 -38h-51c-4 0 -6 -2 -6 -6c0 -0.666992 0.666992 -7 2 -19s2 -23.333 2 -34c0 -71.333 -31.333 -127.333 -94 -168
c-13.333 -8.66699 -32.833 -17.834 -58.5 -27.501s-46.5 -18.5 -62.5 -26.5s-24 -16 -24 -24c0 -4 11.333 -8.33301 34 -13l75.5 -15c27.667 -5.33301 52.834 -15.5 75.501 -30.5s34 -33.5 34 -55.5c0 -17.333 -4.16699 -35.166 -12.5 -53.499s-21.333 -36.5 -39 -54.5
s-43.167 -32.833 -76.5 -44.5s-72 -17.5 -116 -17.5c-46.667 0 -86 10 -118 30s-48 44.333 -48 73c0 12.667 3.83301 24.334 11.5 35.001s18 19.5 31 26.5s25.333 12.5 37 16.5s23.5 7.33301 35.5 10c-11.333 3.33301 -22 8.66602 -32 15.999c-16.667 12 -25 26.333 -25 43
c0 12 11.833 25.667 35.5 41s50.834 29.666 81.501 42.999c-57.333 15.333 -86 59 -86 131c0 53.333 20.833 100.333 62.5 141s90.5 61 146.5 61z" />
    <glyph glyph-name="h" unicode="h" horiz-adv-x="469" 
d="M317 449c29.333 0 50.999 -10.335 64.999 -31.002s21 -46.667 21 -78c0 -16 -5.33301 -51.667 -16 -107l-20 -105c-1.33301 -4 -2 -11.667 -2 -23c0 -16 3.33301 -24 10 -24c9.33301 0 22.333 7 39 21s28 24.667 34 32c1.33301 0 4.83301 -3.33301 10.5 -10
s8.5 -11.334 8.5 -14.001c-7.33301 -18 -31.166 -42.167 -71.499 -72.5s-74.5 -45.5 -102.5 -45.5c-15.333 0 -28 4.83301 -38 14.5s-15 23.834 -15 42.501c0 19.333 3.33301 44 10 74l23 119c0 2.66699 1 8.33398 3 17.001s3.66699 16.834 5 24.501s2 13.167 2 16.5
c0 14 -2.16699 24.333 -6.5 31s-11.833 10 -22.5 10c-16.667 0 -38.5 -28.333 -65.5 -85s-44.833 -107 -53.5 -151l-21 -105c-13.333 -4 -32 -6 -56 -6c-23.333 0 -43.666 2 -60.999 6c76.667 396 115 597 115 603c0 14.667 -16.333 22 -49 22c-2 0 -3 2.66699 -3 8
c0 9.33301 3 17 9 23c16 0 43.167 4.66699 81.5 14s66.166 17.666 83.499 24.999c6.66699 -3.33301 10 -10.666 10 -21.999c0 -4 -1.16699 -12 -3.5 -24s-5 -24.833 -8 -38.5s-4.83301 -22.5 -5.5 -26.5c-36 -184.667 -54 -278 -54 -280
c16.667 34.667 39.167 67.5 67.5 98.5s53.833 46.5 76.5 46.5z" />
    <glyph glyph-name="i" unicode="i" horiz-adv-x="286" 
d="M175 449c15.333 0 28 -4.83398 38 -14.501s15 -23.834 15 -42.501c0 -7.33301 -1.33301 -20.166 -4 -38.499s-4.66699 -30.166 -6 -35.499l-37 -190c-1.33301 -4 -2 -11.667 -2 -23c0 -16 3.33301 -24 10 -24c9.33301 0 22.5 7 39.5 21s28.167 24.667 33.5 32
c2 0 5.66699 -3.33301 11 -10s8 -11.334 8 -14.001c-7.33301 -18 -31.166 -42.167 -71.499 -72.5s-74.5 -45.5 -102.5 -45.5c-14.667 0 -27.167 4.83301 -37.5 14.5s-15.5 23.834 -15.5 42.501c0 7.33301 1.33301 20.166 4 38.499s4.66699 30.166 6 35.499l37 190
c1.33301 6.66699 2 14.334 2 23.001c0 16 -3.33301 24 -10 24c-9.33301 0 -22.5 -7 -39.5 -21s-28.167 -24.667 -33.5 -32c-1.33301 0 -4.83301 3.33301 -10.5 10s-8.5 11.334 -8.5 14.001c7.33301 18 31.166 42.167 71.499 72.5s74.5 45.5 102.5 45.5zM207 686.999
c16.667 0 30.5 -6 41.5 -18s16.5 -26.667 16.5 -44c0 -22 -7.83301 -41.667 -23.5 -59s-33.834 -26 -54.501 -26c-16.667 0 -30.5 6 -41.5 18s-16.5 27 -16.5 45c0 22 7.83301 41.5 23.5 58.5s33.834 25.5 54.501 25.5z" />
    <glyph glyph-name="j" unicode="j" horiz-adv-x="341" 
d="M249 449c15.333 0 28.001 -4.83789 38.001 -14.5049s15 -23.834 15 -42.501c0 -7.33301 -1.33301 -20.166 -4 -38.499s-4.66699 -30.166 -6 -35.499l-38 -198c-18 -95.333 -46.667 -169.333 -86 -222c-18.667 -25.333 -46 -49.666 -82 -72.999
s-63.333 -37.666 -82 -42.999c-2 0 -4.66699 4.83301 -8 14.5s-5 17.167 -5 22.5c44.667 39.333 76 77 94 113s34.333 92 49 168l41 213c1.33301 6.66699 2 14.334 2 23.001c0 16 -3.33301 24 -10 24c-9.33301 0 -22.333 -7 -39 -21s-28 -24.667 -34 -32
c-1.33301 0 -4.83301 3.33301 -10.5 10s-8.5 11.334 -8.5 14.001c7.33301 18 31.166 42.167 71.499 72.5s74.5 45.5 102.5 45.5zM294.001 688.995c17.333 0 31.3311 -6 41.998 -18s16 -27 16 -45c0 -22 -7.66699 -41.667 -23 -59s-33.666 -26 -54.999 -26
c-16.667 0 -30.5 6 -41.5 18s-16.5 27 -16.5 45c0 22 7.83301 41.667 23.5 59s33.834 26 54.501 26z" />
    <glyph glyph-name="k" unicode="k" horiz-adv-x="462" 
d="M319 449c31.333 0 59.168 -8.33496 83.501 -25.002s36.5 -39 36.5 -67c0 -27.333 -9.66699 -53.166 -29 -77.499s-41.333 -43 -66 -56s-47.667 -20.833 -69 -23.5c11.333 -29.333 26.666 -58.833 45.999 -88.5s36 -44.5 50 -44.5c11.333 0 25.166 6.5 41.499 19.5
s27.833 23.833 34.5 32.5c1.33301 0 5.83301 -3.33301 13.5 -10s11.5 -11 11.5 -13c-7.33301 -18.667 -25.666 -40 -54.999 -64s-60.666 -36 -93.999 -36c-14 0 -28.167 4.83301 -42.5 14.5s-26.833 20.5 -37.5 32.5s-22.334 28 -35.001 48s-22 35.667 -28 47l-23 45
c-2.66699 6 -4.66699 10.333 -6 13l-38 -196c-12 -5.33301 -30.333 -8 -55 -8c-19.333 0 -39.666 2.66699 -60.999 8l105 544c6 30.667 9 50.334 9 59.001c0 14.667 -16.333 22 -49 22c-2 0 -3 2.66699 -3 8c0 9.33301 3 17 9 23c16 0 43.167 4.66699 81.5 14
s66.166 17.666 83.499 24.999c6.66699 -3.33301 10 -10.666 10 -21.999c0 -4 -1.16699 -12 -3.5 -24s-5 -24.833 -8 -38.5s-4.83301 -22.5 -5.5 -26.5l-45 -238c4 9.33301 9 18.666 15 27.999s14.667 20.333 26 33s25.333 22.834 42 30.501s35 11.5 55 11.5z
M277.002 375.998c-26 0 -51.333 -16.332 -76 -48.999s-37 -57.334 -37 -74.001c0 -8 11 -12 33 -12c32 0 58.667 7 80 21c11.333 8 20.333 18.5 27 31.5s10 26.167 10 39.5c0 10 -3.5 19.667 -10.5 29s-15.833 14 -26.5 14z" />
    <glyph glyph-name="l" unicode="l" horiz-adv-x="241" 
d="M15 123l82 421.005c6 31.333 9 51 9 59c0 14.667 -16.333 22 -49 22c-2 0 -3 2.66699 -3 8c0 9.33301 3 17 9 23c16.667 0 44.167 4.66699 82.5 14s65.833 17.666 82.5 24.999c6.66699 -3.33301 10 -10.666 10 -21.999c0 -4 -1 -11.833 -3 -23.5
s-4.66699 -24.834 -8 -39.501s-5.33301 -23.334 -6 -26.001l-89 -456c-1.33301 -6.66699 -2 -14.334 -2 -23.001c0 -16 3.33301 -24 10 -24c10 0 23.333 7 40 21s27.667 24.667 33 32c2 0 5.66699 -3.33301 11 -10s8 -11.334 8 -14.001
c-6.66699 -18 -30.167 -42.167 -70.5 -72.5s-74.833 -45.5 -103.5 -45.5c-14.667 0 -27.167 4.83301 -37.5 14.5s-15.5 23.834 -15.5 42.501c0 7.33301 1.33301 20.166 4 38.499s4.66699 30.166 6 35.499z" />
    <glyph glyph-name="m" unicode="m" horiz-adv-x="748" 
d="M360 449c29.333 0 51.0029 -10.3311 65.0029 -30.998s21 -46.667 21 -78c0 -8.66699 -0.666992 -19.334 -2 -32.001c18 34 41.5 66 70.5 96s54.167 45 75.5 45c29.333 0 51 -10.333 65 -31s21 -46.667 21 -78c0 -16 -5.33301 -51.667 -16 -107l-20 -105
c-1.33301 -4 -2 -11.667 -2 -23c0 -16 3.33301 -24 10 -24c9.33301 0 22.5 7 39.5 21s28.167 24.667 33.5 32c2 0 5.66699 -3.33301 11 -10s8 -11.334 8 -14.001c-7.33301 -18 -31.166 -42.167 -71.499 -72.5s-74.5 -45.5 -102.5 -45.5
c-14.667 0 -27.167 4.83301 -37.5 14.5s-15.5 23.834 -15.5 42.501c0 19.333 3.33301 44 10 74l23 119c6.66699 33.333 10 52.666 10 57.999c1.33301 27.333 -8.33398 41 -29.001 41c-16.667 0 -38.334 -28.333 -65.001 -85s-44.667 -107 -54 -151l-21 -105
c-13.333 -4 -33 -6 -59 -6c-25.333 0 -45 2 -59 6l48 242c6.66699 28.667 10 48 10 58c0 27.333 -10 41 -30 41c-16.667 0 -38.334 -28.333 -65.001 -85s-44.667 -107 -54 -151l-21 -105c-13.333 -4 -32 -6 -56 -6c-23.333 0 -43 2 -59 6l60 313
c1.33301 6.66699 2 14.334 2 23.001c0 16 -3.33301 24 -10 24c-9.33301 0 -22.5 -7 -39.5 -21s-28.167 -24.667 -33.5 -32c-1.33301 0 -4.83301 3.33301 -10.5 10s-8.5 11.334 -8.5 14.001c7.33301 18 31.166 42.167 71.499 72.5s74.5 45.5 102.5 45.5
c15.333 0 28 -4.83301 38 -14.5s15 -23.834 15 -42.501c0 -8 -2.66699 -29.333 -8 -64l-4 -26c17.333 35.333 40 68.666 68 99.999s53 47 75 47z" />
    <glyph glyph-name="n" unicode="n" horiz-adv-x="513" 
d="M176 449c15.333 0 28.001 -4.83203 38.001 -14.499s15 -23.834 15 -42.501c0 -8 -2.66699 -29.333 -8 -64c0 -1.33301 -0.166992 -2.83301 -0.5 -4.5s-0.833008 -4.5 -1.5 -8.5s-1.16699 -7.16699 -1.5 -9.5l-0.5 -3.5c17.333 35.333 40 68.666 68 99.999s53 47 75 47
c29.333 0 51 -10.333 65 -31s21 -46.667 21 -78c0 -16 -5.33301 -51.667 -16 -107l-20 -105c-1.33301 -4 -2 -11.667 -2 -23c0 -16 3.33301 -24 10 -24c9.33301 0 22.5 7 39.5 21s28.167 24.667 33.5 32c2 0 5.66699 -3.33301 11 -10s8 -11.334 8 -14.001
c-7.33301 -18 -31.166 -42.167 -71.499 -72.5s-74.5 -45.5 -102.5 -45.5c-14.667 0 -27.167 4.83301 -37.5 14.5s-15.5 23.834 -15.5 42.501c0 19.333 3.33301 44 10 74l23 119c6.66699 33.333 10 52.666 10 57.999c0 14 -2.16699 24.333 -6.5 31s-11.833 10 -22.5 10
c-16.667 0 -38.334 -28.333 -65.001 -85s-44.667 -107 -54 -151l-21 -105c-13.333 -4 -32 -6 -56 -6c-23.333 0 -43 2 -59 6l60 313c1.33301 6.66699 2 14.334 2 23.001c0 16 -3.33301 24 -10 24c-9.33301 0 -22.5 -7 -39.5 -21s-28.167 -24.667 -33.5 -32
c-1.33301 0 -4.83301 3.33301 -10.5 10s-8.5 11.334 -8.5 14.001c7.33301 18 31.166 42.167 71.499 72.5s74.5 45.5 102.5 45.5z" />
    <glyph glyph-name="o" unicode="o" horiz-adv-x="407" 
d="M240 396c-19.333 0 -37.499 -15.5 -54.499 -46.5s-30.167 -68.5 -39.5 -112.5s-13.666 -86.333 -12.999 -127c1.33301 -42 12.333 -63 33 -63s39.667 16.833 57 50.5s30.166 72 38.499 115s12.166 82.833 11.499 119.5c-1.33301 42.667 -12.333 64 -33 64zM250.001 449
c51.333 0 88.665 -14.833 111.998 -44.5s35 -68.834 35 -117.501c0 -49.333 -10.667 -96.5 -32 -141.5s-50.666 -81.5 -87.999 -109.5s-77.666 -42 -120.999 -42c-52 0 -89.5 14.833 -112.5 44.5s-34.5 68.834 -34.5 117.501c0 45.333 10.5 90.5 31.5 135.5
s50.333 82.5 88 112.5s78.167 45 121.5 45z" />
    <glyph glyph-name="p" unicode="p" horiz-adv-x="473" 
d="M301 372c-15.333 0 -30 -7.66797 -44 -23.001s-26 -32 -36 -50l-38 -197c-3.33301 -17.333 -3 -29.666 1 -36.999s12.667 -11 26 -11c18 0 36.833 13 56.5 39s36.167 59.667 49.5 101s20 82 20 122c0 14 -3.33301 26.833 -10 38.5s-15 17.5 -25 17.5zM348 448.999
c35.333 0 62.6689 -15.333 82.002 -46s29 -65.334 29 -104.001c0 -39.333 -8.33301 -78.166 -25 -116.499s-37.5 -71 -62.5 -98s-52.833 -48.833 -83.5 -65.5s-59.667 -25 -87 -25c-16 0 -28.333 4 -37 12l-24 -122c-1.33301 -9.33301 -2 -16.333 -2 -21
c0 -20.667 7.33301 -32.667 22 -36c10.667 -2.66699 22.334 -4 35.001 -4c4.66699 0 7 -4 7 -12c0 -10.667 -1.33301 -18 -4 -22c-56 0 -93.667 -0.333008 -113 -1c-40 -1.33301 -81.667 -4.33301 -125 -9c-2 0.666992 -3 3.66699 -3 9c0 14 1.66699 22.333 5 25
c24 1.33301 40.333 7.33301 49 18c2 3.33301 6 19 12 47l64 326l-38 -31c-7.33301 9.33301 -11 19 -11 29c0 6 2.33301 11.333 7 16l54 51l34 174c20 4 39.333 6 58 6c19.333 0 38.666 -2 57.999 -6l-14 -64c1.33301 1.33301 4.66602 5.66602 9.99902 12.999
s10.833 13.5 16.5 18.5s12.667 10.833 21 17.5s18.166 11.834 29.499 15.501s23.333 5.5 36 5.5z" />
    <glyph glyph-name="q" unicode="q" horiz-adv-x="416" 
d="M262 385c-22 0 -43.5 -15 -64.5 -45s-37.333 -64.833 -49 -104.5s-17.5 -75.5 -17.5 -107.5c0 -39.333 9.33301 -59 28 -59c14 0 28.833 11 44.5 33s28.667 46 39 72s17.833 50 22.5 72l27 131c-3.33301 5.33301 -13.333 8 -30 8zM320 449
c36.667 0 68.332 -7.3291 94.999 -21.9961l-103 -538c-2 -8.66699 -3 -16.334 -3 -23.001c0 -16 3.33301 -27 10 -33s20.667 -9 42 -9c4 0 6 -6 6 -18c0 -7.33301 -1.33301 -13 -4 -17c-5.33301 0 -13.833 0.166992 -25.5 0.5s-19.5 0.5 -23.5 0.5
c-62.667 0 -127.667 -3.66699 -195 -11c-2.66699 4 -4 8.66699 -4 14c0 13.333 1.66699 20 5 20c5.33301 0 10.833 0.666992 16.5 2s12.5 4.16602 20.5 8.49902s15.333 11.666 22 21.999s11.667 23.166 15 38.499l36 182c-8.66699 -17.333 -23.167 -34 -43.5 -50
s-40.166 -24 -59.499 -24c-37.333 0 -66.5 13.167 -87.5 39.5s-31.5 60.5 -31.5 102.5c0 50 13.833 99.167 41.5 147.5s66 88.333 115 120s100.833 47.5 155.5 47.5z" />
    <glyph glyph-name="r" unicode="r" horiz-adv-x="437" 
d="M176 449c15.333 0 28.002 -4.83301 38.002 -14.5s15 -23.834 15 -42.501c0 -20 -1.66699 -38 -5 -54c-4.66699 -26.667 -7.33398 -41.334 -8.00098 -44.001c19.333 45.333 42.5 82.5 69.5 111.5s57.167 43.5 90.5 43.5c24 0 46 -13 66 -39
c0 -26 -4.83301 -49.167 -14.5 -69.5s-25.167 -30.5 -46.5 -30.5c-10.667 0 -22.334 7.33301 -35.001 22s-24.334 22 -35.001 22c-16.667 0 -40.667 -30.167 -72 -90.5s-52.666 -118.5 -63.999 -174.5l-18 -89c-18.667 -4 -37.667 -6 -57 -6s-38.666 2 -57.999 6l60 313
c1.33301 6.66699 2 14.334 2 23.001c0 16 -3.33301 24 -10 24c-9.33301 0 -22.5 -7 -39.5 -21s-28.167 -24.667 -33.5 -32c-1.33301 0 -4.83301 3.33301 -10.5 10s-8.5 11.334 -8.5 14.001c7.33301 18 31.166 42.167 71.499 72.5s74.5 45.5 102.5 45.5z" />
    <glyph glyph-name="s" unicode="s" horiz-adv-x="325" 
d="M214 449c42.667 0 75.3291 -9.66797 97.9961 -29.001c7.33301 -9.33301 11 -21.666 11 -36.999c0 -18.667 -3.66699 -33.334 -11 -44.001s-17 -16 -29 -16c-11.333 0 -21.166 4 -29.499 12s-14.666 16.833 -18.999 26.5s-10.333 18.5 -18 26.5s-16.834 12 -27.501 12
c-12.667 0 -21.667 -3.33301 -27 -10s-8 -17.667 -8 -33c0 -12.667 6.5 -29.5 19.5 -50.5s27.167 -41.333 42.5 -61s29.5 -41.5 42.5 -65.5s19.5 -44.667 19.5 -62c0 -36 -16.5 -66 -49.5 -90s-72.5 -36 -118.5 -36c-41.333 0 -74.666 10.667 -99.999 32
c-6 7.33301 -9 18.666 -9 33.999c0 18.667 3.66699 33.334 11 44.001s17 16 29 16c11.333 0 21.5 -4 30.5 -12s15.833 -16.833 20.5 -26.5s10.834 -18.5 18.501 -26.5s15.834 -12 24.501 -12c12.667 0 21.667 3.33301 27 10s8 17.667 8 33c0 12.667 -6.5 29.5 -19.5 50.5
s-27.167 41.333 -42.5 61s-29.5 41.5 -42.5 65.5s-19.5 44.667 -19.5 62c0 36.667 16.5 66.834 49.5 90.501s72.5 35.5 118.5 35.5z" />
    <glyph glyph-name="t" unicode="t" horiz-adv-x="289" 
d="M112 527c0.666992 4 10.999 7.1709 30.999 9.50391s39 3.5 57 3.5c12.667 0 23 -1.33301 31 -4l-23 -107h87c6.66699 0 10 -5.66699 10 -17c0 -16 -4 -30 -12 -42h-96l-47 -242c-1.33301 -4 -2 -11.667 -2 -23c0 -16 3.33301 -24 10 -24c9.33301 0 22.333 7 39 21
s28 24.667 34 32c1.33301 0 4.83301 -3.33301 10.5 -10s8.5 -11.334 8.5 -14.001c-7.33301 -18 -31.166 -42.167 -71.499 -72.5s-74.5 -45.5 -102.5 -45.5c-15.333 0 -28 4.83301 -38 14.5s-15 23.834 -15 42.501c0 7.33301 1.33301 20.166 4 38.499
s4.66699 30.166 6 35.499l48 247h-56c-2.66699 0 -4 4 -4 12c0 7.33301 1.5 16.166 4.5 26.499s6.16699 17.166 9.5 20.499h58z" />
    <glyph glyph-name="u" unicode="u" horiz-adv-x="513" 
d="M175 449c15.333 0 28.001 -4.83105 38.001 -14.498s15 -23.834 15 -42.501c0 -19.333 -3.33301 -44 -10 -74l-23 -119c-0.666992 -2.66699 -1.83398 -8.33398 -3.50098 -17.001s-3.16699 -16.834 -4.5 -24.501s-2 -13.167 -2 -16.5c0 -14 2.16699 -24.333 6.5 -31
s11.833 -10 22.5 -10c16.667 0 38.5 28.333 65.5 85s44.833 107 53.5 151l21 105c13.333 4 32 6 56 6c23.333 0 43 -2 59 -6l-60 -313c-1.33301 -6.66699 -2 -14.334 -2 -23.001c0 -16 3.33301 -24 10 -24c9.33301 0 22.5 7 39.5 21s28.167 24.667 33.5 32
c2 0 5.66699 -3.33301 11 -10s8 -11.334 8 -14.001c-7.33301 -18 -31.166 -42.167 -71.499 -72.5s-74.5 -45.5 -102.5 -45.5c-14.667 0 -27.167 4.83301 -37.5 14.5s-15.5 23.834 -15.5 42.501c0 10.667 2.66699 32 8 64c0 1.33301 0.166992 2.83301 0.5 4.5
s0.833008 4.5 1.5 8.5s1.16699 7.16699 1.5 9.5l0.5 3.5c-17.333 -35.333 -40 -68.666 -68 -99.999s-53 -47 -75 -47c-29.333 0 -51 10.333 -65 31s-21 46.667 -21 78c0 16 5.33301 51.667 16 107l20 105c1.33301 4 2 11.667 2 23c0 16 -3.33301 24 -10 24
c-9.33301 0 -22.5 -7 -39.5 -21s-28.167 -24.667 -33.5 -32c-1.33301 0 -4.83301 3.33301 -10.5 10s-8.5 11.334 -8.5 14.001c7.33301 18 31.166 42.167 71.499 72.5s74.5 45.5 102.5 45.5z" />
    <glyph glyph-name="v" unicode="v" horiz-adv-x="443" 
d="M175 449c15.333 0 28.001 -4.83301 38.001 -14.5s15 -23.834 15 -42.501s-2.66699 -40 -8 -64l-32 -163c-2 -10 -3 -22.333 -3 -37c0 -26.667 8.66699 -40 26 -40c18 0 38.333 10.5 61 31.5s42.167 47.5 58.5 79.5s24.5 61.667 24.5 89c0 17.333 -6 34.5 -18 51.5
s-18 33.833 -18 50.5c0 18 6.83301 32.333 20.5 43s30.5 16 50.5 16c16 0 28.667 -3.66699 38 -11c6.66699 -11.333 10 -30.666 10 -57.999c0 -44 -9.83301 -89.667 -29.5 -137s-43.667 -88.833 -72 -124.5s-58.5 -65 -90.5 -88s-60.333 -34.5 -85 -34.5
c-28 0 -51.5 8.16699 -70.5 24.5s-28.5 39.166 -28.5 68.499c0 17.333 1.66699 34.666 5 51.999l34 172c1.33301 6.66699 2 14.334 2 23.001c0 16 -3.33301 24 -10 24c-9.33301 0 -22.5 -7 -39.5 -21s-28.167 -24.667 -33.5 -32c-1.33301 0 -4.83301 3.33301 -10.5 10
s-8.5 11.334 -8.5 14.001c7.33301 18 31.166 42.167 71.499 72.5s74.5 45.5 102.5 45.5z" />
    <glyph glyph-name="w" unicode="w" horiz-adv-x="686" 
d="M175 449c15.333 0 28.002 -4.83496 38.002 -14.502s15 -23.834 15 -42.501s-2.66699 -40 -8 -64l-32 -163c-2 -10 -3 -22.333 -3 -37c0 -26.667 8.66699 -40 26 -40c38 0 71.667 25.667 101 77c4.66699 46 9.5 84.167 14.5 114.5s11.167 59.5 18.5 87.5
s16.5 48.667 27.5 62s23.833 20 38.5 20c20.667 0 35 -6.16699 43 -18.5s12 -29.5 12 -51.5c0 -35.333 -12.667 -101 -38 -197c-1.33301 -9.33301 -2 -20.666 -2 -33.999c0 -24 1.83301 -40 5.5 -48s11.167 -12 22.5 -12c18 0 38.333 10.5 61 31.5s42.167 47.5 58.5 79.5
s24.5 61.667 24.5 89c0 15.333 -6.16699 32.833 -18.5 52.5s-18.5 37.834 -18.5 54.501c0 17.333 7.16699 30.666 21.5 39.999s30.166 14 47.499 14c19.333 0 33 -3.66699 41 -11c6.66699 -11.333 10 -30.666 10 -57.999c0 -44 -9.83301 -89.667 -29.5 -137
s-43.667 -88.833 -72 -124.5s-58.5 -65 -90.5 -88s-60.333 -34.5 -85 -34.5c-28 0 -51.5 7.33301 -70.5 22s-28.833 36.334 -29.5 65.001c-53.333 -58 -101 -87 -143 -87c-28 0 -51.5 8.16699 -70.5 24.5s-28.5 39.166 -28.5 68.499c0 17.333 1.66699 34.666 5 51.999
l34 172c1.33301 6.66699 2 14.334 2 23.001c0 16 -3.33301 24 -10 24c-9.33301 0 -22.5 -7 -39.5 -21s-28.167 -24.667 -33.5 -32c-1.33301 0 -4.83301 3.33301 -10.5 10s-8.5 11.334 -8.5 14.001c7.33301 18 31.166 42.167 71.499 72.5s74.5 45.5 102.5 45.5z" />
    <glyph glyph-name="x" unicode="x" horiz-adv-x="483" 
d="M205 449c23.333 0 42.001 -26 56.001 -78l15 -53l38 67c27.333 42.667 59 64 95 64c27.333 0 51 -6 71 -18c4.66699 -8 7 -17.667 7 -29c0 -15.333 -4.5 -28.666 -13.5 -39.999s-22.167 -17 -39.5 -17c-12 0 -23.167 3 -33.5 9s-18.833 9 -25.5 9
c-14 0 -24.333 -5.66699 -31 -17l-49 -95l39 -139c6 -18.667 14 -28 24 -28c9.33301 0 22.5 7 39.5 21s28.167 24.667 33.5 32c2 0 5.66699 -3.33301 11 -10s8 -11.334 8 -14.001c-7.33301 -18 -31.166 -42.167 -71.499 -72.5s-74.5 -45.5 -102.5 -45.5
c-22.667 0 -41.334 26.333 -56.001 79l-19 68l-50 -84c-28 -42.667 -59.667 -64 -95 -64c-27.333 0 -51 6 -71 18c-4.66699 8 -7 17.667 -7 29c0 15.333 4.5 28.666 13.5 39.999s22.167 17 39.5 17c12 0 23.167 -3 33.5 -9s18.833 -9 25.5 -9c14 0 24.333 5.66699 31 17
l62 110l-36 125c-6 18.667 -14 28 -24 28c-9.33301 0 -22.5 -7 -39.5 -21s-28.167 -24.667 -33.5 -32c-1.33301 0 -4.83301 3.33301 -10.5 10s-8.5 11.334 -8.5 14.001c7.33301 18 31.166 42.167 71.499 72.5s74.5 45.5 102.5 45.5z" />
    <glyph glyph-name="y" unicode="y" horiz-adv-x="509" 
d="M219 449c8 0 15.6709 -3.5 23.0039 -10.5s14 -16.167 20 -27.5s11.667 -25.166 17 -41.499s10.166 -33 14.499 -50s8.33301 -35.333 12 -55s6.66699 -38.167 9 -55.5l7 -52.5c2.33301 -17.667 4 -32.167 5 -43.5s2 -22 3 -32l1.5 -15c10.667 13.333 27.5 43.5 50.5 90.5
s34.5 85.833 34.5 116.5c0 18 -4 38.5 -12 61.5s-16 41.167 -24 54.5c0 15.333 6.66699 29.166 20 41.499s28.333 18.5 45 18.5c15.333 0 28.5 -5.33301 39.5 -16s16.5 -23.667 16.5 -39c0 -57.333 -10.667 -116.5 -32 -177.5s-49 -116.667 -83 -167s-71 -96 -111 -137
s-80.5 -73 -121.5 -96s-77.5 -34.5 -109.5 -34.5c-17.333 0 -31.666 4.16699 -42.999 12.5s-17 21.833 -17 40.5c0 16.667 6 31.667 18 45c29.333 -8 54.666 -12 75.999 -12s40.166 2.83301 56.499 8.5s28.166 11.667 35.499 18s15 14.5 23 24.5c14 18 21 47.667 21 89
c0 38 -4.66699 86.667 -14 146s-22.333 118.666 -39 177.999c-5.33301 18.667 -13.333 28 -24 28c-9.33301 0 -22.5 -7 -39.5 -21s-28.167 -24.667 -33.5 -32c-2 0 -5.66699 3.33301 -11 10s-8 11.334 -8 14.001c7.33301 18 31.166 42.167 71.499 72.5s74.5 45.5 102.5 45.5
z" />
    <glyph glyph-name="z" unicode="z" horiz-adv-x="431" 
d="M170 449c23.333 0 52.9971 -3.66406 88.9971 -10.9971s65.667 -11 89 -11c10 0 22.5 3.66699 37.5 11s27.5 11 37.5 11c12.667 0 19 -11.333 19 -34l-304 -307c4 0.666992 9 2 15 4s11.5 3.66699 16.5 5s10.167 2 15.5 2c16 0 36.333 -3.66699 61 -11
s45.334 -11 62.001 -11c10 0 20 4.16699 30 12.5s18.667 16.666 26 24.999s12.333 12.5 15 12.5c8 0 15 -9.33301 21 -28l-13 -26c-3.33301 -6.66699 -9.5 -16.834 -18.5 -30.501s-17.833 -24.667 -26.5 -33s-19.167 -16 -31.5 -23s-25.166 -10.5 -38.499 -10.5
c-23.333 0 -52.833 4 -88.5 12s-64.834 12 -87.501 12c-13.333 0 -29.666 -4 -48.999 -12s-32.333 -12 -39 -12c-6 0 -11 3.16699 -15 9.5s-6.33301 12.166 -7 17.499l305 314c-13.333 -6 -25.666 -9 -36.999 -9c-14 0 -31.167 3.66699 -51.5 11s-38.833 11 -55.5 11
c-10 0 -20 -4.33301 -30 -13s-18.833 -17.167 -26.5 -25.5s-13.167 -12.5 -16.5 -12.5c-4 0 -8.5 2.66699 -13.5 8s-8.83301 11 -11.5 17c11.333 27.333 28.833 55 52.5 83s46.5 42 68.5 42z" />
    <glyph glyph-name="braceleft" unicode="{" horiz-adv-x="354" 
d="M32 31c0 21.333 8.33105 57.1602 24.998 107.493s25 82.5 25 96.5c0 6 -1 11.667 -3 17s-4.16699 9.5 -6.5 12.5s-6.33301 6 -12 9s-10 5.16699 -13 6.5s-8.5 3.16602 -16.5 5.49902s-13.333 4.16602 -16 5.49902c-0.666992 2.66699 -0.333984 8.33398 0.999023 17.001
s3.66602 15.334 6.99902 20.001c26 6.66699 46 14.5 60 23.5s23.5 21.167 28.5 36.5s7.83301 30.333 8.5 45s1.66699 35.5 3 62.5s4.33301 52.5 9 76.5c6.66699 36 23.834 68 51.501 96s57.334 48.667 89.001 62s61.5 20 89.5 20c1.33301 0 2 -1.33301 2 -4
c0 -4.66699 -1.16699 -10.5 -3.5 -17.5s-4.83301 -10.833 -7.5 -11.5c-17.333 -1.33301 -36.5 -11.666 -57.5 -30.999s-34.5 -43.666 -40.5 -72.999c-4.66699 -23.333 -7.66699 -51.833 -9 -85.5s-4.66602 -64.834 -9.99902 -93.501c-6 -31.333 -19.667 -60.166 -41 -86.499
s-40.666 -39.5 -57.999 -39.5c14 0 26.5 -8.83301 37.5 -26.5s16.5 -39.167 16.5 -64.5s-9 -63.666 -27 -114.999s-27 -87.333 -27 -108c0 -23.333 6.5 -43.166 19.5 -59.499s26.167 -25.166 39.5 -26.499c4 -1.33301 5.16699 -7.16602 3.5 -17.499
s-4.16699 -15.5 -7.5 -15.5c-38.667 0 -75 15.333 -109 46s-51 67.334 -51 110.001z" />
    <glyph glyph-name="bar" unicode="|" horiz-adv-x="242" 
d="M165 757c14 12.667 33.6641 19 58.9971 19c16.667 0 24.667 -3.33301 24 -10l-170 -872c-5.33301 -4.66699 -15.833 -9.16699 -31.5 -13.5s-29.167 -6.5 -40.5 -6.5c-3.33301 0 -6.16602 1.33301 -8.49902 4s-3.16602 5 -2.49902 7
c66.667 356 123.334 646.667 170.001 872z" />
    <glyph glyph-name="braceright" unicode="}" horiz-adv-x="346" 
d="M214 637c0 22.667 -6.33203 41.333 -18.999 56s-26 22.667 -40 24c-4 0.666992 -5.16699 6.33398 -3.5 17.001s4.16699 16 7.5 16c40 0 77.333 -13.667 112 -41s52 -63 52 -107c0 -22.667 -9.16699 -60.167 -27.5 -112.5s-27.5 -85.833 -27.5 -100.5
c0 -17.333 5.66699 -30.333 17 -39s27.666 -16 48.999 -22c0.666992 -1.33301 1 -3.66602 1 -6.99902c0 -13.333 -2.66699 -23.333 -8 -30c-2 -0.666992 -7.83301 -2.33398 -17.5 -5.00098s-15.667 -4.5 -18 -5.5s-7.33301 -3 -15 -6s-12.834 -6 -15.501 -9
s-6.33398 -6.66699 -11.001 -11s-8.16699 -9.5 -10.5 -15.5s-4.16602 -12.667 -5.49902 -20c-3.33301 -16.667 -5.83301 -42.667 -7.5 -78s-4.5 -63 -8.5 -83c-9.33301 -48.667 -39 -91.334 -89 -128.001s-96.667 -55 -140 -55c-2 0 -3 2 -3 6s1.16699 9.33301 3.5 16
s4.83301 10.334 7.5 11.001c16.667 1.33301 36 12.5 58 33.5s36 46.5 42 76.5c4.66699 23.333 7.33398 50.166 8.00098 80.499s3.66699 59.833 9 88.5c6 31.333 19.5 59.333 40.5 84s40.167 37 57.5 37c-14 0 -26.5 9.33301 -37.5 28s-16.5 41 -16.5 67
c0 25.333 9.33301 65.833 28 121.5s28 93.167 28 112.5z" />
    <glyph glyph-name="asciitilde" unicode="~" horiz-adv-x="500" 
d="M166 359c29.333 0 64.332 -8.83398 104.999 -26.501s75.334 -26.5 104.001 -26.5c11.333 0 23 2.5 35 7.5s20.833 9.5 26.5 13.5l31.5 23c2.66699 -1.33301 4 -6.33301 4 -15c0 -22 -15 -42.5 -45 -61.5s-60 -28.5 -90 -28.5c-29.333 0 -64.5 8.83301 -105.5 26.5
s-76.167 26.5 -105.5 26.5c-11.333 0 -23 -2.5 -35 -7.5s-20.833 -9.5 -26.5 -13.5l-31.5 -23c-2.66699 1.33301 -4 6.33301 -4 15c0 22.667 16.667 43.334 50 62.001s62.333 28 87 28z" />
    <glyph glyph-name="uni00A0" unicode="&#xa0;" horiz-adv-x="190" 
 />
    <glyph glyph-name="exclamdown" unicode="&#xa1;" horiz-adv-x="241" 
d="M-4 -187c0 16 15.832 77.498 47.499 184.498s54.5 181.167 68.5 222.5c4.66699 14.667 10 22 16 22c6.66699 0 12.334 -2.66699 17.001 -8s7 -12.333 7 -21c0 -15.333 -5.16699 -79.166 -15.5 -191.499s-16.833 -176.166 -19.5 -191.499
c-4 -20.667 -13 -37.167 -27 -49.5s-28.667 -18.5 -44 -18.5c-14.667 0 -26.667 4.5 -36 13.5s-14 21.5 -14 37.5zM90.999 350.998c0 24 9.33105 45.332 27.998 63.999s38.334 28 59.001 28c16 0 28.833 -5.66699 38.5 -17s14.5 -25.666 14.5 -42.999
c0 -24 -8.83301 -45 -26.5 -63s-37.5 -27 -59.5 -27c-15.333 0 -28.166 5.5 -38.499 16.5s-15.5 24.833 -15.5 41.5z" />
    <glyph glyph-name="cent" unicode="&#xa2;" horiz-adv-x="371" 
d="M292 449c48 0 85.332 -15.001 111.999 -45.001c4.66699 -14 7 -25 7 -33c0 -16.667 -4.33301 -31 -13 -43s-20 -18 -34 -18c-11.333 0 -20.666 4.33301 -27.999 13s-12.5 18.334 -15.5 29.001s-7.83301 20.334 -14.5 29.001s-15 13 -25 13c-26.667 0 -51 -24.667 -73 -74
s-33 -99.666 -33 -150.999c0 -67.333 21.333 -101 64 -101c20.667 0 40.834 7.16699 60.501 21.5s33.167 26.5 40.5 36.5c1.33301 0 4.83301 -3.33301 10.5 -10s8.5 -11.334 8.5 -14.001c-7.33301 -18.667 -28.833 -41.334 -64.5 -68.001s-69.167 -40 -100.5 -40
c-49.333 0 -85.833 14.5 -109.5 43.5s-35.5 68.5 -35.5 118.5c0 76 24.667 143.833 74 203.5s105.666 89.5 168.999 89.5z" />
    <glyph glyph-name="sterling" unicode="&#xa3;" horiz-adv-x="489" 
d="M381 642c26 0 50.168 -3.00195 72.501 -9.00195s35.833 -14.667 40.5 -26c-5.33301 -25.333 -13.833 -45.5 -25.5 -60.5s-25.5 -22.5 -41.5 -22.5c-12.667 0 -22.667 5 -30 15s-14.333 20.167 -21 30.5s-15.334 15.5 -26.001 15.5c-58 0 -95.667 -45.333 -113 -136
c-3.33301 -20 -4.33301 -49.333 -3 -88c0 -2 1 -3 3 -3h151c5.33301 0 8 -5 8 -15c0 -18 -5 -32 -15 -42h-143c-2.66699 0 -4 -1 -4 -3c0 -11.333 -2.33301 -28 -7 -50c-10 -47.333 -37.667 -98 -83 -152c16.667 10 43.667 15 81 15c18.667 0 40.167 -4.83301 64.5 -14.5
s40.5 -14.5 48.5 -14.5c4 0 8 0.333008 12 1s7.66699 1.16699 11 1.5s6.83301 1.5 10.5 3.5s6.5 3.33301 8.5 4s5 2.66699 9 6s6.66699 5.5 8 6.5s4.16602 3.66699 8.49902 8s7 6.83301 8 7.5s4 3.83398 9 9.50098s7.83301 8.83398 8.5 9.50098
c3.33301 0 6.66602 -1.33301 9.99902 -4s5 -6.33398 5 -11.001c0 -3.33301 -0.333008 -5.33301 -1 -6c-14.667 -28.667 -34.667 -56.334 -60 -83.001s-52.333 -40 -81 -40c-21.333 0 -51.5 4.83301 -90.5 14.5s-65.5 14.5 -79.5 14.5c-13.333 0 -26 -1.16699 -38 -3.5
s-20.833 -4.83301 -26.5 -7.5l-22.5 -11l-18 -9c-9.33301 2 -16.5 5.83301 -21.5 11.5s-7.5 10.834 -7.5 15.501c0 2 1.66699 4 5 6c35.333 28 61.833 56.833 79.5 86.5s29.167 68.834 34.5 117.501c0.666992 4.66699 1.83398 15.334 3.50098 32.001l3.5 35
c0 2.66699 -1.33301 4 -4 4h-72c-2 4.66699 -3 10.667 -3 18s1.83301 15.666 5.5 24.999s7.83398 14 12.501 14h59c2 0 3 1.33301 3 4c-0.666992 24 2.33301 52.333 9 85c12 60 40.333 107.5 85 142.5s98 52.5 160 52.5z" />
    <glyph glyph-name="currency" unicode="&#xa4;" horiz-adv-x="475" 
d="M259 452c-22 0 -40.666 -13.333 -55.999 -40s-25.5 -54.5 -30.5 -83.5s-7.5 -55.833 -7.5 -80.5c0 -56 18.667 -84 56 -84c22 0 40.667 13 56 39s25.666 53.5 30.999 82.5s8 56.167 8 81.5c0 56.667 -19 85 -57 85zM278.001 497c39.333 0 72.332 -11.668 98.999 -35.001
l57 48c1.33301 1.33301 2.66602 2 3.99902 2c5.33301 0 11 -5.66699 17 -17s9.33301 -22.333 10 -33l-54 -46c10 -23.333 15 -46.666 15 -69.999c0 -57.333 -21.667 -109.333 -65 -156l33 -48c0.666992 -0.666992 1 -1.66699 1 -3c0 -5.33301 -6.33301 -12.833 -19 -22.5
s-24.334 -15.834 -35.001 -18.501l-33 50c-33.333 -19.333 -68 -29 -104 -29c-40.667 0 -74.667 12.667 -102 38l-58 -49c-1.33301 -1.33301 -2.66602 -2 -3.99902 -2c-5.33301 0 -11.166 5.66699 -17.499 17s-9.83301 22.333 -10.5 33l57 48c-8.66699 21.333 -13 43 -13 65
c0 56 21.333 107.667 64 155l-35 52c-0.666992 0.666992 -1 1.66699 -1 3c0 5.33301 6.33301 12.833 19 22.5s24.334 15.834 35.001 18.501l35 -53c34 20 69 30 105 30z" />
    <glyph glyph-name="yen" unicode="&#xa5;" horiz-adv-x="627" 
d="M50 167l96.001 0.000976562l10 50h-91c-6 0 -9 5 -9 15c0 12 4 24.667 12 38h98c4 12 6 22 6 30c0 1.33301 -0.666992 6 -2 14l-68 232c-10 34 -23.667 57.333 -41 70c-11.333 8 -26.333 12 -45 12c-2 0 -3 3.33301 -3 10c0 12 2.66699 20 8 24
c10 -0.666992 23.833 -1.5 41.5 -2.5s33.834 -1.83301 48.501 -2.5s28.667 -1 42 -1c26.667 0 78 2 154 6v-5c0 -4.66699 -1 -10.667 -3 -18s-4 -11 -6 -11c-8.66699 0 -19 -2.5 -31 -7.5s-18 -12.5 -18 -22.5c0 -2.66699 2 -10 6 -22l52 -154c0.666992 -2 1.66699 -3 3 -3
c2.66699 0 5 1.66699 7 5c92 103.333 138 163.333 138 180c0 8 -7.16699 14 -21.5 18s-29.5 6 -45.5 6c-1.33301 0 -2 2 -2 6c0 14.667 2.66699 24 8 28c68 -4 110.333 -6 127 -6c14 0 27.167 0.333008 39.5 1s25.333 1.5 39 2.5l33.5 2.5c0 -22 -2.33301 -33 -7 -33
c-6 0 -19.833 -3.83301 -41.5 -11.5s-36.5 -15.5 -44.5 -23.5c-20.667 -20.667 -65 -71.5 -133 -152.5s-103.667 -130.833 -107 -149.5l-4 -22h98c5.33301 0 8 -4.66699 8 -14c0 -16.667 -5.33301 -29.667 -16 -39h-100l-9 -50h97c5.33301 0 8 -4.66699 8 -14
c0 -16.667 -5.33301 -29.667 -16 -39h-99c-3.33301 -20 -5 -38.333 -5 -55c0 -6.66699 6.33301 -13.167 19 -19.5s22 -9.5 28 -9.5c1.33301 0 2 -1.66699 2 -5c0 -12.667 -2 -22.334 -6 -29.001c-74 4 -111.333 6 -112 6c-8 0 -55 -2 -141 -6
c-0.666992 0.666992 -1 2.66699 -1 6c0 4.66699 0.666992 10.5 2 17.5s2.66602 10.5 3.99902 10.5c6.66699 0 17.5 2.66699 32.5 8s24.167 11 27.5 17c5.33301 9.33301 11.666 29 18.999 59h-89c-6 0 -9 5 -9 15c0 15.333 4 28 12 38z" />
    <glyph glyph-name="brokenbar" unicode="&#xa6;" horiz-adv-x="240" 
d="M163 752c14 12.667 33.6631 19.002 58.9961 19.002c2.66699 0 6 -0.333008 10 -1s7.33301 -2 10 -4s4 -4 4 -6l-71 -362c-6 -4.66699 -16.667 -9.33398 -32 -14.001s-28.666 -7 -39.999 -7c-3.33301 0 -6.16602 1.33301 -8.49902 4s-3.16602 5 -2.49902 7
c0.666992 17.333 24.334 138.666 71.001 363.999zM64.9961 248.002c15.333 13.333 35.3291 20 59.9961 20c4.66699 0 9.83398 -1 15.501 -3s8.16699 -4.66699 7.5 -8l-71 -363c-5.33301 -4.66699 -15.833 -9.16699 -31.5 -13.5s-29.167 -6.5 -40.5 -6.5
c-3.33301 0 -6.16602 1.33301 -8.49902 4s-3.16602 5 -2.49902 7c0.666992 16.667 24.334 137.667 71.001 363z" />
    <glyph glyph-name="section" unicode="&#xa7;" horiz-adv-x="396" 
d="M292 651c20.667 0 38.4951 -4.16699 53.4951 -12.5s24.167 -16.833 27.5 -25.5l-1 -9c0 -5.33301 -0.5 -11.166 -1.5 -17.499s-2.83301 -12.833 -5.5 -19.5s-7.16699 -12.334 -13.5 -17.001s-13.833 -7 -22.5 -7c-7.33301 0 -14.333 4.16699 -21 12.5
s-14.334 16.666 -23.001 24.999s-19 12.5 -31 12.5c-46.667 0 -70 -18.667 -70 -56c0 -16 6.33301 -30.667 19 -44s28 -25.166 46 -35.499s35.833 -21.333 53.5 -33s32.834 -26.667 45.501 -45s19 -38.833 19 -61.5c0 -31.333 -10 -64 -30 -98s-40.667 -58 -62 -72
c1.33301 -6.66699 2 -14.334 2 -23.001c0 -54.667 -17.167 -96 -51.5 -124s-73.833 -42 -118.5 -42c-21.333 0 -39.666 4 -54.999 12s-24.666 16.333 -27.999 25c0 10.667 3.83301 24.834 11.5 42.501s18.5 26.5 32.5 26.5c11.333 0 23.833 -8 37.5 -24
s27.834 -24 42.501 -24c16.667 0 32 4.33301 46 13s21 23 21 43c0 16.667 -6.16699 31.834 -18.5 45.501s-27.333 26.167 -45 37.5l-53 35.5c-17.667 12.333 -32.667 27.833 -45 46.5s-18.5 39.667 -18.5 63c0 11.333 1.33301 24.333 4 39s11.334 34.667 26.001 60
s34.334 46.333 59.001 63c-1.33301 3.33301 -2 9.66602 -2 18.999c0 52.667 17 94 51 124s73.667 45 119 45zM110.995 359c0 -19.333 6.49902 -36.334 19.499 -51.001s27.833 -26.167 44.5 -34.5s33.834 -20.166 51.501 -35.499s30.167 -33 37.5 -53
c17.333 16 26 35.667 26 59c0 18.667 -6.66699 36 -20 52s-28.5 28.833 -45.5 38.5s-34.5 22.5 -52.5 38.5s-30.333 33 -37 51c-16 -12 -24 -33.667 -24 -65z" />
    <glyph glyph-name="dieresis" unicode="&#xa8;" horiz-adv-x="386" 
d="M418 590c16.667 0 30.5 -6 41.5 -18s16.5 -26.667 16.5 -44c0 -22 -7.83301 -41.667 -23.5 -59s-33.834 -26 -54.501 -26c-16.667 0 -30.5 6 -41.5 18s-16.5 27 -16.5 45c0 22 7.83301 41.5 23.5 58.5s33.834 25.5 54.501 25.5zM198 592c16.667 0 30.5 -6 41.5 -18
s16.5 -27 16.5 -45c0 -22 -7.83301 -41.5 -23.5 -58.5s-33.834 -25.5 -54.501 -25.5c-16.667 0 -30.5 6 -41.5 18s-16.5 26.667 -16.5 44c0 22 7.83301 41.667 23.5 59s33.834 26 54.501 26z" />
    <glyph glyph-name="copyright" unicode="&#xa9;" horiz-adv-x="574" 
d="M321 481c29.333 0 58.333 -3.99805 87 -11.998c0.666992 0 1 -2.33301 1 -7c0 -30.667 -1.66699 -51 -5 -61c-0.666992 -2.66699 -3.33398 -4 -8.00098 -4c-4 0 -8 0.666992 -12 2c-0.666992 12 -6 23.667 -16 35s-27 17 -51 17c-26 0 -47.333 -15.5 -64 -46.5
s-25 -64.167 -25 -99.5c0 -50.667 19.333 -76 58 -76c23.333 0 41 5 53 15c2.66699 2 5.33398 4.33301 8.00098 7s5 5.16699 7 7.5l5.5 6.5c1.66699 2 3.16699 3.66699 4.5 5l1 2c0.666992 0 1.33398 0.166992 2.00098 0.5s1.33398 0.5 2.00098 0.5c6 0 10 -1.66699 12 -5
c-0.666992 -4.66699 -4.16699 -13.334 -10.5 -26.001s-11.833 -20.334 -16.5 -23.001c-24.667 -13.333 -55.334 -20 -92.001 -20c-29.333 0 -53.333 10.5 -72 31.5s-28 47.167 -28 78.5c0 42 15.667 81.167 47 117.5s68.666 54.5 111.999 54.5zM337 569.002
c-66.667 0 -126.834 -27.833 -180.501 -83.5s-80.5 -119.167 -80.5 -190.5c0 -52.667 16 -96.167 48 -130.5s73.333 -51.5 124 -51.5c66.667 0 126.834 28 180.501 84s80.5 119.667 80.5 191c0 52.667 -16 96 -48 130s-73.333 51 -124 51zM346 615.002
c60.667 0 110.167 -20.5 148.5 -61.5s57.5 -92.833 57.5 -155.5c0 -86 -32.167 -162.333 -96.5 -229s-136.5 -100 -216.5 -100c-60.667 0 -110 20.5 -148 61.5s-57 92.833 -57 155.5c0 86 32 162.333 96 229s136 100 216 100z" />
    <glyph glyph-name="ordfeminine" unicode="&#xaa;" horiz-adv-x="369" 
d="M239 554c14.667 0 30.835 -1.83203 48.502 -5.49902s28.5 -6.83398 32.5 -9.50098l-38 -200c-1.33301 -5.33301 -2 -10 -2 -14c0 -12 4.66699 -18 14 -18c3.33301 0 7.66602 3.16699 12.999 9.5s10 12.833 14 19.5s6.33301 10 7 10c2.66699 0 6.5 -2.16699 11.5 -6.5
s8.16699 -8.83301 9.5 -13.5c-6.66699 -16.667 -18.667 -34 -36 -52s-38 -27 -62 -27c-22.667 0 -38.334 12.667 -47.001 38c-2 10 -3 15.333 -3 16s-0.333008 1 -1 1l-1 -1c-32.667 -36 -63.667 -54 -93 -54c-46.667 0 -70 23.667 -70 71c0 44.667 23 95.167 69 151.5
s90.667 84.5 134 84.5zM213.001 512.001c-15.333 0 -34.168 -21.499 -56.501 -64.499s-33.5 -79.5 -33.5 -109.5c0 -26.667 5.33301 -40 16 -40c14.667 0 30.334 13.5 47.001 40.5s27.667 56.833 33 89.5l10 57c1.33301 9.33301 2 14.666 2 15.999c0 7.33301 -6 11 -18 11z
" />
    <glyph glyph-name="guillemotleft" unicode="&#xab;" horiz-adv-x="475" 
d="M443 423c4 -0.666992 9.66699 -3.50098 17 -8.50098s11 -10.167 11 -15.5c0 -4.66699 -28 -31.334 -84 -80.001l-82 -71l53 -71c36 -46.667 54 -72.667 54 -78c0 -6 -4.83301 -11.5 -14.5 -16.5s-17.5 -8.16699 -23.5 -9.5c-0.666992 1.33301 -6.5 7.5 -17.5 18.5
s-30.667 29.167 -59 54.5s-60.166 52.333 -95.499 81c-2.66699 0.666992 -4 4.33398 -4 11.001c0 11.333 4.33301 21.333 13 30c91.333 52.667 168.666 104.334 231.999 155.001zM258 422.999c4 -0.666992 9.66699 -3.50098 17 -8.50098s11 -10.167 11 -15.5
c0 -4.66699 -28 -31.334 -84 -80.001l-82 -71l53 -71c36 -46.667 54 -72.667 54 -78c0 -6 -4.83301 -11.5 -14.5 -16.5s-17.5 -8.16699 -23.5 -9.5c-0.666992 1.33301 -6.5 7.5 -17.5 18.5s-30.667 29.167 -59 54.5s-60.166 52.333 -95.499 81
c-2.66699 2.66699 -4 6.33398 -4 11.001c0 11.333 4.33301 21.333 13 30c91.333 52.667 168.666 104.334 231.999 155.001z" />
    <glyph glyph-name="logicalnot" unicode="&#xac;" horiz-adv-x="510" 
d="M53 427h418c7.33301 0 10.333 -3.66699 9 -11l-47 -253c-12.667 -6.66699 -30 -10 -52 -10c-4 0 -7.83301 0.833008 -11.5 2.5s-5.16699 4.16699 -4.5 7.5l36 183v2c0 5.33301 -2.66699 8 -8 8h-362l-3 10c10.667 40.667 19 61 25 61z" />
    <glyph glyph-name="registered" unicode="&#xae;" horiz-adv-x="568" 
d="M308 532c-5.33301 0 -9.33301 -1 -12 -3s-4.66699 -5.66699 -6 -11l-15 -79c-0.666992 -1.33301 -1 -3.33301 -1 -6c0 -5.33301 5.33301 -8 16 -8c14.667 0 25.667 7.33301 33 22s11 30.667 11 48c0 24.667 -8.66699 37 -26 37zM321 554
c19.333 0 37.168 -4.49805 53.501 -13.498s24.5 -23.5 24.5 -43.5c0 -18.667 -6.33301 -37 -19 -55s-26.667 -30.333 -42 -37l-2 -2c0 -0.666992 0.166992 -1 0.5 -1s0.5 -0.333008 0.5 -1c7.33301 -18.667 16 -38.334 26 -59.001c19.333 -36 37.333 -54 54 -54
c0 -5.33301 -1 -10 -3 -14c-2 -1.33301 -6 -2 -12 -2c-21.333 0 -39 4 -53 12s-23.5 15.667 -28.5 23s-11.167 18.666 -18.5 33.999c-4 8.66699 -7.66699 17 -11 25s-5.83301 14.167 -7.5 18.5s-3.16699 7.5 -4.5 9.5c-2 3.33301 -4.66699 5 -8 5
c-2.66699 0 -4.33398 -2 -5.00098 -6l-15 -75c-0.666992 -2.66699 -1 -7 -1 -13c0 -4 0.666992 -6.66699 2 -8c2 -2.66699 4.5 -4.66699 7.5 -6s5.5 -2.33301 7.5 -3h3c0.666992 0 1 -0.666992 1 -2c0 -4.66699 -1.33301 -9 -4 -13l-23 2c-14.667 1.33301 -25.667 2 -33 2
s-18.166 -0.666992 -32.499 -2s-23.5 -2 -27.5 -2v7c0 5.33301 0.666992 8 2 8c2.66699 0 7.33398 1.33301 14.001 4s10.667 5 12 7c5.33301 12 8.66602 23 9.99902 33l31 164c2.66699 18.667 4 29.667 4 33c0 2 -2.83301 4.33301 -8.5 7s-9.83398 4 -12.501 4
c-0.666992 0 -1 1.33301 -1 4c0 5.33301 1 9 3 11c24 -1.33301 44.333 -2 61 -2c8 0 17.333 0.166992 28 0.5s19.667 0.5 27 0.5zM342.002 636.002c-66.667 0 -126.834 -27.833 -180.501 -83.5s-80.5 -119.167 -80.5 -190.5c0 -52.667 16 -96.167 48 -130.5
s73.333 -51.5 124 -51.5c66.667 0 126.834 28 180.501 84s80.5 119.667 80.5 191c0 52.667 -16 96 -48 130s-73.333 51 -124 51zM351.002 682.002c60.667 0 110.167 -20.5 148.5 -61.5s57.5 -92.833 57.5 -155.5c0 -86 -32.167 -162.333 -96.5 -229s-136.5 -100 -216.5 -100
c-60.667 0 -110 20.5 -148 61.5s-57 92.833 -57 155.5c0 86 32 162.333 96 229s136 100 216 100z" />
    <glyph glyph-name="macron" unicode="&#xaf;" horiz-adv-x="354" 
d="M175 599l232.999 -0.000976562c3.33301 0 5 -4.66699 5 -14c0 -1.33301 -0.833008 -5.33301 -2.5 -12s-4.66699 -14.667 -9 -24s-9.16602 -15.666 -14.499 -18.999h-227c-4.66699 0 -7 6.33301 -7 19c0 6.66699 2.16699 15.5 6.5 26.5s9.5 18.833 15.5 23.5z" />
    <glyph glyph-name="degree" unicode="&#xb0;" horiz-adv-x="215" 
d="M223 590c-17.333 0 -31.833 -7 -43.5 -21s-17.5 -29.333 -17.5 -46c0 -12 3.33301 -21.833 10 -29.5s16.667 -11.5 30 -11.5c17.333 0 31.833 7 43.5 21s17.5 29.333 17.5 46c0 12 -3.33301 21.833 -10 29.5s-16.667 11.5 -30 11.5zM232 634c22 0 39.833 -7.5 53.5 -22.5
s20.5 -33.833 20.5 -56.5c0 -30.667 -11.833 -58 -35.5 -82s-49.5 -36 -77.5 -36c-22 0 -39.833 7.5 -53.5 22.5s-20.5 33.833 -20.5 56.5c0 31.333 11.833 58.833 35.5 82.5s49.5 35.5 77.5 35.5z" />
    <glyph glyph-name="plusminus" unicode="&#xb1;" horiz-adv-x="488" 
d="M61 111h425c2.66699 0 4 -6 4 -18c0 -18.667 -8.66699 -36.667 -26 -54h-425c-2.66699 0 -4 6 -4 18c0 18.667 8.66699 36.667 26 54zM120 420l164.999 0.00292969c2.66699 0 4 1.33301 4 4c4 19.333 9.33301 48.166 16 86.499s12.334 69.5 17.001 93.5
c1.33301 6 11.5 10.5 30.5 13.5s32.833 4.5 41.5 4.5c4 0 6.83301 -0.833008 8.5 -2.5s2.16699 -3.83398 1.5 -6.50098l-35 -188c-1.33301 -3.33301 -0.333008 -5 3 -5h173c2.66699 0 4 -6 4 -18c0 -18.667 -8.66699 -36.667 -26 -54h-166c-2.66699 0 -4 -1.33301 -4 -4
l-35 -180c-0.666992 -4.66699 -9 -8.83398 -25 -12.501s-29.667 -5.5 -41 -5.5c-5.33301 0 -9.33301 1 -12 3s-3.66699 4 -3 6l36 188c0 3.33301 -1.33301 5 -4 5h-171c-2.66699 0 -4 6 -4 18c0 18.667 8.66699 36.667 26 54z" />
    <glyph glyph-name="uni00B2" unicode="&#xb2;" horiz-adv-x="312" 
d="M208 644c25.333 0 45.501 -7.49902 60.501 -22.499s22.5 -35.167 22.5 -60.5c0 -26 -7.83301 -52.833 -23.5 -80.5s-36 -52.667 -61 -75s-45.5 -39.5 -61.5 -51.5s-31.333 -22.667 -46 -32c-1.33301 -1.33301 -2 -2.66602 -2 -3.99902s0.666992 -2 2 -2h106
c14.667 0 26.334 4.33301 35.001 13s15.167 17.334 19.5 26.001s8.5 13 12.5 13c10 0 16 -1.66699 18 -5l-48 -110l-95 1c-76 -0.666992 -115.667 -1 -119 -1c-5.33301 7.33301 -8 14.666 -8 21.999c0 3.33301 1 7.66602 3 12.999c60 53.333 105.667 102 137 146
s47 79 47 105c0 12.667 -3.16699 23.667 -9.5 33s-15.833 14 -28.5 14s-25.334 -3.83301 -38.001 -11.5s-23 -15.334 -31 -23.001s-12.333 -11.5 -13 -11.5c-2 0 -4.33301 2.83301 -7 8.5s-4 10.167 -4 13.5c0 5.33301 1 9.33301 3 12c8 13.333 24.667 28.333 50 45
s51.666 25 78.999 25z" />
    <glyph glyph-name="uni00B3" unicode="&#xb3;" horiz-adv-x="290" 
d="M109 282c27.333 0 47.334 12.334 60.001 37.001s19 48.334 19 71.001c0 33.333 -20.333 50 -61 50h-21c-2 6.66699 -2.66699 12 -2 16c0 5.33301 1.33301 10 4 14c24.667 5.33301 44.167 15.166 58.5 29.499s22.833 26.5 25.5 36.5s4 19.333 4 28
c0 10 -2.5 17.833 -7.5 23.5s-11.167 8.5 -18.5 8.5c-12 0 -26 -6.16699 -42 -18.5s-24.667 -18.5 -26 -18.5c-4 0 -8 2.83301 -12 8.5s-4.66699 9.83398 -2 12.501c13.333 16.667 32.166 31.667 56.499 45s47.166 20 68.499 20c14.667 0 28.834 -4.83301 42.501 -14.5
s20.5 -23.834 20.5 -42.501c0 -21.333 -9.16699 -43.166 -27.5 -65.499s-38.5 -39.166 -60.5 -50.499c16 0 33.667 -6 53 -18s29 -30.333 29 -55c0 -38.667 -18.167 -73.834 -54.5 -105.501s-80.833 -47.5 -133.5 -47.5c-12.667 0 -26.667 2.16699 -42 6.5
s-23 11.166 -23 20.499s3.83301 18.666 11.5 27.999s17.167 14 28.5 14c7.33301 0 15.333 -5.5 24 -16.5s18 -16.5 28 -16.5z" />
    <glyph glyph-name="acute" unicode="&#xb4;" horiz-adv-x="216" 
d="M260 687c12.667 0 23.334 -4.33203 32.001 -12.999s13 -16 13 -22c0 -16 -22.333 -41.667 -67 -77s-71.334 -53 -80.001 -53c-2 0 -4.5 2.16699 -7.5 6.5s-4.5 7.83301 -4.5 10.5c0 4.66699 10.5 25.667 31.5 63s37.833 63.666 50.5 78.999c3.33301 4 14 6 32 6z" />
    <glyph glyph-name="uni00B5" unicode="&#xb5;" horiz-adv-x="467" 
d="M184 446c6 0 16.165 -4.65918 30.498 -13.9922s20.833 -17 19.5 -23c-8.66699 -42.667 -23 -90.334 -43 -143.001l-14 -43c-7.33301 -39.333 -8.33301 -71.333 -3 -96s15.666 -37 30.999 -37c41.333 0 73.333 38 96 114l48 229c14.667 10 30 14.333 46 13
c19.333 -1.33301 34.666 -6 45.999 -14s16 -15.667 14 -23c-5.33301 -32 -22.666 -86.333 -51.999 -163l-9 -23c-10 -40.667 -14.5 -75 -13.5 -103s10.5 -42 28.5 -42c10 0 21.167 3.66699 33.5 11s21.166 14 26.499 20c2 0 4.66699 -4.33301 8 -13
c1.33301 -6.66699 1 -13.334 -1 -20.001c-10 -22 -24.333 -40.833 -43 -56.5s-36.667 -23.5 -54 -23.5c-20 0.666992 -34.833 14.167 -44.5 40.5s-13.167 56.833 -10.5 91.5c-16.667 -28.667 -30.667 -51.334 -42 -68.001s-26.166 -32.334 -44.499 -47.001
s-37.166 -22 -56.499 -22c-4 0 -7.66699 0.5 -11 1.5s-6.16602 2.83301 -8.49902 5.5l-6.5 7.5c-2 2.33301 -3.66699 5.66602 -5 9.99902l-3.5 11c-1 3 -2 7.33301 -3 13s-1.66699 9.66699 -2 12s-0.833008 6.66602 -1.5 12.999s-1 10.166 -1 11.499
c0 -2.66699 -3.16699 -16.667 -9.5 -42s-12 -50.5 -17 -75.5s-7.33301 -52.333 -7 -82s5.5 -52.167 15.5 -67.5c-4 -5.33301 -12.167 -12.666 -24.5 -21.999s-22.166 -14 -29.499 -14c-36 0 -54 33.333 -54 100c0 37.333 27.333 147.666 82 330.999
c2 9.33301 4.83301 26.166 8.5 50.499l6.5 43.5c0.666992 2 9 44.667 25 128c2.66699 4 10 8.33301 22 13s21 7 27 7z" />
    <glyph glyph-name="paragraph" unicode="&#xb6;" horiz-adv-x="434" 
d="M310 261l-38 -204c-0.666992 -4 0.333008 -7.16699 3 -9.5s6.33398 -3.5 11.001 -3.5c9.33301 0 14.666 4.66699 15.999 14c8 30 23 100.667 45 212c0.666992 2.66699 -0.333008 4 -3 4c-6 0 -14.333 -1.33301 -25 -4c-4.66699 -0.666992 -7.66699 -3.66699 -9 -9z
M318 652c18.667 0 35.667 -0.669922 51 -2.00293s32.333 -2 51 -2l114 6c2 -2.66699 1.66699 -8.66699 -1 -18s-5.33398 -14 -8.00098 -14c-8 0 -18.333 -1.66699 -31 -5s-20.667 -7.66602 -24 -12.999c-3.33301 -7.33301 -11 -42 -23 -104l-16.5 -87.5
c-7 -37 -11.167 -58.5 -12.5 -64.5c-0.666992 -3.33301 0.666016 -5 3.99902 -5l41 9c1.33301 -5.33301 1 -11.666 -1 -18.999c-2.66699 -12 -10.334 -21.667 -23.001 -29c-7.33301 -4 -16 -7.33301 -26 -10c-4 -2 -6 -3.33301 -6 -4c-5.33301 -26 -13.333 -69.333 -24 -130
s-15.667 -96.667 -15 -108c0.666992 -5.33301 6.83398 -10.333 18.501 -15s20.834 -7 27.501 -7c2 0 2.33301 -4 1 -12c-2 -11.333 -4.66699 -18.666 -8 -21.999c-11.333 0.666992 -33.166 1.83398 -65.499 3.50098s-59.833 2.5 -82.5 2.5
c-12.667 0 -25.167 -0.333008 -37.5 -1s-25.666 -1.5 -39.999 -2.5s-25.833 -1.83301 -34.5 -2.5c-0.666992 3.33301 0 9.5 2 18.5s4 13.5 6 13.5c5.33301 0 14.833 2.5 28.5 7.5s21.5 9.83301 23.5 14.5c4.66699 12 14.667 56.333 30 133l14 73
c0.666992 3.33301 -0.5 5.33301 -3.5 6s-7.5 1 -13.5 1c-52 0 -89.333 18.667 -112 56s-28.667 84.333 -18 141c12.667 65.333 40.167 113.666 82.5 144.999s86.166 47 131.499 47zM377 593.997l-53.001 -262c-0.666992 -1.33301 -0.5 -2.5 0.5 -3.5s2.83301 -1.5 5.5 -1.5
c8.66699 0 16.334 1.66699 23.001 5c4 2 6.33301 4.66699 7 8c30 156.667 46 242 48 256c0.666992 2 -0.333008 4.16699 -3 6.5s-6 3.5 -10 3.5c-10.667 0 -16.667 -4 -18 -12z" />
    <glyph glyph-name="periodcentered" unicode="&#xb7;" horiz-adv-x="189" 
d="M78 250c0 23.333 8.83398 43.833 26.501 61.5s37.167 26.5 58.5 26.5c16 0 29.167 -5.5 39.5 -16.5s15.5 -24.833 15.5 -41.5c0 -22 -8.66699 -42.833 -26 -62.5s-36.333 -29.5 -57 -29.5c-16.667 0 -30.334 6 -41.001 18s-16 26.667 -16 44z" />
    <glyph glyph-name="cedilla" unicode="&#xb8;" horiz-adv-x="30821" 
d="M201 -1l35.999 0.000976562l-22 -31c8.66699 0.666992 16 1 22 1c14 0 25.5 -4.83301 34.5 -14.5s13.5 -21.5 13.5 -35.5c0 -8 -2 -17.167 -6 -27.5s-10.333 -21.333 -19 -33s-21.834 -21.5 -39.501 -29.5s-38.167 -12 -61.5 -12c-27.333 0 -45.333 2.66699 -54 8
c-3.33301 7.33301 -5 15.666 -5 24.999c0 6.66699 2.5 12.667 7.5 18s9.83301 8 14.5 8c6 0 14 -3.5 24 -10.5s19.333 -10.5 28 -10.5c16 0 28.5 4.33301 37.5 13s13.5 18.334 13.5 29.001c0 16.667 -7 25 -21 25c-11.333 0 -22.666 -2.33301 -33.999 -7
c-1.33301 0 -4.16602 2.5 -8.49902 7.5s-5.5 8.5 -3.5 10.5l21.5 33.5c10.333 16.333 17.5 27.166 21.5 32.499z" />
    <glyph glyph-name="uni00B9" unicode="&#xb9;" horiz-adv-x="267" 
d="M60 567c114 54 172.998 81 176.998 81c2.66699 0 5.5 -2.83301 8.5 -8.5s4.5 -9.5 4.5 -11.5c-14 -30.667 -23.667 -59 -29 -85l-41 -212c-1.33301 -5.33301 -2 -12 -2 -20c0 -6 1.33301 -11.333 4 -16c2.66699 -4 9.33398 -7.33301 20.001 -10s18.667 -4 24 -4
c1.33301 0 2 -1.33301 2 -4c0 -12 -2.33301 -20.333 -7 -25c-4 0 -18.333 0.833008 -43 2.5s-41.667 2.5 -51 2.5s-28.833 -0.833008 -58.5 -2.5s-45.5 -2.5 -47.5 -2.5l-1 2v2c0 4 0.833008 9.16699 2.5 15.5s2.83398 9.5 3.50098 9.5c5.33301 0 14.333 1.66699 27 5
s20.667 7 24 11c8.66699 10 14 21 16 33l39 199c1.33301 10.667 2 16.667 2 18c0 8.66699 -2.66699 13 -8 13c-6 0 -25 -7.33301 -57 -22c-2 0.666992 -4.16699 3 -6.5 7s-3.5 8 -3.5 12c0 6 0.333008 9.33301 1 10z" />
    <glyph glyph-name="ordmasculine" unicode="&#xba;" horiz-adv-x="342" 
d="M166 284c49.333 0 74 55.333 74 166c0 44.667 -14 67 -42 67c-48.667 0 -73 -56.333 -73 -169c0 -42.667 13.667 -64 41 -64zM39 367c0 48.667 18 91.999 54 129.999s76 57 120 57c33.333 0 60.666 -11.5 81.999 -34.5s32 -51.833 32 -86.5
c0 -46 -17.5 -88.5 -52.5 -127.5s-75.5 -58.5 -121.5 -58.5c-33.333 0 -60.666 11.333 -81.999 34s-32 51.334 -32 86.001z" />
    <glyph glyph-name="guillemotright" unicode="&#xbb;" horiz-adv-x="489" 
d="M99 423c57.333 -57.333 115 -108.666 173 -153.999c2 -4 3 -8.33301 3 -13c0 -14.667 -4.33301 -24 -13 -28c-46.667 -28.667 -88.834 -55.667 -126.501 -81s-64.167 -43.666 -79.5 -54.999s-23.333 -17.666 -24 -18.999c-4 0.666992 -9.66699 3.5 -17 8.5
s-11 10.167 -11 15.5c0 3.33301 3.83301 8.66602 11.5 15.999s31.834 28.666 72.501 63.999l81 71l-54 71c-35.333 45.333 -53 71 -53 77s4.83301 11.667 14.5 17s17.167 8.66602 22.5 9.99902zM284 423c57.333 -57.333 115 -108.667 173 -154
c2.66699 -5.33301 4 -9.66602 4 -12.999c0 -14.667 -4.66699 -24 -14 -28c-46.667 -28.667 -88.834 -55.667 -126.501 -81s-64.167 -43.666 -79.5 -54.999s-23.333 -17.666 -24 -18.999c-4 0.666992 -9.66699 3.5 -17 8.5s-11 10.167 -11 15.5
c0 3.33301 3.83301 8.66602 11.5 15.999s31.834 28.666 72.501 63.999l81 71l-54 71c-35.333 45.333 -53 71 -53 77s4.83301 11.667 14.5 17s17.167 8.66602 22.5 9.99902z" />
    <glyph glyph-name="onequarter" unicode="&#xbc;" horiz-adv-x="632" 
d="M49 567c114 54 172.998 80.999 176.998 80.999c2.66699 0 5.5 -2.83301 8.5 -8.5s4.5 -9.5 4.5 -11.5c-14 -30.667 -23.667 -59 -29 -85l-41 -212c-1.33301 -5.33301 -2 -12 -2 -20c0 -6 1.33301 -11.333 4 -16c2.66699 -4 9.33398 -7.33301 20.001 -10s18.667 -4 24 -4
c1.33301 0 2 -1.33301 2 -4c0 -12 -2.33301 -20.333 -7 -25c-4 0 -18.333 0.833008 -43 2.5s-41.667 2.5 -51 2.5s-28.833 -0.833008 -58.5 -2.5s-45.5 -2.5 -47.5 -2.5v2c-0.666992 0.666992 -1 1.33398 -1 2.00098c0 4 0.833008 9.16699 2.5 15.5s2.83398 9.5 3.50098 9.5
c5.33301 0 14.333 1.66699 27 5s20.667 7 24 11c8.66699 10 14 21 16 33l39 199c1.33301 10.667 2 16.667 2 18c0 8.66699 -2.66699 13 -8 13c-6 0 -25 -7.33301 -57 -22c-2 0.666992 -4.16699 3 -6.5 7s-3.5 8 -3.5 12c0 6 0.333008 9.33301 1 10zM586.998 615.999
l-445.001 -629.001c-5.33301 -0.666992 -12.666 1 -21.999 5s-14 8.66699 -14 14c0 2.66699 0.666992 4.66699 2 6l443 632c4.66699 1.33301 12 -0.666992 22 -6s15 -10.666 15 -15.999c0 -3.33301 -0.333008 -5.33301 -1 -6zM568.997 387.998c6 6 12.3311 9 18.998 9
c3.33301 0 6 -0.166992 8 -0.5s3.83301 -1 5.5 -2s2.5 -2.16699 2.5 -3.5l-45 -231v-1c0 -2 1.33301 -3 4 -3h19c4 0 6 -5.33301 6 -16c0 -16 -4.33301 -29.333 -13 -40h-24c-1.33301 0 -2.66602 -1.66699 -3.99902 -5l-19 -93c-14.667 -3.33301 -29.334 -5 -44.001 -5
c-4 0 -8 0.166992 -12 0.5s-7.66699 0.666016 -11 0.999023s-6.16602 0.666016 -8.49902 0.999023s-4.16602 0.833008 -5.49902 1.5s-2 1.33398 -2 2.00098l19 93v1c0 2 -1.66699 3 -5 3h-145c-4.66699 2.66699 -5.66699 10.334 -3 23.001zM395.995 155.998l74 0.000976562
c3.33301 0 5.33301 1.33301 6 4l20 101c0 4 -0.333008 6 -1 6l-2 -1l-99 -102c-0.666992 -0.666992 -1 -1.33398 -1 -2.00098c0 -4 1 -6 3 -6z" />
    <glyph glyph-name="onehalf" unicode="&#xbd;" horiz-adv-x="667" 
d="M569 616l-445.001 -629.001c-5.33301 -0.666992 -12.666 1 -21.999 5s-14 8.66699 -14 14c0 2.66699 0.666992 4.66699 2 6l443 632c4.66699 1.33301 12 -0.666992 22 -6s15 -10.666 15 -15.999c0 -3.33301 -0.333008 -5.33301 -1 -6zM505.999 331.999
c-12.667 0 -25.332 -3.83008 -37.999 -11.4971s-23 -15.334 -31 -23.001s-12.333 -11.5 -13 -11.5c-3.33301 0 -6.16602 3.16699 -8.49902 9.5s-3.16602 11.166 -2.49902 14.499c0.666992 2 1.33398 4.33301 2.00098 7l1 3c10 14 27.167 29.167 51.5 45.5
s50.166 24.5 77.499 24.5c30 0 52.5 -10.167 67.5 -30.5s19.167 -46.833 12.5 -79.5c-7.33301 -38 -30 -76.167 -68 -114.5s-78.333 -70.833 -121 -97.5c-4 -4 -4 -6 0 -6h106c6.66699 0 12.667 0.666992 18 2s10.166 4.16602 14.499 8.49902s7.5 7.66602 9.5 9.99902
s5.16699 7 9.5 14s7.16602 11.5 8.49902 13.5c2 2.66699 4.33301 4 7 4c10 0 16 -1.66699 18 -5l-48 -110l-95 1c-76 -0.666992 -115.667 -1 -119 -1c-8.66699 10.667 -10.334 22.334 -5.00098 35.001c110 98 171 178 183 240c2.66699 14 1 27.167 -5 39.5
s-16.667 18.5 -32 18.5zM70.001 543.002c-2 0.666992 -4.33105 3.16699 -6.99805 7.5s-3.66699 8.5 -3 12.5c0 4.66699 0.666992 7.66699 2 9c106.667 50.667 161 76 163 76h1c2 0 4.5 -2.83301 7.5 -8.5s4.5 -9.5 4.5 -11.5c-14 -30.667 -23.667 -59 -29 -85l-41 -212
c-3.33301 -16.667 -2.66602 -28.667 2.00098 -36c2.66699 -4 9.33398 -7.33301 20.001 -10s18.667 -4 24 -4c0.666992 0 1.16699 -2 1.5 -6s0.166016 -7 -0.500977 -9c-2.66699 -8 -4.66699 -12.667 -6 -14c-4 0 -18.5 0.833008 -43.5 2.5s-42.167 2.5 -51.5 2.5
s-28.833 -0.833008 -58.5 -2.5s-45.5 -2.5 -47.5 -2.5c-1.33301 1.33301 -1 6.5 1 15.5s3.66699 13.5 5 13.5c5.33301 0 14.166 1.66699 26.499 5s20.166 7 23.499 11c9.33301 11.333 15 22.333 17 33l39 199c4 20.667 2 31 -6 31c-4.66699 0 -19.334 -5.66699 -44.001 -17z
" />
    <glyph glyph-name="threequarters" unicode="&#xbe;" horiz-adv-x="628" 
d="M584 616l-445.001 -629.001c-5.33301 -0.666992 -12.666 1 -21.999 5s-14 8.66699 -14 14c0 2.66699 0.666992 4.66699 2 6l443 632c4.66699 1.33301 12 -0.666992 22 -6s15 -10.666 15 -15.999c0 -3.33301 -0.333008 -5.33301 -1 -6zM203.999 644.999
c17.333 0 33.333 -5.99707 48 -17.9971s19.667 -29.667 15 -53c-4.66699 -22 -16.167 -42.333 -34.5 -61s-35.833 -32.334 -52.5 -41.001c18.667 0 38 -7.33301 58 -22s27 -37.334 21 -68.001c-8.66699 -43.333 -31.334 -76.833 -68.001 -100.5s-75.667 -35.5 -117 -35.5
c-30.667 0 -52 6.66699 -64 20c-1.33301 4 -1.33301 10 0 18c1.33301 8.66699 6.16602 16 14.499 22s16.166 9 23.499 9s15.333 -5.5 24 -16.5s18 -16.5 28 -16.5c18.667 0 34.834 7 48.501 21s23.167 34.667 28.5 62s2.83301 46.666 -7.5 57.999s-27.5 17 -51.5 17h-21
c-2 6.66699 -2.66699 12 -2 16c0 4 1.66699 8.66699 5 14c49.333 11.333 78.333 39.333 87 84c2 13.333 0.333008 23.666 -5 30.999s-12.333 11 -21 11c-12 0 -25.667 -6.16699 -41 -18.5s-23.666 -18.5 -24.999 -18.5c-4 0 -8.16699 2.83301 -12.5 8.5
s-5.16602 9.83398 -2.49902 12.501c13.333 16.667 32 31.667 56 45s46.667 20 68 20zM480.999 -2.99805c-4 0 -8.00098 0.166016 -12.001 0.499023s-7.66699 0.666016 -11 0.999023s-6.16602 0.666016 -8.49902 0.999023s-4.16602 0.833008 -5.49902 1.5
s-2 1.33398 -2 2.00098l18 94c0 2 -1.66699 3 -5 3h-145c-4.66699 2.66699 -5.66699 10.334 -3 23.001l258 265c6.66699 6.66699 13.667 10 21 10c4.66699 0 8.33398 -0.5 11.001 -1.5s3.66699 -2.83301 3 -5.5l-45 -233c-0.666992 -1.33301 -0.666992 -2.16602 0 -2.49902
s2.33398 -0.833008 5.00098 -1.5h18c3.33301 -2 4.66602 -6.83301 3.99902 -14.5s-2.33398 -19.5 -5.00098 -35.5l-7 -6h-23c-2 0 -3.66699 -1.66699 -5 -5l-17 -91c-14.667 -3.33301 -29.334 -5 -44.001 -5zM492.998 267.001l-3 -0.999023l-99 -102
c-0.666992 -0.666992 -1 -1.33398 -1 -2.00098c0 -4 1 -6 3 -6h73c4.66699 2 7 3.33301 7 4l19 101c0 4 0.333008 6 1 6z" />
    <glyph glyph-name="questiondown" unicode="&#xbf;" horiz-adv-x="346" 
d="M332 388c0 -23.333 -8.66602 -43.833 -25.999 -61.5s-36.333 -26.5 -57 -26.5c-16.667 0 -30.334 5.33301 -41.001 16s-16 24.667 -16 42c0 23.333 8.5 44.5 25.5 63.5s35.833 28.5 56.5 28.5c15.333 0 28.833 -5.83301 40.5 -17.5s17.5 -26.5 17.5 -44.5zM159.001 224
c0 8 4.33301 14.6699 13 20.0029c16 0 39.333 -11.333 70 -34s46 -46.334 46 -71.001c0 -27.333 -7 -49.5 -21 -66.5s-29.667 -29.5 -47 -37.5l-101 -45c-34.667 -15.333 -52 -37.333 -52 -66c0 -34.667 16.333 -52 49 -52c10 0 22.5 7.5 37.5 22.5s27.5 22.5 37.5 22.5
c22 0 36.833 -9.83301 44.5 -29.5s7.16699 -38.834 -1.5 -57.501c-20 -24.667 -47.667 -37 -83 -37c-43.333 0 -81 13.667 -113 41s-48 62.333 -48 105c0 27.333 7.33301 54.166 22 80.499s32.667 45.166 54 56.499c30 16.667 64.333 33.667 103 51
c26 10.667 39 24.334 39 41.001c0 11.333 -8.16699 23 -24.5 35s-24.5 19 -24.5 21z" />
    <glyph glyph-name="Agrave" unicode="&#xc0;" horiz-adv-x="634" 
d="M466 715c-13.333 0 -49.833 10.333 -109.5 31s-89.5 37 -89.5 49c0 13.333 7.66699 23 23 29s31 9 47 9c12 0 22.667 -2.66699 32 -8c14 -8 30 -19 48 -33s33 -26.667 45 -38s18 -18 18 -20c0 -3.33301 -1.5 -7.33301 -4.5 -12s-6.16699 -7 -9.5 -7zM303 213
c-34.667 0 -63.001 -0.333984 -85.001 -1.00098c-2 0 -5.16699 -0.666992 -9.5 -2s-6.83301 -2.33301 -7.5 -3l-45 -76c-22 -32.667 -33 -54.667 -33 -66s8.5 -20 25.5 -26s30.167 -9 39.5 -9c1.33301 0 2 -1.33301 2 -4c0 -13.333 -1.66699 -23.333 -5 -30
c-8 0.666992 -22.667 2 -44 4s-40 3 -56 3c-16.667 0 -38.167 -1 -64.5 -3l-53.5 -4c-0.666992 1.33301 -1 4 -1 8c0 17.333 1.66699 26 5 26c6.66699 0 21 4.83301 43 14.5s36 18.5 42 26.5c6 8.66699 19 29.667 39 63l272 452c0.666992 1.33301 4 7 10 17
s10.667 17.5 14 22.5s7.83301 11.333 13.5 19s10.834 13.334 15.501 17.001s9 5.5 13 5.5c6 0 10 -2.66699 12 -8l105 -518c2.66699 -17.333 7.33398 -42.333 14.001 -75c2 -10.667 10.667 -19.334 26 -26.001s26.666 -10 33.999 -10c1.33301 0 2 -1.66699 2 -5
c0 -13.333 -2.33301 -23 -7 -29c-2 0 -18.833 1.16699 -50.5 3.5s-55.5 3.5 -71.5 3.5c-12.667 0 -58.667 -2.33301 -138 -7c-0.666992 0.666992 -1 3 -1 7c0 18 2.66699 27 8 27s14 2.83301 26 8.5s20.333 11.167 25 16.5c3.33301 4.66699 5 9.33398 5 14.001
c0 6 -7.33301 52 -22 138c0 2.66699 -2 4 -6 4c-24 1.33301 -54.333 2 -91 2zM314.999 272.999c25.333 0 47.668 0.666992 67.001 2c2.66699 0 4 1.66699 4 5l-32 178l-108 -178c-0.666992 -0.666992 -0.833984 -1.5 -0.500977 -2.5s0.833008 -1.5 1.5 -1.5
c18 -2 40.667 -3 68 -3z" />
    <glyph glyph-name="Aacute" unicode="&#xc1;" horiz-adv-x="634" 
d="M427 715c-3.33301 0 -6.5 2.33301 -9.5 7s-4.5 8.66699 -4.5 12c0 2 6 8.66699 18 20s27 24 45 38s34 25 48 33c9.33301 5.33301 20 8 32 8c16 0 31.667 -3 47 -9s23 -15.667 23 -29c0 -12 -29.833 -28.333 -89.5 -49s-96.167 -31 -109.5 -31zM303 213
c-34.667 0 -63.001 -0.333984 -85.001 -1.00098c-2 0 -5.16699 -0.666992 -9.5 -2s-6.83301 -2.33301 -7.5 -3l-45 -76c-22 -32.667 -33 -54.667 -33 -66s8.5 -20 25.5 -26s30.167 -9 39.5 -9c1.33301 0 2 -1.33301 2 -4c0 -13.333 -1.66699 -23.333 -5 -30
c-8 0.666992 -22.667 2 -44 4s-40 3 -56 3c-16.667 0 -38.167 -1 -64.5 -3l-53.5 -4c-0.666992 1.33301 -1 4 -1 8c0 17.333 1.66699 26 5 26c6.66699 0 21 4.83301 43 14.5s36 18.5 42 26.5c6 8.66699 19 29.667 39 63l272 452c0.666992 1.33301 4 7 10 17
s10.667 17.5 14 22.5s7.83301 11.333 13.5 19s10.834 13.334 15.501 17.001s9 5.5 13 5.5c6 0 10 -2.66699 12 -8l105 -518c2.66699 -17.333 7.33398 -42.333 14.001 -75c2 -10.667 10.667 -19.334 26 -26.001s26.666 -10 33.999 -10c1.33301 0 2 -1.66699 2 -5
c0 -13.333 -2.33301 -23 -7 -29c-2 0 -18.833 1.16699 -50.5 3.5s-55.5 3.5 -71.5 3.5c-12.667 0 -58.667 -2.33301 -138 -7c-0.666992 0.666992 -1 3 -1 7c0 18 2.66699 27 8 27s14 2.83301 26 8.5s20.333 11.167 25 16.5c3.33301 4.66699 5 9.33398 5 14.001
c0 6 -7.33301 52 -22 138c0 2.66699 -2 4 -6 4c-24 1.33301 -54.333 2 -91 2zM314.999 272.999c25.333 0 47.668 0.666992 67.001 2c2.66699 0 4 1.66699 4 5l-32 178l-108 -178c-0.666992 -0.666992 -0.833984 -1.5 -0.500977 -2.5s0.833008 -1.5 1.5 -1.5
c18 -2 40.667 -3 68 -3z" />
    <glyph glyph-name="Acircumflex" unicode="&#xc2;" horiz-adv-x="634" 
d="M585 728c-5.33301 0 -21.5 7.49902 -48.5 22.499s-48.167 28.167 -63.5 39.5c-20.667 -11.333 -47.667 -24.5 -81 -39.5s-52.666 -22.5 -57.999 -22.5c-8 0 -10.333 6.33301 -7 19c21.333 12.667 52 34.334 92 65.001c23.333 18.667 41.666 34.667 54.999 48
c6.66699 6 12 9 16 9c2.66699 0 7 -3 13 -9l13.5 -18l19.5 -26c26.667 -32 48 -55 64 -69c-3.33301 -12.667 -8.33301 -19 -15 -19zM303 212.999c-34.667 0 -63.001 -0.333984 -85.001 -1.00098c-2 0 -5.16699 -0.666992 -9.5 -2s-6.83301 -2.33301 -7.5 -3l-45 -76
c-22 -32.667 -33 -54.667 -33 -66s8.5 -20 25.5 -26s30.167 -9 39.5 -9c1.33301 0 2 -1.33301 2 -4c0 -13.333 -1.66699 -23.333 -5 -30c-8 0.666992 -22.667 2 -44 4s-40 3 -56 3c-16.667 0 -38.167 -1 -64.5 -3l-53.5 -4c-0.666992 1.33301 -1 4 -1 8
c0 17.333 1.66699 26 5 26c6.66699 0 21 4.83301 43 14.5s36 18.5 42 26.5c6 8.66699 19 29.667 39 63l272 452c0.666992 1.33301 4 7 10 17s10.667 17.5 14 22.5s7.83301 11.333 13.5 19s10.834 13.334 15.501 17.001s9 5.5 13 5.5c6 0 10 -2.66699 12 -8l105 -518
c2.66699 -17.333 7.33398 -42.333 14.001 -75c2 -10.667 10.667 -19.334 26 -26.001s26.666 -10 33.999 -10c1.33301 0 2 -1.66699 2 -5c0 -13.333 -2.33301 -23 -7 -29c-2 0 -18.833 1.16699 -50.5 3.5s-55.5 3.5 -71.5 3.5c-12.667 0 -58.667 -2.33301 -138 -7
c-0.666992 0.666992 -1 3 -1 7c0 18 2.66699 27 8 27s14 2.83301 26 8.5s20.333 11.167 25 16.5c3.33301 4.66699 5 9.33398 5 14.001c0 6 -7.33301 52 -22 138c0 2.66699 -2 4 -6 4c-24 1.33301 -54.333 2 -91 2zM314.999 272.998c25.333 0 47.668 0.666992 67.001 2
c2.66699 0 4 1.66699 4 5l-32 178l-108 -178c-0.666992 -0.666992 -0.833984 -1.5 -0.500977 -2.5s0.833008 -1.5 1.5 -1.5c18 -2 40.667 -3 68 -3z" />
    <glyph glyph-name="Atilde" unicode="&#xc3;" horiz-adv-x="634" 
d="M279 739c-4.66699 0 -5.66309 7.33301 -2.99609 22c3.33301 17.333 12 34 26 50c30 34 60.667 51 92 51c24 0 51.667 -11.333 83 -34s58.666 -34 81.999 -34c12 0 27.167 9.5 45.5 28.5s29.166 28.5 32.499 28.5c5.33301 0 6.66602 -7.33301 3.99902 -22
c-3.33301 -16.667 -12.333 -33.667 -27 -51c-28 -33.333 -58 -50 -90 -50c-24 0 -51.5 11.333 -82.5 34s-58.5 34 -82.5 34c-11.333 0 -26.833 -9.5 -46.5 -28.5s-30.834 -28.5 -33.501 -28.5zM303.004 213c-34.667 0 -63.001 -0.333984 -85.001 -1.00098
c-2 0 -5.16699 -0.666992 -9.5 -2s-6.83301 -2.33301 -7.5 -3l-45 -76c-22 -32.667 -33 -54.667 -33 -66s8.5 -20 25.5 -26s30.167 -9 39.5 -9c1.33301 0 2 -1.33301 2 -4c0 -13.333 -1.66699 -23.333 -5 -30c-8 0.666992 -22.667 2 -44 4s-40 3 -56 3
c-16.667 0 -38.167 -1 -64.5 -3l-53.5 -4c-0.666992 1.33301 -1 4 -1 8c0 17.333 1.66699 26 5 26c6.66699 0 21 4.83301 43 14.5s36 18.5 42 26.5c6 8.66699 19 29.667 39 63l272 452c0.666992 1.33301 4 7 10 17s10.667 17.5 14 22.5s7.83301 11.333 13.5 19
s10.834 13.334 15.501 17.001s9 5.5 13 5.5c6 0 10 -2.66699 12 -8l105 -518c2.66699 -17.333 7.33398 -42.333 14.001 -75c2 -10.667 10.667 -19.334 26 -26.001s26.666 -10 33.999 -10c1.33301 0 2 -1.66699 2 -5c0 -13.333 -2.33301 -23 -7 -29
c-2 0 -18.833 1.16699 -50.5 3.5s-55.5 3.5 -71.5 3.5c-12.667 0 -58.667 -2.33301 -138 -7c-0.666992 0.666992 -1 3 -1 7c0 18 2.66699 27 8 27s14 2.83301 26 8.5s20.333 11.167 25 16.5c3.33301 4.66699 5 9.33398 5 14.001c0 6 -7.33301 52 -22 138
c0 2.66699 -2 4 -6 4c-24 1.33301 -54.333 2 -91 2zM315.003 272.999c25.333 0 47.668 0.666992 67.001 2c2.66699 0 4 1.66699 4 5l-32 178l-108 -178c-0.666992 -0.666992 -0.833984 -1.5 -0.500977 -2.5s0.833008 -1.5 1.5 -1.5c18 -2 40.667 -3 68 -3z" />
    <glyph glyph-name="Adieresis" unicode="&#xc4;" horiz-adv-x="634" 
d="M497 802c4 20.667 14.167 38.167 30.5 52.5s33.833 21.5 52.5 21.5c19.333 0 34.333 -7.16699 45 -21.5s14 -31.833 10 -52.5s-14.167 -38.167 -30.5 -52.5s-33.833 -21.5 -52.5 -21.5c-19.333 0 -34.333 7.16699 -45 21.5s-14 31.833 -10 52.5zM283 802
c4 20.667 14.167 38.167 30.5 52.5s33.833 21.5 52.5 21.5c19.333 0 34.333 -7.16699 45 -21.5s14 -31.833 10 -52.5s-14.167 -38.167 -30.5 -52.5s-33.833 -21.5 -52.5 -21.5c-19.333 0 -34.333 7.16699 -45 21.5s-14 31.833 -10 52.5zM303 213
c-34.667 0 -63.001 -0.333984 -85.001 -1.00098c-2 0 -5.16699 -0.666992 -9.5 -2s-6.83301 -2.33301 -7.5 -3l-45 -76c-22 -32.667 -33 -54.667 -33 -66s8.5 -20 25.5 -26s30.167 -9 39.5 -9c1.33301 0 2 -1.33301 2 -4c0 -13.333 -1.66699 -23.333 -5 -30
c-8 0.666992 -22.667 2 -44 4s-40 3 -56 3c-16.667 0 -38.167 -1 -64.5 -3l-53.5 -4c-0.666992 1.33301 -1 4 -1 8c0 17.333 1.66699 26 5 26c6.66699 0 21 4.83301 43 14.5s36 18.5 42 26.5c6 8.66699 19 29.667 39 63l272 452c0.666992 1.33301 4 7 10 17
s10.667 17.5 14 22.5s7.83301 11.333 13.5 19s10.834 13.334 15.501 17.001s9 5.5 13 5.5c6 0 10 -2.66699 12 -8l105 -518c2.66699 -17.333 7.33398 -42.333 14.001 -75c2 -10.667 10.667 -19.334 26 -26.001s26.666 -10 33.999 -10c1.33301 0 2 -1.66699 2 -5
c0 -13.333 -2.33301 -23 -7 -29c-2 0 -18.833 1.16699 -50.5 3.5s-55.5 3.5 -71.5 3.5c-12.667 0 -58.667 -2.33301 -138 -7c-0.666992 0.666992 -1 3 -1 7c0 18 2.66699 27 8 27s14 2.83301 26 8.5s20.333 11.167 25 16.5c3.33301 4.66699 5 9.33398 5 14.001
c0 6 -7.33301 52 -22 138c0 2.66699 -2 4 -6 4c-24 1.33301 -54.333 2 -91 2zM314.999 272.999c25.333 0 47.668 0.666992 67.001 2c2.66699 0 4 1.66699 4 5l-32 178l-108 -178c-0.666992 -0.666992 -0.833984 -1.5 -0.500977 -2.5s0.833008 -1.5 1.5 -1.5
c18 -2 40.667 -3 68 -3z" />
    <glyph glyph-name="Aring" unicode="&#xc5;" horiz-adv-x="634" 
d="M403 759c-3.33301 -15.333 -1.16602 -28.166 6.50098 -38.499s18.5 -15.5 32.5 -15.5s26.667 5.16699 38 15.5s18.666 23.166 21.999 38.499s1.16602 28.166 -6.50098 38.499s-18.5 15.5 -32.5 15.5s-26.667 -5.16699 -38 -15.5s-18.666 -23.166 -21.999 -38.499z
M360 759c4.66699 26.667 18.002 49.6689 40.002 69.002s45.667 29 71 29s45 -9.66699 59 -29s18.667 -42.333 14 -69s-18 -49.834 -40 -69.501s-45.667 -29.5 -71 -29.5c-24.667 0 -44.334 9.66699 -59.001 29s-19.334 42.666 -14.001 69.999zM303.002 213.002
c-34.667 0 -63.001 -0.333984 -85.001 -1.00098c-2 0 -5.16699 -0.666992 -9.5 -2s-6.83301 -2.33301 -7.5 -3l-45 -76c-22 -32.667 -33 -54.667 -33 -66s8.5 -20 25.5 -26s30.167 -9 39.5 -9c1.33301 0 2 -1.33301 2 -4c0 -13.333 -1.66699 -23.333 -5 -30
c-8 0.666992 -22.667 2 -44 4s-40 3 -56 3c-16.667 0 -38.167 -1 -64.5 -3l-53.5 -4c-0.666992 1.33301 -1 4 -1 8c0 17.333 1.66699 26 5 26c6.66699 0 21 4.83301 43 14.5s36 18.5 42 26.5c6 8.66699 19 29.667 39 63l272 452c0.666992 1.33301 4 7 10 17
s10.667 17.5 14 22.5s7.83301 11.333 13.5 19s10.834 13.334 15.501 17.001s9 5.5 13 5.5c6 0 10 -2.66699 12 -8l105 -518c2.66699 -17.333 7.33398 -42.333 14.001 -75c2 -10.667 10.667 -19.334 26 -26.001s26.666 -10 33.999 -10c1.33301 0 2 -1.66699 2 -5
c0 -13.333 -2.33301 -23 -7 -29c-2 0 -18.833 1.16699 -50.5 3.5s-55.5 3.5 -71.5 3.5c-12.667 0 -58.667 -2.33301 -138 -7c-0.666992 0.666992 -1 3 -1 7c0 18 2.66699 27 8 27s14 2.83301 26 8.5s20.333 11.167 25 16.5c3.33301 4.66699 5 9.33398 5 14.001
c0 6 -7.33301 52 -22 138c0 2.66699 -2 4 -6 4c-24 1.33301 -54.333 2 -91 2zM315.001 273.001c25.333 0 47.668 0.666992 67.001 2c2.66699 0 4 1.66699 4 5l-32 178l-108 -178c-0.666992 -0.666992 -0.833984 -1.5 -0.500977 -2.5s0.833008 -1.5 1.5 -1.5
c18 -2 40.667 -3 68 -3z" />
    <glyph glyph-name="AE" unicode="&#xc6;" horiz-adv-x="931" 
d="M591 657c27.333 0 79.5029 1.16895 156.503 3.50195s132.833 3.5 167.5 3.5c-2.66699 -58.667 -4 -108 -4 -148c-3.33301 -3.33301 -10.666 -5 -21.999 -5c-7.33301 0 -11.333 2.33301 -12 7c-4 28 -17.167 50.333 -39.5 67s-46.5 25 -72.5 25h-51
c-39.333 0 -60 -4.33301 -62 -13c-6 -18 -10.333 -44 -13 -78l-16 -151v-1c0 -5.33301 13.333 -8 40 -8h49c29.333 0 47 2 53 6c8.66699 6 18.334 24.667 29.001 56c2 4.66699 7.33301 7 16 7c10.667 0 17 -1.66699 19 -5l-19 -189
c-2.66699 -2.66699 -9.33398 -4 -20.001 -4c-8 0 -12.667 2.66699 -14 8c-1.33301 9.33301 -2.66602 17.333 -3.99902 24l-3 15c-0.666992 3.33301 -1.66699 6.33301 -3 9s-2.33301 4.33398 -3 5.00098s-1.83398 1.66699 -3.50098 3s-2.83398 2 -3.50098 2
c-7.33301 5.33301 -31.333 8 -72 8c-44.667 0 -67.334 -3 -68.001 -9l-16 -154c-3.33301 -31.333 -3.33301 -55 0 -71c2 -10.667 22.667 -16 62 -16h25c40.667 0 79 9.33301 115 28c10.667 5.33301 23 16.166 37 32.499s26 34.833 36 55.5c2 4 6.66699 6 14 6
c15.333 0 24.333 -2 27 -6c-44.667 -100 -69.334 -157.333 -74.001 -172c-34.667 0 -89.334 0.666992 -164.001 2s-125.667 2 -153 2l-131 -6c-2 4.66699 -2.66699 10.334 -2 17.001c1.33301 12.667 3.33301 19 6 19c6.66699 0 16.667 2.5 30 7.5s21 10.167 23 15.5
c2.66699 8.66699 6.66699 35 12 79c2 15.333 4 39.666 6 72.999c0.666992 2.66699 -1.33301 4 -6 4c-22.667 1.33301 -51 2 -85 2c-40.667 0 -72 -0.333008 -94 -1c-2.66699 0 -5.66699 -1.66699 -9 -5l-68 -76c-2.66699 -3.33301 -7.16699 -8.5 -13.5 -15.5
s-11.166 -12.5 -14.499 -16.5s-7 -8.66699 -11 -14s-7 -10 -9 -14s-3 -7.66699 -3 -11c0 -8.66699 4.33301 -14.667 13 -18c20.667 -8 38 -12 52 -12c1.33301 0 2 -1.33301 2 -4c0 -6.66699 -2.66699 -16.667 -8 -30c-5.33301 0 -19.333 1 -42 3s-42 3 -58 3
c-12.667 0 -25.834 -0.333008 -39.501 -1s-28.834 -1.5 -45.501 -2.5s-30 -1.83301 -40 -2.5c-0.666992 1.33301 -1 5.33301 -1 12c0 3.33301 0.833008 7.66602 2.5 12.999s2.83398 8 3.50098 8c8.66699 0 21.834 3.33301 39.501 10s32.167 16 43.5 28l59 67l314 360
c47.333 53.333 72.666 88 75.999 104c1.33301 8 0 14.167 -4 18.5s-7.5 6.66602 -10.5 6.99902s-6.83301 0.5 -11.5 0.5s-7 3.33301 -7 10c0 4 0.833008 9.33301 2.5 16s2.83398 10 3.50098 10l10 -1c7.33301 -0.666992 18.166 -1.16699 32.499 -1.5s30.5 -0.5 48.5 -0.5z
M503.003 469.002l-165.001 -188.998c-0.666992 -0.666992 -1.16699 -1.33398 -1.5 -2.00098s-0.166016 -1.33398 0.500977 -2.00098c16.667 -2 40 -3 70 -3c26 0 49 0.666992 69 2c2 0 3.66699 1.66699 5 5z" />
    <glyph glyph-name="Ccedilla" unicode="&#xc7;" horiz-adv-x="587" 
d="M215 -32c8.66699 0.666992 15.333 0.998047 20 0.998047c16 0 28.833 -6.16699 38.5 -18.5s12.834 -26.166 9.50098 -41.499c-5.33301 -28 -19 -50.333 -41 -67s-49.667 -25 -83 -25c-23.333 0 -39.666 6.33301 -48.999 19c0 6.66699 0.666992 13.334 2 20.001
c2.66699 10.667 6 16 10 16c0.666992 0 7.16699 -2.83301 19.5 -8.5s23.166 -8.5 32.499 -8.5c28.667 0 45 11.333 49 34c4 22 -2.66699 33 -20 33c-11.333 0 -22.666 -2.33301 -33.999 -7c-1.33301 0 -3.83301 2.66699 -7.5 8s-4.83398 9 -3.50098 11
c5.33301 6.66699 13.166 18.167 23.499 34.5l19.5 30.5h34zM390.999 666.998c68 0 137.003 -9.66699 207.003 -29c0 -8 -1.5 -33.5 -4.5 -76.5s-4.83301 -66.833 -5.5 -71.5c-1.33301 -4.66699 -4.83301 -8.33398 -10.5 -11.001s-11.5 -4 -17.5 -4c-1.33301 0 -6 1 -14 3
c-0.666992 9.33301 -2.33398 19 -5.00098 29s-7.66699 21.5 -15 34.5s-16.666 24.333 -27.999 34s-26.833 18 -46.5 25s-41.834 10.5 -66.501 10.5c-42.667 0 -81.667 -16.667 -117 -50s-62.833 -77.833 -82.5 -133.5s-29.5 -115.834 -29.5 -180.501
c0 -60 12.5 -108.333 37.5 -145s62.167 -55 111.5 -55c28 0 55.667 3.33301 83 10s48.666 15.334 63.999 26.001c11.333 8 22 19.167 32 33.5s17.5 26.5 22.5 36.5s7.83301 15 8.5 15c17.333 0 27 -4.33301 29 -13c-2 -9.33301 -7.83301 -29 -17.5 -59
s-17.167 -47.333 -22.5 -52c-38 -34 -106.667 -51 -206 -51c-87.333 0 -157 25.167 -209 75.5s-78 113.833 -78 190.5c0 54.667 11.5 107.667 34.5 159s52.667 94.833 89 130.5s77.166 64.334 122.499 86.001s90 32.5 134 32.5z" />
    <glyph glyph-name="Egrave" unicode="&#xc8;" horiz-adv-x="542" 
d="M450 715c-13.333 0 -49.833 10.333 -109.5 31s-89.5 37 -89.5 49c0 13.333 7.66699 23 23 29s31 9 47 9c12 0 22.667 -2.66699 32 -8c14 -8 30 -19 48 -33s33 -26.667 45 -38s18 -18 18 -20c0 -3.33301 -1.5 -7.33301 -4.5 -12s-6.16699 -7 -9.5 -7zM107 2
c-22.667 0 -46.333 -1.00098 -71 -3.00098s-40.667 -3 -48 -3c-1.33301 1.33301 -2 4.33301 -2 9c0 4 0.5 8 1.5 12s2.16699 7.16699 3.5 9.5s2.33301 3.5 3 3.5c6.66699 0 17.334 2.66699 32.001 8s23.667 11 27 17c8 14 16.333 43.333 25 88l73 378
c7.33301 42.667 10.666 68.667 9.99902 78c-0.666992 5.33301 -7.83398 11.5 -21.501 18.5s-23.5 10.5 -29.5 10.5c-1.33301 0 -2 2.33301 -2 7c0 13.333 2.33301 22.333 7 27c53.333 -2 97 -3 131 -3c35.333 0 85.333 0.833008 150 2.5s115 2.5 151 2.5
c-1.33301 -20 -2 -50.333 -2 -91v-57c-3.33301 -3.33301 -10.666 -5 -21.999 -5c-7.33301 0 -11.333 2.33301 -12 7c-7.33301 25.333 -21.833 47 -43.5 65s-44.5 27 -68.5 27h-35c-21.333 0 -36.666 -0.833008 -45.999 -2.5s-15 -5.16699 -17 -10.5
c-8 -22 -14.667 -48 -20 -78l-30 -154c-0.666992 -2 2.66602 -3.5 9.99902 -4.5s17 -1.5 29 -1.5h79c14.667 0 24.667 2.83301 30 8.5s14.666 23.5 27.999 53.5c2 4.66699 7.33301 7 16 7c10.667 0 17 -1.66699 19 -5l-36 -189c-2.66699 -2.66699 -9.66699 -4 -21 -4
c-7.33301 0 -11.666 2.66699 -12.999 8c-1.33301 30 -5 48 -11 54c-8 8 -33 12 -75 12c-44.667 0 -67.667 -3 -69 -9l-29 -154c-5.33301 -26.667 -8 -46.334 -8 -59.001c0 -12 3.16699 -19.667 9.5 -23s23.5 -5 51.5 -5h24c38.667 0 75.334 8.66699 110.001 26
c11.333 6 25.333 17.333 42 34s30.667 35.334 42 56.001c2 4 6.66699 6 14 6c15.333 0 24.333 -2 27 -6c-2.66699 -5.33301 -10 -19.166 -22 -41.499s-20.667 -39 -26 -50l-19.5 -41c-7.66699 -16.333 -13.167 -29.5 -16.5 -39.5c-35.333 0 -92.333 0.666992 -171 2
s-131.334 2 -158.001 2z" />
    <glyph glyph-name="Eacute" unicode="&#xc9;" horiz-adv-x="542" 
d="M314 715c-3.33301 0 -6.5 2.33301 -9.5 7s-4.5 8.66699 -4.5 12c0 2 6 8.66699 18 20s27 24 45 38s34 25 48 33c9.33301 5.33301 20 8 32 8c16 0 31.667 -3 47 -9s23 -15.667 23 -29c0 -12 -29.833 -28.333 -89.5 -49s-96.167 -31 -109.5 -31zM107 2
c-22.667 0 -46.333 -1.00098 -71 -3.00098s-40.667 -3 -48 -3c-1.33301 1.33301 -2 4.33301 -2 9c0 4 0.5 8 1.5 12s2.16699 7.16699 3.5 9.5s2.33301 3.5 3 3.5c6.66699 0 17.334 2.66699 32.001 8s23.667 11 27 17c8 14 16.333 43.333 25 88l73 378
c7.33301 42.667 10.666 68.667 9.99902 78c-0.666992 5.33301 -7.83398 11.5 -21.501 18.5s-23.5 10.5 -29.5 10.5c-1.33301 0 -2 2.33301 -2 7c0 13.333 2.33301 22.333 7 27c53.333 -2 97 -3 131 -3c35.333 0 85.333 0.833008 150 2.5s115 2.5 151 2.5
c-1.33301 -20 -2 -50.333 -2 -91v-57c-3.33301 -3.33301 -10.666 -5 -21.999 -5c-7.33301 0 -11.333 2.33301 -12 7c-7.33301 25.333 -21.833 47 -43.5 65s-44.5 27 -68.5 27h-35c-21.333 0 -36.666 -0.833008 -45.999 -2.5s-15 -5.16699 -17 -10.5
c-8 -22 -14.667 -48 -20 -78l-30 -154c-0.666992 -2 2.66602 -3.5 9.99902 -4.5s17 -1.5 29 -1.5h79c14.667 0 24.667 2.83301 30 8.5s14.666 23.5 27.999 53.5c2 4.66699 7.33301 7 16 7c10.667 0 17 -1.66699 19 -5l-36 -189c-2.66699 -2.66699 -9.66699 -4 -21 -4
c-7.33301 0 -11.666 2.66699 -12.999 8c-1.33301 30 -5 48 -11 54c-8 8 -33 12 -75 12c-44.667 0 -67.667 -3 -69 -9l-29 -154c-5.33301 -26.667 -8 -46.334 -8 -59.001c0 -12 3.16699 -19.667 9.5 -23s23.5 -5 51.5 -5h24c38.667 0 75.334 8.66699 110.001 26
c11.333 6 25.333 17.333 42 34s30.667 35.334 42 56.001c2 4 6.66699 6 14 6c15.333 0 24.333 -2 27 -6c-2.66699 -5.33301 -10 -19.166 -22 -41.499s-20.667 -39 -26 -50l-19.5 -41c-7.66699 -16.333 -13.167 -29.5 -16.5 -39.5c-35.333 0 -92.333 0.666992 -171 2
s-131.334 2 -158.001 2z" />
    <glyph glyph-name="Ecircumflex" unicode="&#xca;" horiz-adv-x="542" 
d="M483 728c-5.33301 0 -21.5 7.49902 -48.5 22.499s-48.167 28.167 -63.5 39.5c-20.667 -11.333 -47.667 -24.5 -81 -39.5s-52.666 -22.5 -57.999 -22.5c-8 0 -10.333 6.33301 -7 19c21.333 12.667 52 34.334 92 65.001c23.333 18.667 41.666 34.667 54.999 48
c6.66699 6 12 9 16 9c2.66699 0 7 -3 13 -9l13.5 -18l19.5 -26c26.667 -32 48 -55 64 -69c-3.33301 -12.667 -8.33301 -19 -15 -19zM107 1.99902c-22.667 0 -46.333 -1.00098 -71 -3.00098s-40.667 -3 -48 -3c-1.33301 1.33301 -2 4.33301 -2 9c0 4 0.5 8 1.5 12
s2.16699 7.16699 3.5 9.5s2.33301 3.5 3 3.5c6.66699 0 17.334 2.66699 32.001 8s23.667 11 27 17c8 14 16.333 43.333 25 88l73 378c7.33301 42.667 10.666 68.667 9.99902 78c-0.666992 5.33301 -7.83398 11.5 -21.501 18.5s-23.5 10.5 -29.5 10.5
c-1.33301 0 -2 2.33301 -2 7c0 13.333 2.33301 22.333 7 27c53.333 -2 97 -3 131 -3c35.333 0 85.333 0.833008 150 2.5s115 2.5 151 2.5c-1.33301 -20 -2 -50.333 -2 -91v-57c-3.33301 -3.33301 -10.666 -5 -21.999 -5c-7.33301 0 -11.333 2.33301 -12 7
c-7.33301 25.333 -21.833 47 -43.5 65s-44.5 27 -68.5 27h-35c-21.333 0 -36.666 -0.833008 -45.999 -2.5s-15 -5.16699 -17 -10.5c-8 -22 -14.667 -48 -20 -78l-30 -154c-0.666992 -2 2.66602 -3.5 9.99902 -4.5s17 -1.5 29 -1.5h79c14.667 0 24.667 2.83301 30 8.5
s14.666 23.5 27.999 53.5c2 4.66699 7.33301 7 16 7c10.667 0 17 -1.66699 19 -5l-36 -189c-2.66699 -2.66699 -9.66699 -4 -21 -4c-7.33301 0 -11.666 2.66699 -12.999 8c-1.33301 30 -5 48 -11 54c-8 8 -33 12 -75 12c-44.667 0 -67.667 -3 -69 -9l-29 -154
c-5.33301 -26.667 -8 -46.334 -8 -59.001c0 -12 3.16699 -19.667 9.5 -23s23.5 -5 51.5 -5h24c38.667 0 75.334 8.66699 110.001 26c11.333 6 25.333 17.333 42 34s30.667 35.334 42 56.001c2 4 6.66699 6 14 6c15.333 0 24.333 -2 27 -6
c-2.66699 -5.33301 -10 -19.166 -22 -41.499s-20.667 -39 -26 -50l-19.5 -41c-7.66699 -16.333 -13.167 -29.5 -16.5 -39.5c-35.333 0 -92.333 0.666992 -171 2s-131.334 2 -158.001 2z" />
    <glyph glyph-name="Edieresis" unicode="&#xcb;" horiz-adv-x="542" 
d="M410 802c4 20.667 14.167 38.167 30.5 52.5s33.833 21.5 52.5 21.5c19.333 0 34.333 -7.16699 45 -21.5s14 -31.833 10 -52.5s-14.167 -38.167 -30.5 -52.5s-33.833 -21.5 -52.5 -21.5c-19.333 0 -34.333 7.16699 -45 21.5s-14 31.833 -10 52.5zM196 802
c4 20.667 14.167 38.167 30.5 52.5s33.833 21.5 52.5 21.5c19.333 0 34.333 -7.16699 45 -21.5s14 -31.833 10 -52.5s-14.167 -38.167 -30.5 -52.5s-33.833 -21.5 -52.5 -21.5c-19.333 0 -34.333 7.16699 -45 21.5s-14 31.833 -10 52.5zM107 2
c-22.667 0 -46.333 -1.00098 -71 -3.00098s-40.667 -3 -48 -3c-1.33301 1.33301 -2 4.33301 -2 9c0 4 0.5 8 1.5 12s2.16699 7.16699 3.5 9.5s2.33301 3.5 3 3.5c6.66699 0 17.334 2.66699 32.001 8s23.667 11 27 17c8 14 16.333 43.333 25 88l73 378
c7.33301 42.667 10.666 68.667 9.99902 78c-0.666992 5.33301 -7.83398 11.5 -21.501 18.5s-23.5 10.5 -29.5 10.5c-1.33301 0 -2 2.33301 -2 7c0 13.333 2.33301 22.333 7 27c53.333 -2 97 -3 131 -3c35.333 0 85.333 0.833008 150 2.5s115 2.5 151 2.5
c-1.33301 -20 -2 -50.333 -2 -91v-57c-3.33301 -3.33301 -10.666 -5 -21.999 -5c-7.33301 0 -11.333 2.33301 -12 7c-7.33301 25.333 -21.833 47 -43.5 65s-44.5 27 -68.5 27h-35c-21.333 0 -36.666 -0.833008 -45.999 -2.5s-15 -5.16699 -17 -10.5
c-8 -22 -14.667 -48 -20 -78l-30 -154c-0.666992 -2 2.66602 -3.5 9.99902 -4.5s17 -1.5 29 -1.5h79c14.667 0 24.667 2.83301 30 8.5s14.666 23.5 27.999 53.5c2 4.66699 7.33301 7 16 7c10.667 0 17 -1.66699 19 -5l-36 -189c-2.66699 -2.66699 -9.66699 -4 -21 -4
c-7.33301 0 -11.666 2.66699 -12.999 8c-1.33301 30 -5 48 -11 54c-8 8 -33 12 -75 12c-44.667 0 -67.667 -3 -69 -9l-29 -154c-5.33301 -26.667 -8 -46.334 -8 -59.001c0 -12 3.16699 -19.667 9.5 -23s23.5 -5 51.5 -5h24c38.667 0 75.334 8.66699 110.001 26
c11.333 6 25.333 17.333 42 34s30.667 35.334 42 56.001c2 4 6.66699 6 14 6c15.333 0 24.333 -2 27 -6c-2.66699 -5.33301 -10 -19.166 -22 -41.499s-20.667 -39 -26 -50l-19.5 -41c-7.66699 -16.333 -13.167 -29.5 -16.5 -39.5c-35.333 0 -92.333 0.666992 -171 2
s-131.334 2 -158.001 2z" />
    <glyph glyph-name="Igrave" unicode="&#xcc;" horiz-adv-x="360" 
d="M318 715c-13.333 0 -49.833 10.333 -109.5 31s-89.5 37 -89.5 49c0 13.333 7.66699 23 23 29s31 9 47 9c12 0 22.667 -2.66699 32 -8c14 -8 30 -19 48 -33s33 -26.667 45 -38s18 -18 18 -20c0 -3.33301 -1.5 -7.33301 -4.5 -12s-6.16699 -7 -9.5 -7zM280 519
l-72.9951 -379.998c-6.66699 -34.667 -10 -61.334 -10 -80.001c0 -6.66699 6.5 -13.167 19.5 -19.5s22.5 -9.5 28.5 -9.5c1.33301 0 2 -1.66699 2 -5c0 -12.667 -2.33301 -22.334 -7 -29.001c-2.66699 0 -19.334 1.16699 -50.001 3.5s-54 3.5 -70 3.5
c-16.667 0 -41.5 -1.16699 -74.5 -3.5s-52.5 -3.5 -58.5 -3.5c-0.666992 0.666992 -1 2.66699 -1 6c0 4.66699 0.666992 10.5 2 17.5s2.66602 10.5 3.99902 10.5c7.33301 0 18.166 2.16699 32.499 6.5s23.166 9.5 26.499 15.5c10.667 17.333 19 45 25 83l75 388
c6 32 9 56.333 9 73c0 10 -6.16699 17.833 -18.5 23.5s-22.166 8.5 -29.499 8.5c-0.666992 0 -1 1.33301 -1 4c0 16 2 26 6 30c9.33301 -0.666992 22.166 -1.5 38.499 -2.5s31.166 -1.83301 44.499 -2.5s26.333 -1 39 -1c12 0 56 2 132 6v-5
c0 -5.33301 -0.833008 -11.5 -2.5 -18.5s-3.5 -10.5 -5.5 -10.5c-5.33301 0 -15.833 -2.83301 -31.5 -8.5s-24.834 -10.834 -27.501 -15.501c-4 -6.66699 -8.66699 -20.667 -14 -42s-8.66602 -35.666 -9.99902 -42.999z" />
    <glyph glyph-name="Iacute" unicode="&#xcd;" horiz-adv-x="360" 
d="M191 715c-3.33301 0 -6.5 2.33301 -9.5 7s-4.5 8.66699 -4.5 12c0 2 6 8.66699 18 20s27 24 45 38s34 25 48 33c9.33301 5.33301 20 8 32 8c16 0 31.667 -3 47 -9s23 -15.667 23 -29c0 -12 -29.833 -28.333 -89.5 -49s-96.167 -31 -109.5 -31zM280 519l-72.9951 -379.998
c-6.66699 -34.667 -10 -61.334 -10 -80.001c0 -6.66699 6.5 -13.167 19.5 -19.5s22.5 -9.5 28.5 -9.5c1.33301 0 2 -1.66699 2 -5c0 -12.667 -2.33301 -22.334 -7 -29.001c-2.66699 0 -19.334 1.16699 -50.001 3.5s-54 3.5 -70 3.5c-16.667 0 -41.5 -1.16699 -74.5 -3.5
s-52.5 -3.5 -58.5 -3.5c-0.666992 0.666992 -1 2.66699 -1 6c0 4.66699 0.666992 10.5 2 17.5s2.66602 10.5 3.99902 10.5c7.33301 0 18.166 2.16699 32.499 6.5s23.166 9.5 26.499 15.5c10.667 17.333 19 45 25 83l75 388c6 32 9 56.333 9 73
c0 10 -6.16699 17.833 -18.5 23.5s-22.166 8.5 -29.499 8.5c-0.666992 0 -1 1.33301 -1 4c0 16 2 26 6 30c9.33301 -0.666992 22.166 -1.5 38.499 -2.5s31.166 -1.83301 44.499 -2.5s26.333 -1 39 -1c12 0 56 2 132 6v-5c0 -5.33301 -0.833008 -11.5 -2.5 -18.5
s-3.5 -10.5 -5.5 -10.5c-5.33301 0 -15.833 -2.83301 -31.5 -8.5s-24.834 -10.834 -27.501 -15.501c-4 -6.66699 -8.66699 -20.667 -14 -42s-8.66602 -35.666 -9.99902 -42.999z" />
    <glyph glyph-name="Icircumflex" unicode="&#xce;" horiz-adv-x="360" 
d="M376 728c-5.33301 0 -21.5 7.49902 -48.5 22.499s-48.167 28.167 -63.5 39.5c-20.667 -11.333 -47.667 -24.5 -81 -39.5s-52.666 -22.5 -57.999 -22.5c-8 0 -10.333 6.33301 -7 19c21.333 12.667 52 34.334 92 65.001c23.333 18.667 41.666 34.667 54.999 48
c6.66699 6 12 9 16 9c2.66699 0 7 -3 13 -9l13.5 -18l19.5 -26c26.667 -32 48 -55 64 -69c-3.33301 -12.667 -8.33301 -19 -15 -19zM280 518.999l-72.9951 -379.998c-6.66699 -34.667 -10 -61.334 -10 -80.001c0 -6.66699 6.5 -13.167 19.5 -19.5s22.5 -9.5 28.5 -9.5
c1.33301 0 2 -1.66699 2 -5c0 -12.667 -2.33301 -22.334 -7 -29.001c-2.66699 0 -19.334 1.16699 -50.001 3.5s-54 3.5 -70 3.5c-16.667 0 -41.5 -1.16699 -74.5 -3.5s-52.5 -3.5 -58.5 -3.5c-0.666992 0.666992 -1 2.66699 -1 6c0 4.66699 0.666992 10.5 2 17.5
s2.66602 10.5 3.99902 10.5c7.33301 0 18.166 2.16699 32.499 6.5s23.166 9.5 26.499 15.5c10.667 17.333 19 45 25 83l75 388c6 32 9 56.333 9 73c0 10 -6.16699 17.833 -18.5 23.5s-22.166 8.5 -29.499 8.5c-0.666992 0 -1 1.33301 -1 4c0 16 2 26 6 30
c9.33301 -0.666992 22.166 -1.5 38.499 -2.5s31.166 -1.83301 44.499 -2.5s26.333 -1 39 -1c12 0 56 2 132 6v-5c0 -5.33301 -0.833008 -11.5 -2.5 -18.5s-3.5 -10.5 -5.5 -10.5c-5.33301 0 -15.833 -2.83301 -31.5 -8.5s-24.834 -10.834 -27.501 -15.501
c-4 -6.66699 -8.66699 -20.667 -14 -42s-8.66602 -35.666 -9.99902 -42.999z" />
    <glyph glyph-name="Idieresis" unicode="&#xcf;" horiz-adv-x="360" 
d="M309 802c4 20.667 14.167 38.167 30.5 52.5s33.833 21.5 52.5 21.5c19.333 0 34.333 -7.16699 45 -21.5s14 -31.833 10 -52.5s-14.167 -38.167 -30.5 -52.5s-33.833 -21.5 -52.5 -21.5c-19.333 0 -34.333 7.16699 -45 21.5s-14 31.833 -10 52.5zM95 802
c4 20.667 14.167 38.167 30.5 52.5s33.833 21.5 52.5 21.5c19.333 0 34.333 -7.16699 45 -21.5s14 -31.833 10 -52.5s-14.167 -38.167 -30.5 -52.5s-33.833 -21.5 -52.5 -21.5c-19.333 0 -34.333 7.16699 -45 21.5s-14 31.833 -10 52.5zM280 519l-72.9951 -379.998
c-6.66699 -34.667 -10 -61.334 -10 -80.001c0 -6.66699 6.5 -13.167 19.5 -19.5s22.5 -9.5 28.5 -9.5c1.33301 0 2 -1.66699 2 -5c0 -12.667 -2.33301 -22.334 -7 -29.001c-2.66699 0 -19.334 1.16699 -50.001 3.5s-54 3.5 -70 3.5c-16.667 0 -41.5 -1.16699 -74.5 -3.5
s-52.5 -3.5 -58.5 -3.5c-0.666992 0.666992 -1 2.66699 -1 6c0 4.66699 0.666992 10.5 2 17.5s2.66602 10.5 3.99902 10.5c7.33301 0 18.166 2.16699 32.499 6.5s23.166 9.5 26.499 15.5c10.667 17.333 19 45 25 83l75 388c6 32 9 56.333 9 73
c0 10 -6.16699 17.833 -18.5 23.5s-22.166 8.5 -29.499 8.5c-0.666992 0 -1 1.33301 -1 4c0 16 2 26 6 30c9.33301 -0.666992 22.166 -1.5 38.499 -2.5s31.166 -1.83301 44.499 -2.5s26.333 -1 39 -1c12 0 56 2 132 6v-5c0 -5.33301 -0.833008 -11.5 -2.5 -18.5
s-3.5 -10.5 -5.5 -10.5c-5.33301 0 -15.833 -2.83301 -31.5 -8.5s-24.834 -10.834 -27.501 -15.501c-4 -6.66699 -8.66699 -20.667 -14 -42s-8.66602 -35.666 -9.99902 -42.999z" />
    <glyph glyph-name="Eth" unicode="&#xd0;" horiz-adv-x="689" 
d="M384 351c4.66699 0 6.66602 -2.33301 5.99902 -7c-4 -16.667 -11 -36.334 -21 -59.001c-0.666992 -2 -1.66699 -3.5 -3 -4.5s-2.66602 -1.5 -3.99902 -1.5h-1h-122l-27 -143c-8.66699 -43.333 -10.667 -66.666 -6 -69.999c11.333 -8.66699 45.666 -13 102.999 -13
c52 0 97.167 24 135.5 72s66.833 119.667 85.5 215c14 73.333 10.667 135.5 -10 186.5s-57.667 76.5 -111 76.5h-4c-53.333 0 -84.666 -5.33301 -93.999 -16c-11.333 -12.667 -19.333 -33.667 -24 -63l-34 -173h131zM122.999 351l33.0039 170.002
c7.33301 40.667 10.666 66.667 9.99902 78c-0.666992 5.33301 -7.5 11.5 -20.5 18.5s-22.5 10.5 -28.5 10.5c-1.33301 0 -1.33301 5 0 15c1.33301 10.667 3.66602 17.667 6.99902 21c43.333 -3.33301 85.666 -5 126.999 -5h162c42 0 79.5 -6 112.5 -18
s59.667 -28.5 80 -49.5s37 -45.333 50 -73s20 -56.834 21 -87.501s-0.833008 -62.334 -5.5 -95.001c-18.667 -96.667 -63 -177.334 -133 -242.001s-155 -97 -255 -97c-12 0 -35.667 0.833008 -71 2.5s-64.333 2.5 -87 2.5l-132 -6c-2 4.66699 -2.33301 10.334 -1 17.001
c3.33301 12.667 6 19 8 19c7.33301 0 18.333 2.33301 33 7s23.667 9.66699 27 15c7.33301 17.333 14.333 44.333 21 81l28 144h-57l-3 10c6.66699 26 12.667 45 18 57c0.666992 2 1.66699 3.33301 3 4s2.66602 1 3.99902 1h1h48z" />
    <glyph glyph-name="Ntilde" unicode="&#xd1;" horiz-adv-x="675" 
d="M318 739c-4.66699 0 -5.66309 7.33301 -2.99609 22c3.33301 17.333 12 34 26 50c30 34 60.667 51 92 51c24 0 51.667 -11.333 83 -34s58.666 -34 81.999 -34c12 0 27.167 9.5 45.5 28.5s29.166 28.5 32.499 28.5c5.33301 0 6.66602 -7.33301 3.99902 -22
c-3.33301 -16.667 -12.333 -33.667 -27 -51c-28 -33.333 -58 -50 -90 -50c-24 0 -51.5 11.333 -82.5 34s-58.5 34 -82.5 34c-11.333 0 -26.833 -9.5 -46.5 -28.5s-30.834 -28.5 -33.501 -28.5zM251.004 657c36 0 67.0029 1.67188 93.0029 5.00488
c6 -22.667 20.167 -55.334 42.5 -98.001s51.333 -95.334 87 -158.001s63.834 -114.334 84.501 -155.001c1.33301 4 4.66602 17.667 9.99902 41l44 232c4 22 6 40 6 54s-10.5 25.833 -31.5 35.5s-37.167 14.5 -48.5 14.5c-1.33301 0 -2 2.33301 -2 7c0 14 2 23 6 27
c70 -3.33301 113.333 -5 130 -5c20.667 0 62 1.66699 124 5c0 -22.667 -2.66699 -34 -8 -34c-4.66699 0 -11.334 -0.666992 -20.001 -2s-20.5 -5 -35.5 -11s-26.833 -13.667 -35.5 -23c-10.667 -10.667 -19.667 -35 -27 -73l-74 -380c-5.33301 -27.333 -13 -74 -23 -140
c-2.66699 -2.66699 -10.667 -4 -24 -4c-7.33301 0 -15.666 7.66699 -24.999 23l-277 506l-74 -383c-5.33301 -26.667 -8 -45 -8 -55c0 -10.667 3.66699 -20 11 -28s16.166 -13.833 26.499 -17.5s19.166 -6.33398 26.499 -8.00098s12.666 -2.5 15.999 -2.5
c1.33301 0 2 -1.66699 2 -5c0 -11.333 -2 -21 -6 -29c-8 0.666992 -20.667 1.66699 -38 3s-33.5 2.33301 -48.5 3s-28.5 1 -40.5 1c-16.667 0 -39.834 -1 -69.501 -3s-48.5 -3.33301 -56.5 -4c-1.33301 2.66699 -2 5.66699 -2 9s0.5 7 1.5 11l2.5 10
c0.666992 2.66699 1.33398 4 2.00098 4c12 0 28.667 3.16699 50 9.5s37.666 16.833 48.999 31.5c8.66699 11.333 16.334 35.666 23.001 72.999l76 393c4 21.333 6 41 6 59c0 10 -9.33301 17.833 -28 23.5s-33.667 8.5 -45 8.5c-2 0 -3 2.66699 -3 8
c0 14 2.33301 22.667 7 26c70 -3.33301 111.333 -5 124 -5z" />
    <glyph glyph-name="Ograve" unicode="&#xd2;" horiz-adv-x="626" 
d="M456 715c-13.333 0 -49.833 10.333 -109.5 31s-89.5 37 -89.5 49c0 13.333 7.66699 23 23 29s31 9 47 9c12 0 22.667 -2.66699 32 -8c14 -8 30 -19 48 -33s33 -26.667 45 -38s18 -18 18 -20c0 -3.33301 -1.5 -7.33301 -4.5 -12s-6.16699 -7 -9.5 -7zM359 611
c-54 0 -101.167 -35.667 -141.5 -107s-60.5 -160 -60.5 -266c0 -26 2 -50 6 -72s10.5 -42.333 19.5 -61s21.667 -33.167 38 -43.5s35.5 -15.5 57.5 -15.5c28 0 53.833 9.5 77.5 28.5s43 43 58 72s27.667 61.5 38 97.5s17.833 70.167 22.5 102.5s7 61.833 7 88.5
c0 117.333 -40.667 176 -122 176zM383 667c70.667 0 128.499 -25.1689 173.499 -75.502s67.5 -114.166 67.5 -191.499c0 -52 -10.667 -103.167 -32 -153.5s-49.166 -94.166 -83.499 -131.499s-74.166 -67.5 -119.499 -90.5s-91 -34.5 -137 -34.5
c-70.667 0 -128.334 25.167 -173.001 75.5s-67 113.833 -67 190.5c0 52 10.667 103.333 32 154s49 94.667 83 132s73.667 67.5 119 90.5s91 34.5 137 34.5z" />
    <glyph glyph-name="Oacute" unicode="&#xd3;" horiz-adv-x="626" 
d="M377 715c-3.33301 0 -6.5 2.33301 -9.5 7s-4.5 8.66699 -4.5 12c0 2 6 8.66699 18 20s27 24 45 38s34 25 48 33c9.33301 5.33301 20 8 32 8c16 0 31.667 -3 47 -9s23 -15.667 23 -29c0 -12 -29.833 -28.333 -89.5 -49s-96.167 -31 -109.5 -31zM359 611
c-54 0 -101.167 -35.667 -141.5 -107s-60.5 -160 -60.5 -266c0 -26 2 -50 6 -72s10.5 -42.333 19.5 -61s21.667 -33.167 38 -43.5s35.5 -15.5 57.5 -15.5c28 0 53.833 9.5 77.5 28.5s43 43 58 72s27.667 61.5 38 97.5s17.833 70.167 22.5 102.5s7 61.833 7 88.5
c0 117.333 -40.667 176 -122 176zM383 667c70.667 0 128.499 -25.1689 173.499 -75.502s67.5 -114.166 67.5 -191.499c0 -52 -10.667 -103.167 -32 -153.5s-49.166 -94.166 -83.499 -131.499s-74.166 -67.5 -119.499 -90.5s-91 -34.5 -137 -34.5
c-70.667 0 -128.334 25.167 -173.001 75.5s-67 113.833 -67 190.5c0 52 10.667 103.333 32 154s49 94.667 83 132s73.667 67.5 119 90.5s91 34.5 137 34.5z" />
    <glyph glyph-name="Ocircumflex" unicode="&#xd4;" horiz-adv-x="626" 
d="M520 728c-5.33301 0 -21.5 7.49902 -48.5 22.499s-48.167 28.167 -63.5 39.5c-20.667 -11.333 -47.667 -24.5 -81 -39.5s-52.666 -22.5 -57.999 -22.5c-8 0 -10.333 6.33301 -7 19c21.333 12.667 52 34.334 92 65.001c23.333 18.667 41.666 34.667 54.999 48
c6.66699 6 12 9 16 9c2.66699 0 7 -3 13 -9l13.5 -18l19.5 -26c26.667 -32 48 -55 64 -69c-3.33301 -12.667 -8.33301 -19 -15 -19zM359 610.999c-54 0 -101.167 -35.667 -141.5 -107s-60.5 -160 -60.5 -266c0 -26 2 -50 6 -72s10.5 -42.333 19.5 -61
s21.667 -33.167 38 -43.5s35.5 -15.5 57.5 -15.5c28 0 53.833 9.5 77.5 28.5s43 43 58 72s27.667 61.5 38 97.5s17.833 70.167 22.5 102.5s7 61.833 7 88.5c0 117.333 -40.667 176 -122 176zM383 666.999c70.667 0 128.499 -25.1689 173.499 -75.502
s67.5 -114.166 67.5 -191.499c0 -52 -10.667 -103.167 -32 -153.5s-49.166 -94.166 -83.499 -131.499s-74.166 -67.5 -119.499 -90.5s-91 -34.5 -137 -34.5c-70.667 0 -128.334 25.167 -173.001 75.5s-67 113.833 -67 190.5c0 52 10.667 103.333 32 154s49 94.667 83 132
s73.667 67.5 119 90.5s91 34.5 137 34.5z" />
    <glyph glyph-name="Otilde" unicode="&#xd5;" horiz-adv-x="626" 
d="M229 739c-4.66699 0 -5.66309 7.33301 -2.99609 22c3.33301 17.333 12 34 26 50c30 34 60.667 51 92 51c24 0 51.667 -11.333 83 -34s58.666 -34 81.999 -34c12 0 27.167 9.5 45.5 28.5s29.166 28.5 32.499 28.5c5.33301 0 6.66602 -7.33301 3.99902 -22
c-3.33301 -16.667 -12.333 -33.667 -27 -51c-28 -33.333 -58 -50 -90 -50c-24 0 -51.5 11.333 -82.5 34s-58.5 34 -82.5 34c-11.333 0 -26.833 -9.5 -46.5 -28.5s-30.834 -28.5 -33.501 -28.5zM359.004 611c-54 0 -101.167 -35.667 -141.5 -107s-60.5 -160 -60.5 -266
c0 -26 2 -50 6 -72s10.5 -42.333 19.5 -61s21.667 -33.167 38 -43.5s35.5 -15.5 57.5 -15.5c28 0 53.833 9.5 77.5 28.5s43 43 58 72s27.667 61.5 38 97.5s17.833 70.167 22.5 102.5s7 61.833 7 88.5c0 117.333 -40.667 176 -122 176zM383.004 667
c70.667 0 128.499 -25.1689 173.499 -75.502s67.5 -114.166 67.5 -191.499c0 -52 -10.667 -103.167 -32 -153.5s-49.166 -94.166 -83.499 -131.499s-74.166 -67.5 -119.499 -90.5s-91 -34.5 -137 -34.5c-70.667 0 -128.334 25.167 -173.001 75.5s-67 113.833 -67 190.5
c0 52 10.667 103.333 32 154s49 94.667 83 132s73.667 67.5 119 90.5s91 34.5 137 34.5z" />
    <glyph glyph-name="Odieresis" unicode="&#xd6;" horiz-adv-x="626" 
d="M517 875c16.667 0 30.5 -6 41.5 -18s16.5 -26.667 16.5 -44c0 -22 -7.83301 -41.667 -23.5 -59s-33.834 -26 -54.501 -26c-16.667 0 -30.5 6 -41.5 18s-16.5 27 -16.5 45c0 22 7.83301 41.5 23.5 58.5s33.834 25.5 54.501 25.5zM297 877c16.667 0 30.5 -6 41.5 -18
s16.5 -27 16.5 -45c0 -22 -7.83301 -41.5 -23.5 -58.5s-33.834 -25.5 -54.501 -25.5c-16.667 0 -30.5 6 -41.5 18s-16.5 26.667 -16.5 44c0 22 7.83301 41.667 23.5 59s33.834 26 54.501 26zM359 611c-54 0 -101.167 -35.667 -141.5 -107s-60.5 -160 -60.5 -266
c0 -26 2 -50 6 -72s10.5 -42.333 19.5 -61s21.667 -33.167 38 -43.5s35.5 -15.5 57.5 -15.5c28 0 53.833 9.5 77.5 28.5s43 43 58 72s27.667 61.5 38 97.5s17.833 70.167 22.5 102.5s7 61.833 7 88.5c0 117.333 -40.667 176 -122 176zM383 667
c70.667 0 128.499 -25.1689 173.499 -75.502s67.5 -114.166 67.5 -191.499c0 -52 -10.667 -103.167 -32 -153.5s-49.166 -94.166 -83.499 -131.499s-74.166 -67.5 -119.499 -90.5s-91 -34.5 -137 -34.5c-70.667 0 -128.334 25.167 -173.001 75.5s-67 113.833 -67 190.5
c0 52 10.667 103.333 32 154s49 94.667 83 132s73.667 67.5 119 90.5s91 34.5 137 34.5z" />
    <glyph glyph-name="multiply" unicode="&#xd7;" horiz-adv-x="421" 
d="M44 54c-4.66699 0 -10.334 7.16699 -17.001 21.5s-10 25.5 -10 33.5l151 134c1.33301 1.33301 2 2.33301 2 3c0 2.66699 -0.333008 4.33398 -1 5.00098l-96 129c0 6.66699 6.83301 18 20.5 34s22.5 24 26.5 24c3.33301 0 6.33301 -1.33301 9 -4l97 -132
c1.33301 -1.33301 2.66602 -2 3.99902 -2c0.666992 0 1.33398 0.333008 2.00098 1l151 134c2 2 4 3 6 3c4 0 9.66699 -7.16699 17 -21.5s11 -25.833 11 -34.5l-147 -132c-1.33301 -1.33301 -2 -2.33301 -2 -3s0.333008 -1.33398 1 -2.00098l95 -133
c0 -6.66699 -7 -17.5 -21 -32.5s-23 -22.5 -27 -22.5s-6.33301 1 -7 3l-97 132c-1.33301 1.33301 -2.33301 2 -3 2c-1.33301 0 -2.66602 -0.666992 -3.99902 -2l-153 -135c-2 -2 -4.66699 -3 -8 -3z" />
    <glyph glyph-name="Oslash" unicode="&#xd8;" horiz-adv-x="650" 
d="M374 611c-53.333 0 -100.332 -35.667 -140.999 -107s-61 -160 -61 -266c0 -33.333 3.33301 -63 10 -89l287 411c-20.667 34 -52.334 51 -95.001 51zM398.001 667c45.333 0 86.335 -10.9961 123.002 -32.9961l24 35c4.66699 1.33301 12 -0.833984 22 -6.50098
s15 -11.167 15 -16.5c0 -2.66699 -0.333008 -4.66699 -1 -6l-24 -34c54.667 -50.667 82 -119.334 82 -206.001c0 -69.333 -17.833 -135.833 -53.5 -199.5s-82.334 -114.667 -140.001 -153s-117.167 -57.5 -178.5 -57.5c-44.667 0 -85.334 11 -122.001 33l-16 -23
c-5.33301 -0.666992 -12.666 1.16602 -21.999 5.49902s-14 8.83301 -14 13.5c0 3.33301 0.666992 5.66602 2 6.99902l16 23c-56 50.667 -84 119.667 -84 207c0 69.333 17.833 136 53.5 200s82.167 115.167 139.5 153.5s116.666 57.5 177.999 57.5zM293.003 46.0039
c34.667 0 65.833 14.167 93.5 42.5s49 63.666 64 105.999s26.333 84.333 34 126s11.5 79.834 11.5 114.501c0 28.667 -2.33301 53.667 -7 75l-289 -409c21.333 -36.667 52.333 -55 93 -55z" />
    <glyph glyph-name="Ugrave" unicode="&#xd9;" horiz-adv-x="679" 
d="M347 715c-13.333 0 -49.833 10.333 -109.5 31s-89.5 37 -89.5 49c0 13.333 7.66699 23 23 29s31 9 47 9c12 0 22.667 -2.66699 32 -8c14 -8 30 -19 48 -33s33 -26.667 45 -38s18 -18 18 -20c0 -3.33301 -1.5 -7.33301 -4.5 -12s-6.16699 -7 -9.5 -7zM85 522
c7.33301 45.333 10.0039 71.334 8.00391 78.001c-2 5.33301 -9.66699 10.833 -23 16.5s-23.333 8.5 -30 8.5c-2 0 -2 5.66699 0 17c2 12 3.66699 18.667 5 20c84 -4 128.667 -6 134 -6c11.333 0 55 2 131 6v-18c-2 -12.667 -4.66699 -19 -8 -19
c-5.33301 0 -17 -2.83301 -35 -8.5s-28 -10.834 -30 -15.501c-8.66699 -19.333 -16.334 -47.666 -23.001 -84.999l-46 -237c-12 -61.333 -8.66699 -110.666 10 -147.999s50 -56 94 -56c21.333 0 41.5 3.5 60.5 10.5s37.667 18.167 56 33.5s34.5 37.166 48.5 65.499
s25 62.166 33 101.499l46 238c0 0.666992 0.666992 4.5 2 11.5s2.33301 12.5 3 16.5s1.16699 9.16699 1.5 15.5s0.166016 11.833 -0.500977 16.5s-2 8.66699 -4 12c-4.66699 7.33301 -15.167 14 -31.5 20s-28.166 9 -35.499 9c-2 0.666992 -2.83301 3.5 -2.5 8.5
s1.16602 10.667 2.49902 17s3 10.166 5 11.499c56 -5.33301 96.333 -8 121 -8c15.333 0 36.666 1.16699 63.999 3.5l53 4.5c1.33301 -5.33301 1.33301 -11.333 0 -18c-0.666992 -3.33301 -2 -7.33301 -4 -12s-3.66699 -7 -5 -7c-5.33301 0 -11.5 -0.5 -18.5 -1.5
s-17.333 -4.16699 -31 -9.5s-24.834 -12.666 -33.501 -21.999c-10.667 -10.667 -19.667 -35 -27 -73l-45 -228c-18.667 -97.333 -55 -171 -109 -221s-116.333 -75 -187 -75c-36.667 0 -68.5 5.66699 -95.5 17s-50 29.5 -69 54.5s-30.5 57.5 -34.5 97.5s-1 89 9 147z" />
    <glyph glyph-name="Uacute" unicode="&#xda;" horiz-adv-x="679" 
d="M268 715c-3.33301 0 -6.5 2.33301 -9.5 7s-4.5 8.66699 -4.5 12c0 2 6 8.66699 18 20s27 24 45 38s34 25 48 33c9.33301 5.33301 20 8 32 8c16 0 31.667 -3 47 -9s23 -15.667 23 -29c0 -12 -29.833 -28.333 -89.5 -49s-96.167 -31 -109.5 -31zM85 522
c7.33301 45.333 10.0039 71.334 8.00391 78.001c-2 5.33301 -9.66699 10.833 -23 16.5s-23.333 8.5 -30 8.5c-2 0 -2 5.66699 0 17c2 12 3.66699 18.667 5 20c84 -4 128.667 -6 134 -6c11.333 0 55 2 131 6v-18c-2 -12.667 -4.66699 -19 -8 -19
c-5.33301 0 -17 -2.83301 -35 -8.5s-28 -10.834 -30 -15.501c-8.66699 -19.333 -16.334 -47.666 -23.001 -84.999l-46 -237c-12 -61.333 -8.66699 -110.666 10 -147.999s50 -56 94 -56c21.333 0 41.5 3.5 60.5 10.5s37.667 18.167 56 33.5s34.5 37.166 48.5 65.499
s25 62.166 33 101.499l46 238c0 0.666992 0.666992 4.5 2 11.5s2.33301 12.5 3 16.5s1.16699 9.16699 1.5 15.5s0.166016 11.833 -0.500977 16.5s-2 8.66699 -4 12c-4.66699 7.33301 -15.167 14 -31.5 20s-28.166 9 -35.499 9c-2 0.666992 -2.83301 3.5 -2.5 8.5
s1.16602 10.667 2.49902 17s3 10.166 5 11.499c56 -5.33301 96.333 -8 121 -8c15.333 0 36.666 1.16699 63.999 3.5l53 4.5c1.33301 -5.33301 1.33301 -11.333 0 -18c-0.666992 -3.33301 -2 -7.33301 -4 -12s-3.66699 -7 -5 -7c-5.33301 0 -11.5 -0.5 -18.5 -1.5
s-17.333 -4.16699 -31 -9.5s-24.834 -12.666 -33.501 -21.999c-10.667 -10.667 -19.667 -35 -27 -73l-45 -228c-18.667 -97.333 -55 -171 -109 -221s-116.333 -75 -187 -75c-36.667 0 -68.5 5.66699 -95.5 17s-50 29.5 -69 54.5s-30.5 57.5 -34.5 97.5s-1 89 9 147z" />
    <glyph glyph-name="Ucircumflex" unicode="&#xdb;" horiz-adv-x="679" 
d="M426 728c-5.33301 0 -21.5 7.49902 -48.5 22.499s-48.167 28.167 -63.5 39.5c-20.667 -11.333 -47.667 -24.5 -81 -39.5s-52.666 -22.5 -57.999 -22.5c-8 0 -10.333 6.33301 -7 19c21.333 12.667 52 34.334 92 65.001c23.333 18.667 41.666 34.667 54.999 48
c6.66699 6 12 9 16 9c2.66699 0 7 -3 13 -9l13.5 -18l19.5 -26c26.667 -32 48 -55 64 -69c-3.33301 -12.667 -8.33301 -19 -15 -19zM85 521.999c7.33301 45.333 10.0039 71.334 8.00391 78.001c-2 5.33301 -9.66699 10.833 -23 16.5s-23.333 8.5 -30 8.5
c-2 0 -2 5.66699 0 17c2 12 3.66699 18.667 5 20c84 -4 128.667 -6 134 -6c11.333 0 55 2 131 6v-18c-2 -12.667 -4.66699 -19 -8 -19c-5.33301 0 -17 -2.83301 -35 -8.5s-28 -10.834 -30 -15.501c-8.66699 -19.333 -16.334 -47.666 -23.001 -84.999l-46 -237
c-12 -61.333 -8.66699 -110.666 10 -147.999s50 -56 94 -56c21.333 0 41.5 3.5 60.5 10.5s37.667 18.167 56 33.5s34.5 37.166 48.5 65.499s25 62.166 33 101.499l46 238c0 0.666992 0.666992 4.5 2 11.5s2.33301 12.5 3 16.5s1.16699 9.16699 1.5 15.5
s0.166016 11.833 -0.500977 16.5s-2 8.66699 -4 12c-4.66699 7.33301 -15.167 14 -31.5 20s-28.166 9 -35.499 9c-2 0.666992 -2.83301 3.5 -2.5 8.5s1.16602 10.667 2.49902 17s3 10.166 5 11.499c56 -5.33301 96.333 -8 121 -8c15.333 0 36.666 1.16699 63.999 3.5l53 4.5
c1.33301 -5.33301 1.33301 -11.333 0 -18c-0.666992 -3.33301 -2 -7.33301 -4 -12s-3.66699 -7 -5 -7c-5.33301 0 -11.5 -0.5 -18.5 -1.5s-17.333 -4.16699 -31 -9.5s-24.834 -12.666 -33.501 -21.999c-10.667 -10.667 -19.667 -35 -27 -73l-45 -228
c-18.667 -97.333 -55 -171 -109 -221s-116.333 -75 -187 -75c-36.667 0 -68.5 5.66699 -95.5 17s-50 29.5 -69 54.5s-30.5 57.5 -34.5 97.5s-1 89 9 147z" />
    <glyph glyph-name="Udieresis" unicode="&#xdc;" horiz-adv-x="679" 
d="M338 802c4 20.667 14.167 38.167 30.5 52.5s33.833 21.5 52.5 21.5c19.333 0 34.333 -7.16699 45 -21.5s14 -31.833 10 -52.5s-14.167 -38.167 -30.5 -52.5s-33.833 -21.5 -52.5 -21.5c-19.333 0 -34.333 7.16699 -45 21.5s-14 31.833 -10 52.5zM124 802
c4 20.667 14.167 38.167 30.5 52.5s33.833 21.5 52.5 21.5c19.333 0 34.333 -7.16699 45 -21.5s14 -31.833 10 -52.5s-14.167 -38.167 -30.5 -52.5s-33.833 -21.5 -52.5 -21.5c-19.333 0 -34.333 7.16699 -45 21.5s-14 31.833 -10 52.5zM85 522
c7.33301 45.333 10.0039 71.334 8.00391 78.001c-2 5.33301 -9.66699 10.833 -23 16.5s-23.333 8.5 -30 8.5c-2 0 -2 5.66699 0 17c2 12 3.66699 18.667 5 20c84 -4 128.667 -6 134 -6c11.333 0 55 2 131 6v-18c-2 -12.667 -4.66699 -19 -8 -19
c-5.33301 0 -17 -2.83301 -35 -8.5s-28 -10.834 -30 -15.501c-8.66699 -19.333 -16.334 -47.666 -23.001 -84.999l-46 -237c-12 -61.333 -8.66699 -110.666 10 -147.999s50 -56 94 -56c21.333 0 41.5 3.5 60.5 10.5s37.667 18.167 56 33.5s34.5 37.166 48.5 65.499
s25 62.166 33 101.499l46 238c0 0.666992 0.666992 4.5 2 11.5s2.33301 12.5 3 16.5s1.16699 9.16699 1.5 15.5s0.166016 11.833 -0.500977 16.5s-2 8.66699 -4 12c-4.66699 7.33301 -15.167 14 -31.5 20s-28.166 9 -35.499 9c-2 0.666992 -2.83301 3.5 -2.5 8.5
s1.16602 10.667 2.49902 17s3 10.166 5 11.499c56 -5.33301 96.333 -8 121 -8c15.333 0 36.666 1.16699 63.999 3.5l53 4.5c1.33301 -5.33301 1.33301 -11.333 0 -18c-0.666992 -3.33301 -2 -7.33301 -4 -12s-3.66699 -7 -5 -7c-5.33301 0 -11.5 -0.5 -18.5 -1.5
s-17.333 -4.16699 -31 -9.5s-24.834 -12.666 -33.501 -21.999c-10.667 -10.667 -19.667 -35 -27 -73l-45 -228c-18.667 -97.333 -55 -171 -109 -221s-116.333 -75 -187 -75c-36.667 0 -68.5 5.66699 -95.5 17s-50 29.5 -69 54.5s-30.5 57.5 -34.5 97.5s-1 89 9 147z" />
    <glyph glyph-name="Yacute" unicode="&#xdd;" horiz-adv-x="590" 
d="M183 715c-3.33301 0 -6.5 2.33301 -9.5 7s-4.5 8.66699 -4.5 12c0 2 6 8.66699 18 20s27 24 45 38s34 25 48 33c9.33301 5.33301 20 8 32 8c16 0 31.667 -3 47 -9s23 -15.667 23 -29c0 -12 -29.833 -28.333 -89.5 -49s-96.167 -31 -109.5 -31zM151 656
c12.667 0 57.0049 2.00195 133.005 6.00195c0.666992 -1.33301 1 -4.33301 1 -9c0 -6 -1 -12.167 -3 -18.5s-3.66699 -9.5 -5 -9.5c-9.33301 0 -20.333 -1.83301 -33 -5.5s-19.667 -8.83398 -21 -15.501s-0.333008 -14 3 -22l63 -179
c93.333 118.667 141.666 185.334 144.999 200.001c1.33301 6.66699 -2.83398 12 -12.501 16s-23.834 6 -42.501 6c-1.33301 0 -2 3 -2 9c0 14 2.66699 23.333 8 28c56 -4 93.333 -6 112 -6c16.667 0 52 2 106 6c0 -8.66699 -0.333008 -14.667 -1 -18
c-2 -12 -4.33301 -18 -7 -18c-11.333 0 -24.833 -3 -40.5 -9s-28.834 -15 -39.501 -27c-20 -22.667 -61 -73.834 -123 -153.501s-93.667 -123.834 -95 -132.501l-31 -159c-7.33301 -34.667 -10.333 -63.667 -9 -87c0 -4.66699 7.33301 -10 22 -16s24.667 -9 30 -9
c2 0 2 -6.33301 0 -19c-2 -10 -3.66699 -16 -5 -18c-4.66699 0 -23.167 1.33301 -55.5 4s-56.5 4 -72.5 4c-16.667 0 -41.5 -1.16699 -74.5 -3.5s-53.5 -3.83301 -61.5 -4.5c-2 4 -2.33301 9.33301 -1 16c2 14 4.33301 21 7 21c6.66699 0 18.5 2.83301 35.5 8.5
s27.167 11.167 30.5 16.5c7.33301 18 15 45 23 81l33 170c0.666992 4.66699 -5 26 -17 64s-24.333 74.667 -37 110l-18 54c-12.667 40 -24.667 64.333 -36 73c-6 4 -13.833 7.5 -23.5 10.5s-17.5 4.5 -23.5 4.5c-1.33301 0 -2 3 -2 9c0 4.66699 1 10 3 16s4.33301 10 7 12
c3.33301 0 21.166 -1 53.499 -3s57.833 -3 76.5 -3z" />
    <glyph glyph-name="Thorn" unicode="&#xde;" horiz-adv-x="537" 
d="M280 141c-12 0 -25.168 0.666016 -39.501 1.99902s-23.166 2 -26.499 2c-2 0 -3 -0.666992 -3 -2c-1.33301 -2.66699 -2 -4.33398 -2 -5.00098c-6 -30 -9 -55.333 -9 -76v-7c0.666992 -4.66699 7.5 -10 20.5 -16s21.833 -9 26.5 -9
c2 -1.33301 2.16699 -6.66602 0.5 -15.999s-3.16699 -15.333 -4.5 -18c-6 0 -23.833 1.33301 -53.5 4s-52.5 4 -68.5 4c-16.667 0 -40.334 -1.16699 -71.001 -3.5l-60 -4.5c-0.666992 0.666992 -1 4 -1 10c0 16 2 24 6 24c32.667 0 53 8.33301 61 25
c8.66699 18.667 16 45.334 22 80.001l76 390c6 44.667 9 67.667 9 69c0 4.66699 -0.333008 7.66699 -1 9c-2 5.33301 -8.83301 10.833 -20.5 16.5s-20.834 8.5 -27.501 8.5c-2 0.666992 -2.66699 3.5 -2 8.5s2 10.5 4 16.5l3 9c84 -4 126.667 -6 128 -6c8 0 50 2 126 6
c0 -22.667 -2.33301 -34 -7 -34c-5.33301 0 -16.166 -2.83301 -32.499 -8.5s-25.5 -10.834 -27.5 -15.501c-5.33301 -12 -10.5 -28.167 -15.5 -48.5s-7.5 -32.5 -7.5 -36.5c0 -3.33301 0.666992 -5 2 -5c0.666992 0 4 0.5 10 1.5s14.333 2 25 3s22 1.5 34 1.5
c50 0 91 -15 123 -45s48 -67.333 48 -112c0 -36.667 -7.33301 -69.667 -22 -99s-34 -52.666 -58 -69.999s-50.167 -30.5 -78.5 -39.5s-57.166 -13.5 -86.499 -13.5zM282.999 191.999c27.333 0 50.832 19 70.499 57s29.5 78.667 29.5 122c0 65.333 -17 98 -51 98
c-39.333 0 -61.666 -13 -66.999 -39l-39 -202c0 -0.666992 -0.166992 -2.16699 -0.5 -4.5s-0.5 -4.5 -0.5 -6.5c0 -16.667 19.333 -25 58 -25z" />
    <glyph glyph-name="germandbls" unicode="&#xdf;" horiz-adv-x="537" 
d="M428 696c42 0 76.998 -12.001 104.998 -36.001s38.333 -55.667 31 -95c-3.33301 -18.667 -8.33301 -34.667 -15 -48s-15.834 -25.166 -27.501 -35.499s-20.167 -17.333 -25.5 -21s-15.666 -9.83398 -30.999 -18.501c-12.667 -7.33301 -22.5 -13.666 -29.5 -18.999
s-13.333 -13.333 -19 -24s-8.5 -23.334 -8.5 -38.001c0 -32 19.667 -62 59 -90c18.667 -12 35.667 -29.333 51 -52s23 -46 23 -70c0 -36 -15.167 -71 -45.5 -105s-66.166 -51 -107.499 -51c-35.333 0 -66.666 4.83301 -93.999 14.5s-42.666 19.167 -45.999 28.5
c0 6.66699 0.333008 13.667 1 21s2.33398 17.333 5.00098 30s7.83398 23 15.501 31s17.167 12 28.5 12c13.333 0 24.166 -4 32.499 -12s14.166 -16.833 17.499 -26.5s8.5 -18.5 15.5 -26.5s16.167 -12 27.5 -12c8 0 15 2.66699 21 8s10.167 12.166 12.5 20.499
s3.83301 15.333 4.5 21s1 10.834 1 15.501c0 10 -2.33301 19.5 -7 28.5s-9.66699 16.167 -15 21.5s-13.333 12.5 -24 21.5s-18.334 15.833 -23.001 20.5c-10.667 10.667 -19 19.334 -25 26.001s-11.833 16.334 -17.5 29.001s-8.5 26 -8.5 40c0 14.667 1.5 27.834 4.5 39.501
s8 22.5 15 32.5s13 17.833 18 23.5s13 13.5 24 23.5l23.5 21c30.667 29.333 50 64 58 104c11.333 62 -10.667 93 -66 93c-11.333 0 -21.833 -3.33301 -31.5 -10s-17.5 -14.834 -23.5 -24.501s-11.667 -22.667 -17 -39s-9.5 -31 -12.5 -44s-6.5 -29.5 -10.5 -49.5l-88 -454
c-14.667 -75.333 -42 -134 -82 -176s-91.667 -63 -155 -63c-24 0 -44.333 4.16699 -61 12.5s-26.334 17.166 -29.001 26.499c-0.666992 23.333 3.5 45.333 12.5 66s24.5 31 46.5 31c9.33301 0 17.166 -4.16699 23.499 -12.5s11 -17.666 14 -27.999
s7.33301 -19.666 13 -27.999s12.834 -12.5 21.501 -12.5c10 0 19.167 4.5 27.5 13.5s15.5 22.833 21.5 41.5s10.833 35.167 14.5 49.5s7.83398 34.166 12.501 59.499l70 361v3c0.666992 2 1 3.33301 1 4c0 2 -1.33301 3 -4 3h-59c-4 0 -6 3.33301 -6 10
c0 7.33301 6.33301 17.166 19 29.499s25.667 18.5 39 18.5h17c4 0 7 5.33301 9 16c13.333 67.333 46.333 125.833 99 175.5s105.667 74.5 159 74.5z" />
    <glyph glyph-name="agrave" unicode="&#xe0;" horiz-adv-x="462" 
d="M346 482c-11.333 0 -40.666 13.501 -87.999 40.501s-71 48.833 -71 65.5c0 9.33301 5.5 19 16.5 29s24.167 15 39.5 15c5.33301 0 9.66602 -1 12.999 -3c14 -13.333 34.833 -36.333 62.5 -69s41.5 -51.334 41.5 -56.001c0 -3.33301 -1.66699 -7.83301 -5 -13.5
s-6.33301 -8.5 -9 -8.5zM323 449.001c21.333 0 40.498 -2.33105 57.498 -6.99805s29.167 -9.66699 36.5 -15l-58 -299c-1.33301 -4 -2 -11.667 -2 -23c0 -16 3.33301 -24 10 -24c9.33301 0 22.333 7 39 21s28 24.667 34 32c1.33301 0 4.83301 -3.33301 10.5 -10
s8.5 -11.334 8.5 -14.001c-7.33301 -18 -31.166 -42.167 -71.499 -72.5s-74.5 -45.5 -102.5 -45.5c-15.333 0 -28 4.83301 -38 14.5s-15 22.834 -15 39.501v13c0.666992 8 1.33398 13.667 2.00098 17c-31.333 -56 -67.666 -84 -108.999 -84
c-36.667 0 -65.334 13.667 -86.001 41s-31 63 -31 107c0 34 8.16699 69.167 24.5 105.5s38 69.666 65 99.999s60.5 55.166 100.5 74.499s81.667 29 125 29zM264.998 385.003c-20 0 -38.832 -10.168 -56.499 -30.501s-32 -44.833 -43 -73.5s-19.5 -57.167 -25.5 -85.5
s-9 -52.166 -9 -71.499c0 -37.333 10.333 -56 31 -56c21.333 0 42.666 23.167 63.999 69.5s37.333 96.5 48 150.5l18 90c-4.66699 4.66699 -13.667 7 -27 7z" />
    <glyph glyph-name="aacute" unicode="&#xe1;" horiz-adv-x="462" 
d="M265 482c-2.66699 0 -5.66797 2.83203 -9.00098 8.49902s-5 10.167 -5 13.5c0 4.66699 13.833 23.334 41.5 56.001s48.5 55.667 62.5 69c2.66699 2 7 3 13 3c15.333 0 28.5 -5 39.5 -15s16.5 -19.667 16.5 -29c0 -16.667 -23.667 -38.5 -71 -65.5
s-76.666 -40.5 -87.999 -40.5zM322.999 448.999c21.333 0 40.498 -2.33105 57.498 -6.99805s29.167 -9.66699 36.5 -15l-58 -299c-1.33301 -4 -2 -11.667 -2 -23c0 -16 3.33301 -24 10 -24c9.33301 0 22.333 7 39 21s28 24.667 34 32c1.33301 0 4.83301 -3.33301 10.5 -10
s8.5 -11.334 8.5 -14.001c-7.33301 -18 -31.166 -42.167 -71.499 -72.5s-74.5 -45.5 -102.5 -45.5c-15.333 0 -28 4.83301 -38 14.5s-15 22.834 -15 39.501v13c0.666992 8 1.33398 13.667 2.00098 17c-31.333 -56 -67.666 -84 -108.999 -84
c-36.667 0 -65.334 13.667 -86.001 41s-31 63 -31 107c0 34 8.16699 69.167 24.5 105.5s38 69.666 65 99.999s60.5 55.166 100.5 74.499s81.667 29 125 29zM264.997 385.001c-20 0 -38.832 -10.168 -56.499 -30.501s-32 -44.833 -43 -73.5s-19.5 -57.167 -25.5 -85.5
s-9 -52.166 -9 -71.499c0 -37.333 10.333 -56 31 -56c21.333 0 42.666 23.167 63.999 69.5s37.333 96.5 48 150.5l18 90c-4.66699 4.66699 -13.667 7 -27 7z" />
    <glyph glyph-name="acircumflex" unicode="&#xe2;" horiz-adv-x="462" 
d="M394 510c-4.66699 0 -17.5 9.16797 -38.5 27.501s-37.167 33.833 -48.5 46.5c-17.333 -13.333 -39.833 -29 -67.5 -47s-43.834 -27 -48.501 -27c-5.33301 0 -6.33301 7.66699 -3 23c13.333 11.333 38.666 37.333 75.999 78c14.667 16.667 30.334 35.667 47.001 57
c4.66699 6.66699 9.66699 10 15 10c2.66699 0 5.66699 -3.33301 9 -10c0 -0.666992 2.83301 -7.16699 8.5 -19.5l15.5 -32.5c20 -38.667 36 -66.334 48 -83.001c-3.33301 -15.333 -7.66602 -23 -12.999 -23zM323 449.001c21.333 0 40.498 -2.33105 57.498 -6.99805
s29.167 -9.66699 36.5 -15l-58 -299c-1.33301 -4 -2 -11.667 -2 -23c0 -16 3.33301 -24 10 -24c9.33301 0 22.333 7 39 21s28 24.667 34 32c1.33301 0 4.83301 -3.33301 10.5 -10s8.5 -11.334 8.5 -14.001c-7.33301 -18 -31.166 -42.167 -71.499 -72.5
s-74.5 -45.5 -102.5 -45.5c-15.333 0 -28 4.83301 -38 14.5s-15 22.834 -15 39.501v13c0.666992 8 1.33398 13.667 2.00098 17c-31.333 -56 -67.666 -84 -108.999 -84c-36.667 0 -65.334 13.667 -86.001 41s-31 63 -31 107c0 34 8.16699 69.167 24.5 105.5
s38 69.666 65 99.999s60.5 55.166 100.5 74.499s81.667 29 125 29zM264.998 385.003c-20 0 -38.832 -10.168 -56.499 -30.501s-32 -44.833 -43 -73.5s-19.5 -57.167 -25.5 -85.5s-9 -52.166 -9 -71.499c0 -37.333 10.333 -56 31 -56c21.333 0 42.666 23.167 63.999 69.5
s37.333 96.5 48 150.5l18 90c-4.66699 4.66699 -13.667 7 -27 7z" />
    <glyph glyph-name="atilde" unicode="&#xe3;" horiz-adv-x="462" 
d="M246 629c19.333 0 41.834 -10.167 67.501 -30.5s48.167 -30.5 67.5 -30.5c10 0 23 8.16699 39 24.5s24.333 24.5 25 24.5c4 -2 6 -7.33301 6 -16c0 -11.333 -11.5 -29.333 -34.5 -54s-44.5 -37 -64.5 -37s-42.667 10 -68 30s-48 30 -68 30
c-8.66699 0 -21.334 -8.5 -38.001 -25.5s-26 -25.5 -28 -25.5c-3.33301 0 -5 6.33301 -5 19c0 16.667 12 36 36 58s45.667 33 65 33zM323.001 449c21.333 0 40.498 -2.33105 57.498 -6.99805s29.167 -9.66699 36.5 -15l-58 -299c-1.33301 -4 -2 -11.667 -2 -23
c0 -16 3.33301 -24 10 -24c9.33301 0 22.333 7 39 21s28 24.667 34 32c1.33301 0 4.83301 -3.33301 10.5 -10s8.5 -11.334 8.5 -14.001c-7.33301 -18 -31.166 -42.167 -71.499 -72.5s-74.5 -45.5 -102.5 -45.5c-15.333 0 -28 4.83301 -38 14.5s-15 22.834 -15 39.501v13
c0.666992 8 1.33398 13.667 2.00098 17c-31.333 -56 -67.666 -84 -108.999 -84c-36.667 0 -65.334 13.667 -86.001 41s-31 63 -31 107c0 34 8.16699 69.167 24.5 105.5s38 69.666 65 99.999s60.5 55.166 100.5 74.499s81.667 29 125 29zM264.999 385.002
c-20 0 -38.832 -10.168 -56.499 -30.501s-32 -44.833 -43 -73.5s-19.5 -57.167 -25.5 -85.5s-9 -52.166 -9 -71.499c0 -37.333 10.333 -56 31 -56c21.333 0 42.666 23.167 63.999 69.5s37.333 96.5 48 150.5l18 90c-4.66699 4.66699 -13.667 7 -27 7z" />
    <glyph glyph-name="adieresis" unicode="&#xe4;" horiz-adv-x="462" 
d="M416 657c16.667 0 30.5 -6 41.5 -18s16.5 -26.667 16.5 -44c0 -22 -7.83301 -41.667 -23.5 -59s-33.834 -26 -54.501 -26c-16.667 0 -30.5 6 -41.5 18s-16.5 27 -16.5 45c0 22 7.83301 41.5 23.5 58.5s33.834 25.5 54.501 25.5zM196 659c16.667 0 30.5 -6 41.5 -18
s16.5 -27 16.5 -45c0 -22 -7.83301 -41.5 -23.5 -58.5s-33.834 -25.5 -54.501 -25.5c-16.667 0 -30.5 6 -41.5 18s-16.5 26.667 -16.5 44c0 22 7.83301 41.667 23.5 59s33.834 26 54.501 26zM323 449c21.333 0 40.498 -2.33105 57.498 -6.99805s29.167 -9.66699 36.5 -15
l-58 -299c-1.33301 -4 -2 -11.667 -2 -23c0 -16 3.33301 -24 10 -24c9.33301 0 22.333 7 39 21s28 24.667 34 32c1.33301 0 4.83301 -3.33301 10.5 -10s8.5 -11.334 8.5 -14.001c-7.33301 -18 -31.166 -42.167 -71.499 -72.5s-74.5 -45.5 -102.5 -45.5
c-15.333 0 -28 4.83301 -38 14.5s-15 22.834 -15 39.501v13c0.666992 8 1.33398 13.667 2.00098 17c-31.333 -56 -67.666 -84 -108.999 -84c-36.667 0 -65.334 13.667 -86.001 41s-31 63 -31 107c0 34 8.16699 69.167 24.5 105.5s38 69.666 65 99.999
s60.5 55.166 100.5 74.499s81.667 29 125 29zM264.998 385.002c-20 0 -38.832 -10.168 -56.499 -30.501s-32 -44.833 -43 -73.5s-19.5 -57.167 -25.5 -85.5s-9 -52.166 -9 -71.499c0 -37.333 10.333 -56 31 -56c21.333 0 42.666 23.167 63.999 69.5s37.333 96.5 48 150.5
l18 90c-4.66699 4.66699 -13.667 7 -27 7z" />
    <glyph glyph-name="aring" unicode="&#xe5;" horiz-adv-x="462" 
d="M331 663c-17.333 0 -31.833 -7 -43.5 -21s-17.5 -29.333 -17.5 -46c0 -12 3.33301 -21.833 10 -29.5s16.667 -11.5 30 -11.5c17.333 0 31.833 7 43.5 21s17.5 29.333 17.5 46c0 12 -3.33301 21.833 -10 29.5s-16.667 11.5 -30 11.5zM340 707c22 0 39.833 -7.5 53.5 -22.5
s20.5 -33.833 20.5 -56.5c0 -30.667 -11.833 -58 -35.5 -82s-49.5 -36 -77.5 -36c-22 0 -39.833 7.5 -53.5 22.5s-20.5 33.833 -20.5 56.5c0 31.333 11.833 58.833 35.5 82.5s49.5 35.5 77.5 35.5zM323 449c21.333 0 40.498 -2.33105 57.498 -6.99805
s29.167 -9.66699 36.5 -15l-58 -299c-1.33301 -4 -2 -11.667 -2 -23c0 -16 3.33301 -24 10 -24c9.33301 0 22.333 7 39 21s28 24.667 34 32c1.33301 0 4.83301 -3.33301 10.5 -10s8.5 -11.334 8.5 -14.001c-7.33301 -18 -31.166 -42.167 -71.499 -72.5
s-74.5 -45.5 -102.5 -45.5c-15.333 0 -28 4.83301 -38 14.5s-15 22.834 -15 39.501v13c0.666992 8 1.33398 13.667 2.00098 17c-31.333 -56 -67.666 -84 -108.999 -84c-36.667 0 -65.334 13.667 -86.001 41s-31 63 -31 107c0 34 8.16699 69.167 24.5 105.5
s38 69.666 65 99.999s60.5 55.166 100.5 74.499s81.667 29 125 29zM264.998 385.002c-20 0 -38.832 -10.168 -56.499 -30.501s-32 -44.833 -43 -73.5s-19.5 -57.167 -25.5 -85.5s-9 -52.166 -9 -71.499c0 -37.333 10.333 -56 31 -56c21.333 0 42.666 23.167 63.999 69.5
s37.333 96.5 48 150.5l18 90c-4.66699 4.66699 -13.667 7 -27 7z" />
    <glyph glyph-name="ae" unicode="&#xe6;" horiz-adv-x="621" 
d="M495 449c32 0 59.1709 -8.66602 81.5039 -25.999s33.5 -40.333 33.5 -69c0 -32.667 -16.167 -61.5 -48.5 -86.5s-65.5 -42.5 -99.5 -52.5s-62 -15 -84 -15c-2.66699 0 -4 -3.33301 -4 -10c0 -46.667 8.16699 -80.334 24.5 -101.001s34.5 -31 54.5 -31
c12 0 25 5.66699 39 17s26 22.833 36 34.5s15.667 17.5 17 17.5c2 -0.666992 5.16699 -5.16699 9.5 -13.5s6.5 -13.5 6.5 -15.5c-6 -16 -24.333 -37.5 -55 -64.5s-64.334 -40.5 -101.001 -40.5c-56.667 0 -99 22.667 -127 68c-28.667 -46 -72.667 -69 -132 -69
c-38.667 0 -69.334 10.333 -92.001 31s-34 46.667 -34 78c0 22 5.33301 41 16 57s25.5 28.5 44.5 37.5s37.5 16.167 55.5 21.5s38.667 10.5 62 15.5s40.333 9.16699 51 12.5c5.33301 2 8.66602 6.66699 9.99902 14l9 48c2 12 3 23.667 3 35c0 31.333 -8.66699 47 -26 47
c-14.667 0 -29.5 -7.83301 -44.5 -23.5s-24.5 -35.5 -28.5 -59.5c-1.33301 -6.66699 -7.83301 -13 -19.5 -19s-23.834 -9 -36.501 -9c-28.667 0 -43 13 -43 39c0 30 22.167 59.5 66.5 88.5s89.166 43.5 134.499 43.5c42.667 0 73.334 -14.333 92.001 -43
c40.667 28.667 83.667 43 129 43zM232.004 110.001l13.999 77c-2.66699 -0.666992 -9.33398 -2.16699 -20.001 -4.5s-18 -4 -22 -5s-10.5 -3 -19.5 -6s-15.333 -6.16699 -19 -9.5s-8 -7.5 -13 -12.5s-8.5 -11 -10.5 -18s-3 -14.833 -3 -23.5
c0 -13.333 3.66699 -23.5 11 -30.5s16.333 -10.5 27 -10.5c12.667 0 24.334 4 35.001 12s17.334 18.333 20.001 31zM472.003 394.001c-12 0 -25.332 -5.5 -39.999 -16.5s-26.334 -25.5 -35.001 -43.5c-12 -25.333 -18 -51 -18 -77c0 -2.66699 1.33301 -4 4 -4
c32.667 0 59.667 10.833 81 32.5s32 45.167 32 70.5s-8 38 -24 38z" />
    <glyph glyph-name="ccedilla" unicode="&#xe7;" horiz-adv-x="371" 
d="M130 -1l35.999 0.000976562l-22 -31c8.66699 0.666992 16 1 22 1c14 0 25.5 -4.83301 34.5 -14.5s13.5 -21.5 13.5 -35.5c0 -8 -2 -17.167 -6 -27.5s-10.333 -21.333 -19 -33s-21.834 -21.5 -39.501 -29.5s-38.167 -12 -61.5 -12c-27.333 0 -45.333 2.66699 -54 8
c-3.33301 7.33301 -5 15.666 -5 24.999c0 6.66699 2.5 12.667 7.5 18s9.83301 8 14.5 8c6 0 14 -3.5 24 -10.5s19.333 -10.5 28 -10.5c16 0 28.5 4.33301 37.5 13s13.5 18.334 13.5 29.001c0 16.667 -7 25 -21 25c-11.333 0 -22.666 -2.33301 -33.999 -7
c-1.33301 0 -4.16602 2.5 -8.49902 7.5s-5.5 8.5 -3.5 10.5l21.5 33.5c10.333 16.333 17.5 27.166 21.5 32.499zM251.999 449.001c48 0 85.3311 -14.999 111.998 -44.999c4.66699 -14 7 -25 7 -33c0 -16.667 -4.33301 -31 -13 -43s-20 -18 -34 -18
c-11.333 0 -20.666 4.33301 -27.999 13s-12.5 18.334 -15.5 29.001s-7.83301 20.334 -14.5 29.001s-15 13 -25 13c-18 0 -35.333 -12 -52 -36s-29.834 -53.333 -39.501 -88s-14.5 -68.334 -14.5 -101.001c0 -67.333 21.333 -101 64 -101c20 0 40 7.16699 60 21.5
s33.667 26.5 41 36.5c1.33301 0 4.83301 -3.33301 10.5 -10s8.5 -11.334 8.5 -14.001c-8 -18.667 -29.667 -41.334 -65 -68.001s-68.666 -40 -99.999 -40c-49.333 0 -85.833 14.5 -109.5 43.5s-35.5 68.5 -35.5 118.5c0 49.333 11.333 96.833 34 142.5
s52.834 82.167 90.501 109.5s77.167 41 118.5 41z" />
    <glyph glyph-name="egrave" unicode="&#xe8;" horiz-adv-x="393" 
d="M293 482c-11.333 0 -40.666 13.501 -87.999 40.501s-71 48.833 -71 65.5c0 9.33301 5.5 19 16.5 29s24.167 15 39.5 15c5.33301 0 9.66602 -1 12.999 -3c14 -13.333 34.833 -36.333 62.5 -69s41.5 -51.334 41.5 -56.001c0 -3.33301 -1.66699 -7.83301 -5 -13.5
s-6.33301 -8.5 -9 -8.5zM251 449.001c34.667 0 64.666 -8.3291 89.999 -24.9961s38 -39.334 38 -68.001c0 -24.667 -10 -48.667 -30 -72s-43.667 -42.333 -71 -57s-53.833 -26.334 -79.5 -35.001s-45.5 -13 -59.5 -13c-2.66699 0 -4 -3.33301 -4 -10
c0 -39.333 5.83301 -66 17.5 -80s27.167 -21 46.5 -21c20 0 40 7.16699 60 21.5s33.667 26.5 41 36.5c1.33301 0 4.83301 -3.33301 10.5 -10s8.5 -11.334 8.5 -14.001c-8 -18.667 -29.667 -41.334 -65 -68.001s-68.666 -40 -99.999 -40c-48 0 -84.167 14.167 -108.5 42.5
s-36.5 68.5 -36.5 120.5c0 48 11.167 94.667 33.5 140s52.333 82 90 110s77.167 42 118.5 42zM240.999 395.005c-17.333 0 -37.5 -18.168 -60.5 -54.501s-34.5 -72.166 -34.5 -107.499c0 -2.66699 1.33301 -4 4 -4c31.333 0 58.333 14.333 81 43s34 56.667 34 84
c0 26 -8 39 -24 39z" />
    <glyph glyph-name="eacute" unicode="&#xe9;" horiz-adv-x="393" 
d="M272 482c-2.66699 0 -5.66797 2.83203 -9.00098 8.49902s-5 10.167 -5 13.5c0 4.66699 13.833 23.334 41.5 56.001s48.5 55.667 62.5 69c2.66699 2 7 3 13 3c15.333 0 28.5 -5 39.5 -15s16.5 -19.667 16.5 -29c0 -16.667 -23.667 -38.5 -71 -65.5
s-76.666 -40.5 -87.999 -40.5zM250.999 448.999c34.667 0 64.666 -8.3291 89.999 -24.9961s38 -39.334 38 -68.001c0 -24.667 -10 -48.667 -30 -72s-43.667 -42.333 -71 -57s-53.833 -26.334 -79.5 -35.001s-45.5 -13 -59.5 -13c-2.66699 0 -4 -3.33301 -4 -10
c0 -39.333 5.83301 -66 17.5 -80s27.167 -21 46.5 -21c20 0 40 7.16699 60 21.5s33.667 26.5 41 36.5c1.33301 0 4.83301 -3.33301 10.5 -10s8.5 -11.334 8.5 -14.001c-8 -18.667 -29.667 -41.334 -65 -68.001s-68.666 -40 -99.999 -40c-48 0 -84.167 14.167 -108.5 42.5
s-36.5 68.5 -36.5 120.5c0 48 11.167 94.667 33.5 140s52.333 82 90 110s77.167 42 118.5 42zM240.998 395.003c-17.333 0 -37.5 -18.168 -60.5 -54.501s-34.5 -72.166 -34.5 -107.499c0 -2.66699 1.33301 -4 4 -4c31.333 0 58.333 14.333 81 43s34 56.667 34 84
c0 26 -8 39 -24 39z" />
    <glyph glyph-name="ecircumflex" unicode="&#xea;" horiz-adv-x="393" 
d="M352 510c-4.66699 0 -17.5 9.16797 -38.5 27.501s-37.167 33.833 -48.5 46.5c-17.333 -13.333 -39.833 -29 -67.5 -47s-43.834 -27 -48.501 -27c-5.33301 0 -6.33301 7.66699 -3 23c13.333 11.333 38.666 37.333 75.999 78c14.667 16.667 30.334 35.667 47.001 57
c4.66699 6.66699 9.66699 10 15 10c2.66699 0 5.66699 -3.33301 9 -10c0 -0.666992 2.83301 -7.16699 8.5 -19.5l15.5 -32.5c20 -38.667 36 -66.334 48 -83.001c-3.33301 -15.333 -7.66602 -23 -12.999 -23zM251 449.001c34.667 0 64.666 -8.3291 89.999 -24.9961
s38 -39.334 38 -68.001c0 -24.667 -10 -48.667 -30 -72s-43.667 -42.333 -71 -57s-53.833 -26.334 -79.5 -35.001s-45.5 -13 -59.5 -13c-2.66699 0 -4 -3.33301 -4 -10c0 -39.333 5.83301 -66 17.5 -80s27.167 -21 46.5 -21c20 0 40 7.16699 60 21.5s33.667 26.5 41 36.5
c1.33301 0 4.83301 -3.33301 10.5 -10s8.5 -11.334 8.5 -14.001c-8 -18.667 -29.667 -41.334 -65 -68.001s-68.666 -40 -99.999 -40c-48 0 -84.167 14.167 -108.5 42.5s-36.5 68.5 -36.5 120.5c0 48 11.167 94.667 33.5 140s52.333 82 90 110s77.167 42 118.5 42z
M240.999 395.005c-17.333 0 -37.5 -18.168 -60.5 -54.501s-34.5 -72.166 -34.5 -107.499c0 -2.66699 1.33301 -4 4 -4c31.333 0 58.333 14.333 81 43s34 56.667 34 84c0 26 -8 39 -24 39z" />
    <glyph glyph-name="edieresis" unicode="&#xeb;" horiz-adv-x="393" 
d="M402 657c16.667 0 30.5 -6 41.5 -18s16.5 -26.667 16.5 -44c0 -22 -7.83301 -41.667 -23.5 -59s-33.834 -26 -54.501 -26c-16.667 0 -30.5 6 -41.5 18s-16.5 27 -16.5 45c0 22 7.83301 41.5 23.5 58.5s33.834 25.5 54.501 25.5zM182 659c16.667 0 30.5 -6 41.5 -18
s16.5 -27 16.5 -45c0 -22 -7.83301 -41.5 -23.5 -58.5s-33.834 -25.5 -54.501 -25.5c-16.667 0 -30.5 6 -41.5 18s-16.5 26.667 -16.5 44c0 22 7.83301 41.667 23.5 59s33.834 26 54.501 26zM251 449c34.667 0 64.666 -8.3291 89.999 -24.9961s38 -39.334 38 -68.001
c0 -24.667 -10 -48.667 -30 -72s-43.667 -42.333 -71 -57s-53.833 -26.334 -79.5 -35.001s-45.5 -13 -59.5 -13c-2.66699 0 -4 -3.33301 -4 -10c0 -39.333 5.83301 -66 17.5 -80s27.167 -21 46.5 -21c20 0 40 7.16699 60 21.5s33.667 26.5 41 36.5
c1.33301 0 4.83301 -3.33301 10.5 -10s8.5 -11.334 8.5 -14.001c-8 -18.667 -29.667 -41.334 -65 -68.001s-68.666 -40 -99.999 -40c-48 0 -84.167 14.167 -108.5 42.5s-36.5 68.5 -36.5 120.5c0 48 11.167 94.667 33.5 140s52.333 82 90 110s77.167 42 118.5 42z
M240.999 395.004c-17.333 0 -37.5 -18.168 -60.5 -54.501s-34.5 -72.166 -34.5 -107.499c0 -2.66699 1.33301 -4 4 -4c31.333 0 58.333 14.333 81 43s34 56.667 34 84c0 26 -8 39 -24 39z" />
    <glyph glyph-name="igrave" unicode="&#xec;" horiz-adv-x="314" 
d="M219 482c-11.333 0 -40.666 13.501 -87.999 40.501s-71 48.833 -71 65.5c0 9.33301 5.5 19 16.5 29s24.167 15 39.5 15c5.33301 0 9.66602 -1 12.999 -3c14 -13.333 34.833 -36.333 62.5 -69s41.5 -51.334 41.5 -56.001c0 -3.33301 -1.66699 -7.83301 -5 -13.5
s-6.33301 -8.5 -9 -8.5zM163 449.001c20 0 37.5 -7.49902 52.5 -22.499s22.5 -39.5 22.5 -73.5c0 -16.667 -13.333 -91.667 -40 -225c-1.33301 -4 -2 -9.33301 -2 -16c0 -20 6.66699 -30 20 -30c4.66699 0 11.167 4.66699 19.5 14s15.5 18.833 21.5 28.5
s9.33301 14.5 10 14.5c4 0 9.66699 -3.16699 17 -9.5s12 -12.833 14 -19.5c-10 -24.667 -28 -50.667 -54 -78s-56.667 -41 -92 -41c-22 0 -40 8.16699 -54 24.5s-21 40.166 -21 71.499c0 4.66699 1.66699 17 5 37l35 188c1.33301 4 2 9.33301 2 16c0 20 -6.66699 30 -20 30
c-4.66699 0 -11.167 -4.66699 -19.5 -14s-15.5 -18.833 -21.5 -28.5s-9.33301 -14.5 -10 -14.5c-4 0 -9.66699 3.16699 -17 9.5s-12 12.833 -14 19.5c10 24.667 28 50.667 54 78s56.667 41 92 41z" />
    <glyph glyph-name="iacute" unicode="&#xed;" horiz-adv-x="314" 
d="M159 482c-2.66699 0 -5.66797 2.83203 -9.00098 8.49902s-5 10.167 -5 13.5c0 4.66699 13.833 23.334 41.5 56.001s48.5 55.667 62.5 69c2.66699 2 7 3 13 3c15.333 0 28.5 -5 39.5 -15s16.5 -19.667 16.5 -29c0 -16.667 -23.667 -38.5 -71 -65.5
s-76.666 -40.5 -87.999 -40.5zM162.999 448.999c20 0 37.5 -7.49902 52.5 -22.499s22.5 -39.5 22.5 -73.5c0 -16.667 -13.333 -91.667 -40 -225c-1.33301 -4 -2 -9.33301 -2 -16c0 -20 6.66699 -30 20 -30c4.66699 0 11.167 4.66699 19.5 14s15.5 18.833 21.5 28.5
s9.33301 14.5 10 14.5c4 0 9.66699 -3.16699 17 -9.5s12 -12.833 14 -19.5c-10 -24.667 -28 -50.667 -54 -78s-56.667 -41 -92 -41c-22 0 -40 8.16699 -54 24.5s-21 40.166 -21 71.499c0 4.66699 1.66699 17 5 37l35 188c1.33301 4 2 9.33301 2 16c0 20 -6.66699 30 -20 30
c-4.66699 0 -11.167 -4.66699 -19.5 -14s-15.5 -18.833 -21.5 -28.5s-9.33301 -14.5 -10 -14.5c-4 0 -9.66699 3.16699 -17 9.5s-12 12.833 -14 19.5c10 24.667 28 50.667 54 78s56.667 41 92 41z" />
    <glyph glyph-name="icircumflex" unicode="&#xee;" horiz-adv-x="314" 
d="M279 510c-4.66699 0 -17.5 9.16797 -38.5 27.501s-37.167 33.833 -48.5 46.5c-17.333 -13.333 -39.833 -29 -67.5 -47s-43.834 -27 -48.501 -27c-5.33301 0 -6.33301 7.66699 -3 23c13.333 11.333 38.666 37.333 75.999 78c14.667 16.667 30.334 35.667 47.001 57
c4.66699 6.66699 9.66699 10 15 10c2.66699 0 5.66699 -3.33301 9 -10c0 -0.666992 2.83301 -7.16699 8.5 -19.5l15.5 -32.5c20 -38.667 36 -66.334 48 -83.001c-3.33301 -15.333 -7.66602 -23 -12.999 -23zM163 449.001c20 0 37.5 -7.49902 52.5 -22.499
s22.5 -39.5 22.5 -73.5c0 -16.667 -13.333 -91.667 -40 -225c-1.33301 -4 -2 -9.33301 -2 -16c0 -20 6.66699 -30 20 -30c4.66699 0 11.167 4.66699 19.5 14s15.5 18.833 21.5 28.5s9.33301 14.5 10 14.5c4 0 9.66699 -3.16699 17 -9.5s12 -12.833 14 -19.5
c-10 -24.667 -28 -50.667 -54 -78s-56.667 -41 -92 -41c-22 0 -40 8.16699 -54 24.5s-21 40.166 -21 71.499c0 4.66699 1.66699 17 5 37l35 188c1.33301 4 2 9.33301 2 16c0 20 -6.66699 30 -20 30c-4.66699 0 -11.167 -4.66699 -19.5 -14s-15.5 -18.833 -21.5 -28.5
s-9.33301 -14.5 -10 -14.5c-4 0 -9.66699 3.16699 -17 9.5s-12 12.833 -14 19.5c10 24.667 28 50.667 54 78s56.667 41 92 41z" />
    <glyph glyph-name="idieresis" unicode="&#xef;" horiz-adv-x="314" 
d="M305 657c16.667 0 30.5 -6 41.5 -18s16.5 -26.667 16.5 -44c0 -22 -7.83301 -41.667 -23.5 -59s-33.834 -26 -54.501 -26c-16.667 0 -30.5 6 -41.5 18s-16.5 27 -16.5 45c0 22 7.83301 41.5 23.5 58.5s33.834 25.5 54.501 25.5zM113 659c16.667 0 30.5 -6 41.5 -18
s16.5 -27 16.5 -45c0 -22 -7.83301 -41.5 -23.5 -58.5s-33.834 -25.5 -54.501 -25.5c-16.667 0 -30.5 6 -41.5 18s-16.5 26.667 -16.5 44c0 22 7.83301 41.667 23.5 59s33.834 26 54.501 26zM163 449c20 0 37.5 -7.49902 52.5 -22.499s22.5 -39.5 22.5 -73.5
c0 -16.667 -13.333 -91.667 -40 -225c-1.33301 -4 -2 -9.33301 -2 -16c0 -20 6.66699 -30 20 -30c4.66699 0 11.167 4.66699 19.5 14s15.5 18.833 21.5 28.5s9.33301 14.5 10 14.5c4 0 9.66699 -3.16699 17 -9.5s12 -12.833 14 -19.5c-10 -24.667 -28 -50.667 -54 -78
s-56.667 -41 -92 -41c-22 0 -40 8.16699 -54 24.5s-21 40.166 -21 71.499c0 4.66699 1.66699 17 5 37l35 188c1.33301 4 2 9.33301 2 16c0 20 -6.66699 30 -20 30c-4.66699 0 -11.167 -4.66699 -19.5 -14s-15.5 -18.833 -21.5 -28.5s-9.33301 -14.5 -10 -14.5
c-4 0 -9.66699 3.16699 -17 9.5s-12 12.833 -14 19.5c10 24.667 28 50.667 54 78s56.667 41 92 41z" />
    <glyph glyph-name="eth" unicode="&#xf0;" horiz-adv-x="431" 
d="M257 342c-31.333 0 -59 -22.667 -83 -68s-36 -101.333 -36 -168c0 -37.333 13 -56 39 -56c46 0 79 52.333 99 157c10 54 15 89 15 105c0 10 -3.5 17.5 -10.5 22.5s-14.833 7.5 -23.5 7.5zM235 399c20.667 0 38.665 -4 53.998 -12l2 -1c3.33301 0 5 7.66699 5 23
c0 54 -19.333 107.333 -58 160l-92 -103c-6 0 -13.167 3.83301 -21.5 11.5s-12.5 13.5 -12.5 17.5c0 2.66699 0.666992 4.66699 2 6l93 104c-22 22 -45.333 39.667 -70 53c0 7.33301 2.33301 15 7 23s10.334 12.667 17.001 14c30.667 -16.667 57.334 -33.667 80.001 -51
l93 106c0.666992 0.666992 3.66699 -0.666016 9 -3.99902s10.666 -7.33301 15.999 -12s8 -8.66699 8 -12c0 -2.66699 -1 -5.66699 -3 -9l-87 -100c91.333 -85.333 137 -186.666 137 -303.999c0 -50.667 -7.83301 -96.834 -23.5 -138.501s-36 -74.834 -61 -99.501
s-51.667 -43.667 -80 -57s-56.166 -20 -83.499 -20c-42 0 -76.833 16.167 -104.5 48.5s-41.5 71.833 -41.5 118.5c0 61.333 22.833 116.333 68.5 165s94.5 73 146.5 73z" />
    <glyph glyph-name="ntilde" unicode="&#xf1;" horiz-adv-x="513" 
d="M235 629c19.333 0 41.834 -10.167 67.501 -30.5s48.167 -30.5 67.5 -30.5c10 0 23 8.16699 39 24.5s24.333 24.5 25 24.5c4 -2 6 -7.33301 6 -16c0 -11.333 -11.5 -29.333 -34.5 -54s-44.5 -37 -64.5 -37s-42.667 10 -68 30s-48 30 -68 30
c-8.66699 0 -21.334 -8.5 -38.001 -25.5s-26 -25.5 -28 -25.5c-3.33301 0 -5 6.33301 -5 19c0 16.667 12 36 36 58s45.667 33 65 33zM176.001 449c15.333 0 28.001 -4.83203 38.001 -14.499s15 -23.834 15 -42.501c0 -8 -2.66699 -29.333 -8 -64
c0 -1.33301 -0.166992 -2.83301 -0.5 -4.5s-0.833008 -4.5 -1.5 -8.5s-1.16699 -7.16699 -1.5 -9.5l-0.5 -3.5c17.333 35.333 40 68.666 68 99.999s53 47 75 47c29.333 0 51 -10.333 65 -31s21 -46.667 21 -78c0 -16 -5.33301 -51.667 -16 -107l-20 -105
c-1.33301 -4 -2 -11.667 -2 -23c0 -16 3.33301 -24 10 -24c9.33301 0 22.5 7 39.5 21s28.167 24.667 33.5 32c2 0 5.66699 -3.33301 11 -10s8 -11.334 8 -14.001c-7.33301 -18 -31.166 -42.167 -71.499 -72.5s-74.5 -45.5 -102.5 -45.5
c-14.667 0 -27.167 4.83301 -37.5 14.5s-15.5 23.834 -15.5 42.501c0 19.333 3.33301 44 10 74l23 119c6.66699 33.333 10 52.666 10 57.999c0 14 -2.16699 24.333 -6.5 31s-11.833 10 -22.5 10c-16.667 0 -38.334 -28.333 -65.001 -85s-44.667 -107 -54 -151l-21 -105
c-13.333 -4 -32 -6 -56 -6c-23.333 0 -43 2 -59 6l60 313c1.33301 6.66699 2 14.334 2 23.001c0 16 -3.33301 24 -10 24c-9.33301 0 -22.5 -7 -39.5 -21s-28.167 -24.667 -33.5 -32c-1.33301 0 -4.83301 3.33301 -10.5 10s-8.5 11.334 -8.5 14.001
c7.33301 18 31.166 42.167 71.499 72.5s74.5 45.5 102.5 45.5z" />
    <glyph glyph-name="ograve" unicode="&#xf2;" horiz-adv-x="407" 
d="M297 482c-11.333 0 -40.666 13.501 -87.999 40.501s-71 48.833 -71 65.5c0 9.33301 5.5 19 16.5 29s24.167 15 39.5 15c5.33301 0 9.66602 -1 12.999 -3c14 -13.333 34.833 -36.333 62.5 -69s41.5 -51.334 41.5 -56.001c0 -3.33301 -1.66699 -7.83301 -5 -13.5
s-6.33301 -8.5 -9 -8.5zM240 396.001c-19.333 0 -37.499 -15.5 -54.499 -46.5s-30.167 -68.5 -39.5 -112.5s-13.666 -86.333 -12.999 -127c1.33301 -42 12.333 -63 33 -63s39.667 16.833 57 50.5s30.166 72 38.499 115s12.166 82.833 11.499 119.5
c-1.33301 42.667 -12.333 64 -33 64zM250.001 449.001c51.333 0 88.665 -14.833 111.998 -44.5s35 -68.834 35 -117.501c0 -49.333 -10.667 -96.5 -32 -141.5s-50.666 -81.5 -87.999 -109.5s-77.666 -42 -120.999 -42c-52 0 -89.5 14.833 -112.5 44.5
s-34.5 68.834 -34.5 117.501c0 45.333 10.5 90.5 31.5 135.5s50.333 82.5 88 112.5s78.167 45 121.5 45z" />
    <glyph glyph-name="oacute" unicode="&#xf3;" horiz-adv-x="407" 
d="M231 482c-2.66699 0 -5.66797 2.83203 -9.00098 8.49902s-5 10.167 -5 13.5c0 4.66699 13.833 23.334 41.5 56.001s48.5 55.667 62.5 69c2.66699 2 7 3 13 3c15.333 0 28.5 -5 39.5 -15s16.5 -19.667 16.5 -29c0 -16.667 -23.667 -38.5 -71 -65.5
s-76.666 -40.5 -87.999 -40.5zM239.999 395.999c-19.333 0 -37.499 -15.5 -54.499 -46.5s-30.167 -68.5 -39.5 -112.5s-13.666 -86.333 -12.999 -127c1.33301 -42 12.333 -63 33 -63s39.667 16.833 57 50.5s30.166 72 38.499 115s12.166 82.833 11.499 119.5
c-1.33301 42.667 -12.333 64 -33 64zM250 448.999c51.333 0 88.665 -14.833 111.998 -44.5s35 -68.834 35 -117.501c0 -49.333 -10.667 -96.5 -32 -141.5s-50.666 -81.5 -87.999 -109.5s-77.666 -42 -120.999 -42c-52 0 -89.5 14.833 -112.5 44.5
s-34.5 68.834 -34.5 117.501c0 45.333 10.5 90.5 31.5 135.5s50.333 82.5 88 112.5s78.167 45 121.5 45z" />
    <glyph glyph-name="ocircumflex" unicode="&#xf4;" horiz-adv-x="407" 
d="M372 510c-4.66699 0 -17.5 9.16797 -38.5 27.501s-37.167 33.833 -48.5 46.5c-17.333 -13.333 -39.833 -29 -67.5 -47s-43.834 -27 -48.501 -27c-5.33301 0 -6.33301 7.66699 -3 23c13.333 11.333 38.666 37.333 75.999 78c14.667 16.667 30.334 35.667 47.001 57
c4.66699 6.66699 9.66699 10 15 10c2.66699 0 5.66699 -3.33301 9 -10c0 -0.666992 2.83301 -7.16699 8.5 -19.5l15.5 -32.5c20 -38.667 36 -66.334 48 -83.001c-3.33301 -15.333 -7.66602 -23 -12.999 -23zM240 396.001c-19.333 0 -37.499 -15.5 -54.499 -46.5
s-30.167 -68.5 -39.5 -112.5s-13.666 -86.333 -12.999 -127c1.33301 -42 12.333 -63 33 -63s39.667 16.833 57 50.5s30.166 72 38.499 115s12.166 82.833 11.499 119.5c-1.33301 42.667 -12.333 64 -33 64zM250.001 449.001c51.333 0 88.665 -14.833 111.998 -44.5
s35 -68.834 35 -117.501c0 -49.333 -10.667 -96.5 -32 -141.5s-50.666 -81.5 -87.999 -109.5s-77.666 -42 -120.999 -42c-52 0 -89.5 14.833 -112.5 44.5s-34.5 68.834 -34.5 117.501c0 45.333 10.5 90.5 31.5 135.5s50.333 82.5 88 112.5s78.167 45 121.5 45z" />
    <glyph glyph-name="otilde" unicode="&#xf5;" horiz-adv-x="407" 
d="M230 629c19.333 0 41.834 -10.167 67.501 -30.5s48.167 -30.5 67.5 -30.5c10 0 23 8.16699 39 24.5s24.333 24.5 25 24.5c4 -2 6 -7.33301 6 -16c0 -11.333 -11.5 -29.333 -34.5 -54s-44.5 -37 -64.5 -37s-42.667 10 -68 30s-48 30 -68 30
c-8.66699 0 -21.334 -8.5 -38.001 -25.5s-26 -25.5 -28 -25.5c-3.33301 0 -5 6.33301 -5 19c0 16.667 12 36 36 58s45.667 33 65 33zM240.001 396c-19.333 0 -37.499 -15.5 -54.499 -46.5s-30.167 -68.5 -39.5 -112.5s-13.666 -86.333 -12.999 -127
c1.33301 -42 12.333 -63 33 -63s39.667 16.833 57 50.5s30.166 72 38.499 115s12.166 82.833 11.499 119.5c-1.33301 42.667 -12.333 64 -33 64zM250.002 449c51.333 0 88.665 -14.833 111.998 -44.5s35 -68.834 35 -117.501c0 -49.333 -10.667 -96.5 -32 -141.5
s-50.666 -81.5 -87.999 -109.5s-77.666 -42 -120.999 -42c-52 0 -89.5 14.833 -112.5 44.5s-34.5 68.834 -34.5 117.501c0 45.333 10.5 90.5 31.5 135.5s50.333 82.5 88 112.5s78.167 45 121.5 45z" />
    <glyph glyph-name="odieresis" unicode="&#xf6;" horiz-adv-x="407" 
d="M398 657c16.667 0 30.5 -6 41.5 -18s16.5 -26.667 16.5 -44c0 -22 -7.83301 -41.667 -23.5 -59s-33.834 -26 -54.501 -26c-16.667 0 -30.5 6 -41.5 18s-16.5 27 -16.5 45c0 22 7.83301 41.5 23.5 58.5s33.834 25.5 54.501 25.5zM178 659c16.667 0 30.5 -6 41.5 -18
s16.5 -27 16.5 -45c0 -22 -7.83301 -41.5 -23.5 -58.5s-33.834 -25.5 -54.501 -25.5c-16.667 0 -30.5 6 -41.5 18s-16.5 26.667 -16.5 44c0 22 7.83301 41.667 23.5 59s33.834 26 54.501 26zM240 396c-19.333 0 -37.499 -15.5 -54.499 -46.5s-30.167 -68.5 -39.5 -112.5
s-13.666 -86.333 -12.999 -127c1.33301 -42 12.333 -63 33 -63s39.667 16.833 57 50.5s30.166 72 38.499 115s12.166 82.833 11.499 119.5c-1.33301 42.667 -12.333 64 -33 64zM250.001 449c51.333 0 88.665 -14.833 111.998 -44.5s35 -68.834 35 -117.501
c0 -49.333 -10.667 -96.5 -32 -141.5s-50.666 -81.5 -87.999 -109.5s-77.666 -42 -120.999 -42c-52 0 -89.5 14.833 -112.5 44.5s-34.5 68.834 -34.5 117.501c0 45.333 10.5 90.5 31.5 135.5s50.333 82.5 88 112.5s78.167 45 121.5 45z" />
    <glyph glyph-name="divide" unicode="&#xf7;" horiz-adv-x="464" 
d="M273 498c14.667 0 26.667 -5 36 -15s14 -22.667 14 -38c0 -18.667 -6.66699 -35.5 -20 -50.5s-29 -22.5 -47 -22.5c-14.667 0 -26.667 5.16699 -36 15.5s-14 23.166 -14 38.499c0 18.667 6.66699 35.334 20 50.001s29 22 47 22zM201 126c14.667 0 26.667 -5 36 -15
s14 -22.667 14 -38c0 -18.667 -6.66699 -35.5 -20 -50.5s-29 -22.5 -47 -22.5c-14.667 0 -26.667 5.16699 -36 15.5s-14 23.166 -14 38.499c0 18.667 6.66699 35.334 20 50.001s29 22 47 22zM30 285h425c2.66699 0 4 -6 4 -18c0 -18.667 -8.66699 -36.667 -26 -54h-425
c-2.66699 0 -4 6 -4 18c0 18.667 8.66699 36.667 26 54z" />
    <glyph glyph-name="oslash" unicode="&#xf8;" horiz-adv-x="439" 
d="M194 53c28 0 53 24.332 75 72.999s33 102.334 33 161.001v10l-146 -207c9.33301 -24.667 22 -37 38 -37zM255 388.999c-26 0 -50.667 -24.668 -74 -74.001s-35 -102.666 -35 -159.999v-3l144 206c-8 20.667 -19.667 31 -35 31zM276 448.998
c23.333 0 45.332 -5.99512 65.999 -17.9951l12 18c4.66699 1.33301 12 -0.833984 22 -6.50098s15 -11.167 15 -16.5c0 -2.66699 -0.333008 -4.33398 -1 -5.00098l-13 -19c30 -34 45 -74.667 45 -122c0 -77.333 -23.833 -144.5 -71.5 -201.5s-106.834 -85.5 -177.501 -85.5
c-27.333 0 -51 7 -71 21l-16 -22c-5.33301 -0.666992 -12.666 1.16602 -21.999 5.49902s-14 8.83301 -14 13.5c0 3.33301 0.666992 5.66602 2 6.99902l18 25c-28.667 35.333 -43 76.666 -43 123.999c0 76 23.833 142 71.5 198s106.834 84 177.501 84z" />
    <glyph glyph-name="ugrave" unicode="&#xf9;" horiz-adv-x="513" 
d="M284 482c-11.333 0 -40.666 13.501 -87.999 40.501s-71 48.833 -71 65.5c0 9.33301 5.5 19 16.5 29s24.167 15 39.5 15c5.33301 0 9.66602 -1 12.999 -3c14 -13.333 34.833 -36.333 62.5 -69s41.5 -51.334 41.5 -56.001c0 -3.33301 -1.66699 -7.83301 -5 -13.5
s-6.33301 -8.5 -9 -8.5zM175 449.001c15.333 0 28.001 -4.83105 38.001 -14.498s15 -23.834 15 -42.501c0 -19.333 -3.33301 -44 -10 -74l-23 -119c-0.666992 -2.66699 -1.83398 -8.33398 -3.50098 -17.001s-3.16699 -16.834 -4.5 -24.501s-2 -13.167 -2 -16.5
c0 -14 2.16699 -24.333 6.5 -31s11.833 -10 22.5 -10c16.667 0 38.5 28.333 65.5 85s44.833 107 53.5 151l21 105c13.333 4 32 6 56 6c23.333 0 43 -2 59 -6l-60 -313c-1.33301 -6.66699 -2 -14.334 -2 -23.001c0 -16 3.33301 -24 10 -24c9.33301 0 22.5 7 39.5 21
s28.167 24.667 33.5 32c2 0 5.66699 -3.33301 11 -10s8 -11.334 8 -14.001c-7.33301 -18 -31.166 -42.167 -71.499 -72.5s-74.5 -45.5 -102.5 -45.5c-14.667 0 -27.167 4.83301 -37.5 14.5s-15.5 23.834 -15.5 42.501c0 10.667 2.66699 32 8 64
c0 1.33301 0.166992 2.83301 0.5 4.5s0.833008 4.5 1.5 8.5s1.16699 7.16699 1.5 9.5l0.5 3.5c-17.333 -35.333 -40 -68.666 -68 -99.999s-53 -47 -75 -47c-29.333 0 -51 10.333 -65 31s-21 46.667 -21 78c0 16 5.33301 51.667 16 107l20 105c1.33301 4 2 11.667 2 23
c0 16 -3.33301 24 -10 24c-9.33301 0 -22.5 -7 -39.5 -21s-28.167 -24.667 -33.5 -32c-1.33301 0 -4.83301 3.33301 -10.5 10s-8.5 11.334 -8.5 14.001c7.33301 18 31.166 42.167 71.499 72.5s74.5 45.5 102.5 45.5z" />
    <glyph glyph-name="uacute" unicode="&#xfa;" horiz-adv-x="513" 
d="M257 482c-2.66699 0 -5.66797 2.83203 -9.00098 8.49902s-5 10.167 -5 13.5c0 4.66699 13.833 23.334 41.5 56.001s48.5 55.667 62.5 69c2.66699 2 7 3 13 3c15.333 0 28.5 -5 39.5 -15s16.5 -19.667 16.5 -29c0 -16.667 -23.667 -38.5 -71 -65.5
s-76.666 -40.5 -87.999 -40.5zM174.999 448.999c15.333 0 28.001 -4.83105 38.001 -14.498s15 -23.834 15 -42.501c0 -19.333 -3.33301 -44 -10 -74l-23 -119c-0.666992 -2.66699 -1.83398 -8.33398 -3.50098 -17.001s-3.16699 -16.834 -4.5 -24.501s-2 -13.167 -2 -16.5
c0 -14 2.16699 -24.333 6.5 -31s11.833 -10 22.5 -10c16.667 0 38.5 28.333 65.5 85s44.833 107 53.5 151l21 105c13.333 4 32 6 56 6c23.333 0 43 -2 59 -6l-60 -313c-1.33301 -6.66699 -2 -14.334 -2 -23.001c0 -16 3.33301 -24 10 -24c9.33301 0 22.5 7 39.5 21
s28.167 24.667 33.5 32c2 0 5.66699 -3.33301 11 -10s8 -11.334 8 -14.001c-7.33301 -18 -31.166 -42.167 -71.499 -72.5s-74.5 -45.5 -102.5 -45.5c-14.667 0 -27.167 4.83301 -37.5 14.5s-15.5 23.834 -15.5 42.501c0 10.667 2.66699 32 8 64
c0 1.33301 0.166992 2.83301 0.5 4.5s0.833008 4.5 1.5 8.5s1.16699 7.16699 1.5 9.5l0.5 3.5c-17.333 -35.333 -40 -68.666 -68 -99.999s-53 -47 -75 -47c-29.333 0 -51 10.333 -65 31s-21 46.667 -21 78c0 16 5.33301 51.667 16 107l20 105c1.33301 4 2 11.667 2 23
c0 16 -3.33301 24 -10 24c-9.33301 0 -22.5 -7 -39.5 -21s-28.167 -24.667 -33.5 -32c-1.33301 0 -4.83301 3.33301 -10.5 10s-8.5 11.334 -8.5 14.001c7.33301 18 31.166 42.167 71.499 72.5s74.5 45.5 102.5 45.5z" />
    </font>
</defs>
</svg>
